<mxfile host="app.diagrams.net" modified="2024-05-09T01:06:11.641Z" agent="Mozilla/5.0 (Windows NT 10.0; Win64; x64) AppleWebKit/537.36 (KHTML, like Gecko) Chrome/124.0.0.0 Safari/537.36" etag="IZY2gulGUNaaKrAw_yTz" version="23.1.2" type="google">
  <diagram id="KlY_V6JYViDILYr9qpoK" name="Page-1">
    <mxGraphModel dx="1434" dy="746" grid="1" gridSize="10" guides="1" tooltips="1" connect="1" arrows="1" fold="1" page="1" pageScale="1" pageWidth="1100" pageHeight="850" math="0" shadow="0">
      <root>
        <mxCell id="0" />
        <mxCell id="1" parent="0" />
        <mxCell id="LdKZ-aVJx-CH3_bbswVv-24" value="" style="rounded=0;fontColor=default;whiteSpace=wrap;html=1;labelBackgroundColor=none;verticalAlign=bottom;" parent="1" vertex="1">
          <mxGeometry x="573.38" y="234.28" width="446.62" height="375.72" as="geometry" />
        </mxCell>
        <mxCell id="NgGYjcGOGxEPnRiDAa9D-1" value="" style="rounded=0;fontColor=default;whiteSpace=wrap;html=1;labelBackgroundColor=none;verticalAlign=bottom;" parent="1" vertex="1">
          <mxGeometry x="386.38" y="150" width="163.25" height="460" as="geometry" />
        </mxCell>
        <mxCell id="NgGYjcGOGxEPnRiDAa9D-2" value="Arquitectura de Weblogic 12.2.1.4" style="text;html=1;strokeColor=none;fillColor=none;align=center;verticalAlign=middle;whiteSpace=wrap;rounded=0;" parent="1" vertex="1">
          <mxGeometry x="268.25" y="29" width="222.5" height="30" as="geometry" />
        </mxCell>
        <mxCell id="NgGYjcGOGxEPnRiDAa9D-3" value="" style="rounded=0;fontColor=default;whiteSpace=wrap;html=1;labelBackgroundColor=none;verticalAlign=bottom;" parent="1" vertex="1">
          <mxGeometry x="200.99" y="150" width="163.25" height="460" as="geometry" />
        </mxCell>
        <mxCell id="NgGYjcGOGxEPnRiDAa9D-4" value="" style="rounded=0;fontColor=default;whiteSpace=wrap;html=1;labelBackgroundColor=none;verticalAlign=bottom;strokeColor=#FF6666;fillColor=#FF6666;" parent="1" vertex="1">
          <mxGeometry x="228.01" y="168.25" width="110" height="44" as="geometry" />
        </mxCell>
        <mxCell id="NgGYjcGOGxEPnRiDAa9D-5" value="AdminServer" style="text;html=1;strokeColor=none;fillColor=none;align=center;verticalAlign=middle;whiteSpace=wrap;rounded=0;" parent="1" vertex="1">
          <mxGeometry x="238.82999999999998" y="175.25" width="88.37" height="30" as="geometry" />
        </mxCell>
        <mxCell id="NgGYjcGOGxEPnRiDAa9D-6" value="" style="rounded=0;fontColor=default;whiteSpace=wrap;html=1;labelBackgroundColor=none;verticalAlign=bottom;" parent="1" vertex="1">
          <mxGeometry x="228.01" y="233.5" width="110" height="44" as="geometry" />
        </mxCell>
        <mxCell id="NgGYjcGOGxEPnRiDAa9D-7" value="Node Manager" style="text;html=1;strokeColor=none;fillColor=none;align=center;verticalAlign=middle;whiteSpace=wrap;rounded=0;" parent="1" vertex="1">
          <mxGeometry x="238.82999999999998" y="240.5" width="88.37" height="30" as="geometry" />
        </mxCell>
        <mxCell id="NgGYjcGOGxEPnRiDAa9D-8" value="" style="rounded=1;whiteSpace=wrap;html=1;labelBackgroundColor=none;fontColor=default;strokeColor=#99CCFF;fillColor=#99CCFF;" parent="1" vertex="1">
          <mxGeometry x="205.38" y="292.5" width="340" height="54" as="geometry" />
        </mxCell>
        <mxCell id="NgGYjcGOGxEPnRiDAa9D-9" value="" style="rounded=0;fontColor=default;whiteSpace=wrap;html=1;labelBackgroundColor=none;verticalAlign=bottom;strokeColor=#E6E6E6;fillColor=#E6E6E6;" parent="1" vertex="1">
          <mxGeometry x="228.01999999999998" y="297.5" width="110" height="44" as="geometry" />
        </mxCell>
        <mxCell id="NgGYjcGOGxEPnRiDAa9D-10" value="Managed Server&lt;br&gt;WSM1" style="text;html=1;strokeColor=none;fillColor=none;align=center;verticalAlign=middle;whiteSpace=wrap;rounded=0;" parent="1" vertex="1">
          <mxGeometry x="233.83999999999997" y="304.5" width="97.55" height="30" as="geometry" />
        </mxCell>
        <mxCell id="NgGYjcGOGxEPnRiDAa9D-11" value="" style="rounded=1;whiteSpace=wrap;html=1;labelBackgroundColor=none;fontColor=default;movable=1;resizable=1;rotatable=1;deletable=1;editable=1;connectable=1;strokeColor=#99CCFF;fillColor=#99CCFF;" parent="1" vertex="1">
          <mxGeometry x="205.5" y="356" width="340" height="54" as="geometry" />
        </mxCell>
        <mxCell id="NgGYjcGOGxEPnRiDAa9D-12" value="" style="rounded=0;fontColor=default;whiteSpace=wrap;html=1;labelBackgroundColor=none;verticalAlign=bottom;strokeColor=#E6E6E6;fillColor=#E6E6E6;" parent="1" vertex="1">
          <mxGeometry x="228.01999999999998" y="361" width="110" height="44" as="geometry" />
        </mxCell>
        <mxCell id="NgGYjcGOGxEPnRiDAa9D-13" value="Managed Server&lt;br&gt;SOA1" style="text;html=1;strokeColor=none;fillColor=none;align=center;verticalAlign=middle;whiteSpace=wrap;rounded=0;movable=1;resizable=1;rotatable=1;deletable=1;editable=1;connectable=1;" parent="1" vertex="1">
          <mxGeometry x="234.24" y="368" width="97.55" height="30" as="geometry" />
        </mxCell>
        <mxCell id="NgGYjcGOGxEPnRiDAa9D-14" value="" style="rounded=0;fontColor=default;whiteSpace=wrap;html=1;labelBackgroundColor=none;verticalAlign=bottom;strokeColor=#E6E6E6;fillColor=#E6E6E6;" parent="1" vertex="1">
          <mxGeometry x="408.81999999999994" y="297.5" width="110" height="44" as="geometry" />
        </mxCell>
        <mxCell id="NgGYjcGOGxEPnRiDAa9D-15" value="Managed Server&lt;br&gt;WSM2" style="text;html=1;strokeColor=none;fillColor=none;align=center;verticalAlign=middle;whiteSpace=wrap;rounded=0;" parent="1" vertex="1">
          <mxGeometry x="414.64" y="304.5" width="97.55" height="30" as="geometry" />
        </mxCell>
        <mxCell id="NgGYjcGOGxEPnRiDAa9D-16" value="" style="rounded=0;fontColor=default;whiteSpace=wrap;html=1;labelBackgroundColor=none;verticalAlign=bottom;strokeColor=#E6E6E6;fillColor=#E6E6E6;" parent="1" vertex="1">
          <mxGeometry x="408.81999999999994" y="361" width="110" height="44" as="geometry" />
        </mxCell>
        <mxCell id="NgGYjcGOGxEPnRiDAa9D-17" value="Managed Server&lt;br&gt;SOA2" style="text;html=1;strokeColor=none;fillColor=none;align=center;verticalAlign=middle;whiteSpace=wrap;rounded=0;" parent="1" vertex="1">
          <mxGeometry x="414.64" y="368" width="97.55" height="30" as="geometry" />
        </mxCell>
        <mxCell id="NgGYjcGOGxEPnRiDAa9D-18" value="" style="rounded=0;fontColor=default;whiteSpace=wrap;html=1;labelBackgroundColor=none;verticalAlign=bottom;" parent="1" vertex="1">
          <mxGeometry x="408.81999999999994" y="233.5" width="110" height="44" as="geometry" />
        </mxCell>
        <mxCell id="NgGYjcGOGxEPnRiDAa9D-19" value="Node Manager" style="text;html=1;strokeColor=none;fillColor=none;align=center;verticalAlign=middle;whiteSpace=wrap;rounded=0;" parent="1" vertex="1">
          <mxGeometry x="419.64" y="240.5" width="88.37" height="30" as="geometry" />
        </mxCell>
        <mxCell id="NgGYjcGOGxEPnRiDAa9D-20" value="VM Server Nodo1" style="text;html=1;strokeColor=none;fillColor=none;align=center;verticalAlign=middle;whiteSpace=wrap;rounded=0;" parent="1" vertex="1">
          <mxGeometry x="228.01" y="59" width="108.17" height="30" as="geometry" />
        </mxCell>
        <mxCell id="NgGYjcGOGxEPnRiDAa9D-21" value="VM Server Nodo2" style="text;html=1;strokeColor=none;fillColor=none;align=center;verticalAlign=middle;whiteSpace=wrap;rounded=0;" parent="1" vertex="1">
          <mxGeometry x="410.4599999999999" y="59" width="105.91" height="30" as="geometry" />
        </mxCell>
        <mxCell id="NgGYjcGOGxEPnRiDAa9D-22" value="Cluster" style="text;html=1;strokeColor=none;fillColor=none;align=center;verticalAlign=middle;whiteSpace=wrap;rounded=0;labelBackgroundColor=none;fontColor=default;" parent="1" vertex="1">
          <mxGeometry x="85" y="204.28" width="60" height="30" as="geometry" />
        </mxCell>
        <mxCell id="NgGYjcGOGxEPnRiDAa9D-23" value="" style="rounded=0;whiteSpace=wrap;html=1;labelBackgroundColor=none;strokeColor=#99CCFF;fontColor=default;fillColor=#99CCFF;" parent="1" vertex="1">
          <mxGeometry x="145" y="210.00000000000003" width="30" height="20" as="geometry" />
        </mxCell>
        <mxCell id="NgGYjcGOGxEPnRiDAa9D-24" value="Managed Server" style="text;html=1;strokeColor=none;fillColor=none;align=center;verticalAlign=middle;whiteSpace=wrap;rounded=0;labelBackgroundColor=none;fontColor=default;" parent="1" vertex="1">
          <mxGeometry x="40" y="231.78" width="100" height="30" as="geometry" />
        </mxCell>
        <mxCell id="NgGYjcGOGxEPnRiDAa9D-25" value="" style="rounded=0;whiteSpace=wrap;html=1;labelBackgroundColor=none;strokeColor=#E6E6E6;fontColor=default;fillColor=#E6E6E6;gradientColor=none;" parent="1" vertex="1">
          <mxGeometry x="145" y="237.50000000000003" width="30" height="20" as="geometry" />
        </mxCell>
        <mxCell id="NgGYjcGOGxEPnRiDAa9D-26" value="Node manager" style="text;html=1;strokeColor=none;fillColor=none;align=center;verticalAlign=middle;whiteSpace=wrap;rounded=0;labelBackgroundColor=none;fontColor=default;" parent="1" vertex="1">
          <mxGeometry x="45" y="175.00000000000003" width="100" height="30" as="geometry" />
        </mxCell>
        <mxCell id="NgGYjcGOGxEPnRiDAa9D-27" value="" style="rounded=0;whiteSpace=wrap;html=1;labelBackgroundColor=none;strokeColor=#000000;fontColor=default;fillColor=#FFFFFF;gradientColor=none;" parent="1" vertex="1">
          <mxGeometry x="145" y="180.72000000000006" width="30" height="20" as="geometry" />
        </mxCell>
        <mxCell id="NgGYjcGOGxEPnRiDAa9D-28" value="Admin Server" style="text;html=1;strokeColor=none;fillColor=none;align=center;verticalAlign=middle;whiteSpace=wrap;rounded=0;labelBackgroundColor=none;fontColor=default;" parent="1" vertex="1">
          <mxGeometry x="45" y="146.00000000000003" width="100" height="30" as="geometry" />
        </mxCell>
        <mxCell id="NgGYjcGOGxEPnRiDAa9D-29" value="" style="rounded=0;whiteSpace=wrap;html=1;labelBackgroundColor=none;strokeColor=#FF6666;fontColor=default;fillColor=#FF6666;gradientColor=none;" parent="1" vertex="1">
          <mxGeometry x="145" y="151.72000000000006" width="30" height="20" as="geometry" />
        </mxCell>
        <mxCell id="NgGYjcGOGxEPnRiDAa9D-30" value="" style="shape=image;verticalLabelPosition=bottom;verticalAlign=top;imageAspect=0;aspect=fixed;image=data:image/png,iVBORw0KGgoAAAANSUhEUgAAAgAAAAIACAYAAAD0eNT6AAAABHNCSVQICAgIfAhkiAAAAAlwSFlzAAALEwAACxMBAJqcGAAAABl0RVh0U29mdHdhcmUAd3d3Lmlua3NjYXBlLm9yZ5vuPBoAAAulSURBVHic7dlBi53lHYfh58w5ycwwYoIxWhVBCrWbLluK2IX72mW7KMW93Wh3DXRRt7VQaEEEG4uLfoDipmtX3UVEW2iCFgwKiUoXykzinHn7CUohIXmS3tf1BX7/xcx77nPe1cGFi8sAko4vvTPG8AiAop3ZBwAAd58AAIAgAQAAQQIAAIIEAAAECQAACBIAABAkAAAgSAAAQJAAAIAgAQAAQQIAAIIEAAAECQAACBIAABAkAAAgSAAAQJAAAIAgAQAAQQIAAIIEAAAECQAACBIAABAkAAAgSAAAQJAAAIAgAQAAQQIAAIIEAAAECQAACBIAABAkAAAgSAAAQJAAAIAgAQAAQQIAAIIEAAAECQAACBIAABAkAAAgSAAAQJAAAIAgAQAAQQIAAIIEAAAECQAACBIAABAkAAAgaDP7gNtx8vAyjl48mra//nBn7P55d9r+j5/6YPzue3+dtv/7f3x//Ob9H0zbhzvltV++OA7292afwT3uwh/eGp989sXsM27ZfR0AY2eMZX/e/LK7mjc+xtjd2Y6zp+cF0P7meNo23EkH+3vjAQHA/7Czc3//iH5/Xw8A3BIBAABBAgAAggQAAAQJAAAIEgAAECQAACBIAABAkAAAgCABAABBAgAAggQAAAQJAAAIEgAAECQAACBIAABAkAAAgCABAABBAgAAggQAAAQJAAAIEgAAECQAACBIAABAkAAAgCABAABBAgAAggQAAAStDi5cXGYfcctWYyx7E88/WY3VjXnzp3e242Bzc9r+0XYzDrenpu1z+44vvTPGuH8fAXfKwd7u2NlZzT6De9yXhzfGsty//z+b2QfclmWM1WH3n/TmyXrcvLk/+wz4v/PV0cSyh7vEKwAACBIAABAkAAAgSAAAQJAAAIAgAQAAQQIAAIIEAAAECQAACBIAABAkAAAgSAAAQJAAAIAgAQAAQQIAAIIEAAAECQAACBIAABAkAAAgSAAAQJAAAIAgAQAAQQIAAIIEAAAECQAACBIAABAkAAAgSAAAQJAAAIAgAQAAQQIAAIIEAAAECQAACBIAABAkAAAgSAAAQJAAAIAgAQAAQQIAAIIEAAAECQAACBIAABAkAAAgSAAAQJAAAIAgAQAAQQIAAII26/XO07PGl+ufPvz1tY//Mpbl3BiLGIG7bPuvv88+AXqWsR0744vVufM/Wp/5xvVZZ6xmDY8xxv7zLzxxcjyuzrwByo4vvzv7BMjarsaT48p70z4DfesGgCABAABBAgAAggQAAAQJAAAIEgAAECQAACBIAABAkAAAgCABAABBAgAAggQAAAQJAAAIEgAAECQAACBIAABAkAAAgCABAABBAgAAggQAAAQJAAAIEgAAECQAACBIAABAkAAAgCABAABBAgAAggQAAAQJAAAIEgAAECQAACBIAABAkAAAgCABAABBAgAAggQAAAQJAAAIEgAAECQAACBIAABAkAAAgCABAABBAgAAggQAAAQJAAAIEgAAECQAACBIAABAkAAAgCABAABBAgAAggQAAAQJAAAIEgAAECQAACBIAABAkAAAgCABAABBAgAAggQAAAQJAAAI2jz46z8+NGv85KPLZ5fPr8+aB9br2RdA15mzZ8YPf/rVrPnN9sbq81nj4/Gnx/rxp6fNQ91yvB1jLLPPgKTNGO+P7bx9rwAAIEgAAECQAACAIAEAAEECAACCBAAABAkAAAgSAAAQJAAAIEgAAECQAACAIAEAAEECAACCBAAABAkAAAgSAAAQJAAAIEgAAECQAACAIAEAAEECAACCBAAABAkAAAgSAAAQJAAAIEgAAECQAACAIAEAAEECAACCBAAABAkAAAgSAAAQJAAAIEgAAECQAACAIAEAAEECAACCBAAABAkAAAgSAAAQJAAAIEgAAECQAACAIAEAAEECAACCBAAABAkAAAgSAAAQtJl9wO04eWQZhy8fTdtfX1mPvTdPT9v/2TffG68/8/a0/Vc/eHa88u5z0/bhTnnrlV+MB/b3Zp/BPe6l374xrl77bPYZt8wvAAAQJAAAIEgAAECQAACAIAEAAEECAACCBAAABAkAAAgSAAAQJAAAIEgAAECQAACAIAEAAEECAACCBAAABAkAAAgSAAAQJAAAIEgAAECQAACAIAEAAEECAACCBAAABAkAAAgSAAAQJAAAIEgAAECQAACAIAEAAEGrgwsXl9lHAHMcX3pnjOERAEV+AQCAIAEAAEECAACCBAAABAkAAAgSAAAQJAAAIEgAAECQAACAIAEAAEECAACCBAAABAkAAAgSAAAQJAAAIEgAAECQAACAIAEAAEECAACCBAAABAkAAAgSAAAQJAAAIEgAAECQAACAIAEAAEECAACCBAAABAkAAAgSAAAQJAAAIEgAAECQAACAIAEAAEECAACCBAAABAkAAAgSAAAQJAAAIEgAAECQAACAIAEAAEECAACCBAAABAkAAAgSAAAQJAAAIEgAAEDQZr27nJs1fvLR5ceOP7/+/qx9qDv+8L3ZJ0DW9szZ74xHHvtk1v5q1vAYY+w//8ITJ8fj6swboOz48ruzT4Cs7Wo8Oa68N+0z0CsAAAgSAAAQJAAAIEgAAECQAACAIAEAAEECAACCBAAABAkAAAgSAAAQJAAAIEgAAECQAACAIAEAAEECAACCBAAABAkAAAgSAAAQJAAAIEgAAECQAACAIAEAAEECAACCBAAABAkAAAgSAAAQJAAAIEgAAECQAACAIAEAAEECAACCBAAABAkAAAgSAAAQJAAAIEgAAECQAACAIAEAAEECAACCBAAABAkAAAgSAAAQJAAAIEgAAECQAACAIAEAAEECAACCBAAABAkAAAgSAAAQJAAAIEgAAECQAACAIAEAAEECAACCBAAABAkAAAgSAAAQJAAAIEgAAECQAACAoM2Dv/rTt2aNL9c/ffjrax9fH8tyboxFjMBdtjq1O/sE6FnGduyML06dO//E+tvfPT3rjM12e/LPWePjoUfH+qFHp81D3XJ0NMZYZp8BNesxxvkxxt+W7fG0I3zrBoAgAQAAQQIAAIIEAAAECQAACBIAABAkAAAgSAAAQJAAAIAgAQAAQQIAAIIEAAAECQAACBIAABAkAAAgSAAAQJAAAIAgAQAAQQIAAIIEAAAECQAACBIAABAkAAAgSAAAQJAAAIAgAQAAQQIAAIIEAAAECQAACBIAABAkAAAgSAAAQJAAAIAgAQAAQQIAAIIEAAAECQAACBIAABAkAAAgSAAAQJAAAIAgAQAAQQIAAIIEAAAECQAACBIAABAkAAAgaDP7gNuyGmPZW+btn6zG6sa8+dM723GwuTlt/2i7GYfbU9P24U452NsdOzur2Wdwj/vy8MZYlomfQbfpvg6Ak/PLOHz5aNr++sp67L15etr+T576YLz+zNvT9l/94NnxyrvPTduHO+W1Cz8fD+zvzT6De9xLv31jXL322ewzbplXAAAQJAAAIEgAAECQAACAIAEAAEECAACCBAAABAkAAAgSAAAQJAAAIEgAAECQAACAIAEAAEECAACCBAAABAkAAAgSAAAQJAAAIEgAAECQAACAIAEAAEECAACCBAAABAkAAAgSAAAQJAAAIEgAAECQAACAoM3sA27LyRirw3nzqxvLvPExxo2T9fj3zb1p+4fH9/efD/w3Xx0ezT6B+8DJycnsE27L6uDCxbmfYsA0x5feGWN4BECRVwAAECQAACBIAABAkAAAgCABAABBAgAAggQAAAQJAAAIEgAAECQAACBIAABAkAAAgCABAABBAgAAggQAAAQJAAAIEgAAECQAACBIAABAkAAAgCABAABBAgAAggQAAAQJAAAIEgAAECQAACBIAABAkAAAgCABAABBAgAAggQAAAQJAAAIEgAAECQAACBIAABAkAAAgCABAABBAgAAggQAAAQJAAAIEgAAECQAACBIAABAkAAAgCABAABBAgAAggQAAAQJAAAI+g+1eOxkbVzMiwAAAABJRU5ErkJggg==" parent="1" vertex="1">
          <mxGeometry x="257.61999999999995" y="92" width="50" height="50" as="geometry" />
        </mxCell>
        <mxCell id="NgGYjcGOGxEPnRiDAa9D-31" value="" style="shape=image;verticalLabelPosition=bottom;verticalAlign=top;imageAspect=0;aspect=fixed;image=data:image/png,iVBORw0KGgoAAAANSUhEUgAAAgAAAAIACAYAAAD0eNT6AAAABHNCSVQICAgIfAhkiAAAAAlwSFlzAAALEwAACxMBAJqcGAAAABl0RVh0U29mdHdhcmUAd3d3Lmlua3NjYXBlLm9yZ5vuPBoAAAulSURBVHic7dlBi53lHYfh58w5ycwwYoIxWhVBCrWbLluK2IX72mW7KMW93Wh3DXRRt7VQaEEEG4uLfoDipmtX3UVEW2iCFgwKiUoXykzinHn7CUohIXmS3tf1BX7/xcx77nPe1cGFi8sAko4vvTPG8AiAop3ZBwAAd58AAIAgAQAAQQIAAIIEAAAECQAACBIAABAkAAAgSAAAQJAAAIAgAQAAQQIAAIIEAAAECQAACBIAABAkAAAgSAAAQJAAAIAgAQAAQQIAAIIEAAAECQAACBIAABAkAAAgSAAAQJAAAIAgAQAAQQIAAIIEAAAECQAACBIAABAkAAAgSAAAQJAAAIAgAQAAQQIAAIIEAAAECQAACBIAABAkAAAgSAAAQJAAAIAgAQAAQQIAAIIEAAAECQAACBIAABAkAAAgaDP7gNtx8vAyjl48mra//nBn7P55d9r+j5/6YPzue3+dtv/7f3x//Ob9H0zbhzvltV++OA7292afwT3uwh/eGp989sXsM27ZfR0AY2eMZX/e/LK7mjc+xtjd2Y6zp+cF0P7meNo23EkH+3vjAQHA/7Czc3//iH5/Xw8A3BIBAABBAgAAggQAAAQJAAAIEgAAECQAACBIAABAkAAAgCABAABBAgAAggQAAAQJAAAIEgAAECQAACBIAABAkAAAgCABAABBAgAAggQAAAQJAAAIEgAAECQAACBIAABAkAAAgCABAABBAgAAggQAAAStDi5cXGYfcctWYyx7E88/WY3VjXnzp3e242Bzc9r+0XYzDrenpu1z+44vvTPGuH8fAXfKwd7u2NlZzT6De9yXhzfGsty//z+b2QfclmWM1WH3n/TmyXrcvLk/+wz4v/PV0cSyh7vEKwAACBIAABAkAAAgSAAAQJAAAIAgAQAAQQIAAIIEAAAECQAACBIAABAkAAAgSAAAQJAAAIAgAQAAQQIAAIIEAAAECQAACBIAABAkAAAgSAAAQJAAAIAgAQAAQQIAAIIEAAAECQAACBIAABAkAAAgSAAAQJAAAIAgAQAAQQIAAIIEAAAECQAACBIAABAkAAAgSAAAQJAAAIAgAQAAQQIAAIIEAAAECQAACBIAABAkAAAgSAAAQJAAAIAgAQAAQQIAAII26/XO07PGl+ufPvz1tY//Mpbl3BiLGIG7bPuvv88+AXqWsR0744vVufM/Wp/5xvVZZ6xmDY8xxv7zLzxxcjyuzrwByo4vvzv7BMjarsaT48p70z4DfesGgCABAABBAgAAggQAAAQJAAAIEgAAECQAACBIAABAkAAAgCABAABBAgAAggQAAAQJAAAIEgAAECQAACBIAABAkAAAgCABAABBAgAAggQAAAQJAAAIEgAAECQAACBIAABAkAAAgCABAABBAgAAggQAAAQJAAAIEgAAECQAACBIAABAkAAAgCABAABBAgAAggQAAAQJAAAIEgAAECQAACBIAABAkAAAgCABAABBAgAAggQAAAQJAAAIEgAAECQAACBIAABAkAAAgCABAABBAgAAggQAAAQJAAAIEgAAECQAACBIAABAkAAAgCABAABBAgAAggQAAAQJAAAI2jz46z8+NGv85KPLZ5fPr8+aB9br2RdA15mzZ8YPf/rVrPnN9sbq81nj4/Gnx/rxp6fNQ91yvB1jLLPPgKTNGO+P7bx9rwAAIEgAAECQAACAIAEAAEECAACCBAAABAkAAAgSAAAQJAAAIEgAAECQAACAIAEAAEECAACCBAAABAkAAAgSAAAQJAAAIEgAAECQAACAIAEAAEECAACCBAAABAkAAAgSAAAQJAAAIEgAAECQAACAIAEAAEECAACCBAAABAkAAAgSAAAQJAAAIEgAAECQAACAIAEAAEECAACCBAAABAkAAAgSAAAQJAAAIEgAAECQAACAIAEAAEECAACCBAAABAkAAAgSAAAQtJl9wO04eWQZhy8fTdtfX1mPvTdPT9v/2TffG68/8/a0/Vc/eHa88u5z0/bhTnnrlV+MB/b3Zp/BPe6l374xrl77bPYZt8wvAAAQJAAAIEgAAECQAACAIAEAAEECAACCBAAABAkAAAgSAAAQJAAAIEgAAECQAACAIAEAAEECAACCBAAABAkAAAgSAAAQJAAAIEgAAECQAACAIAEAAEECAACCBAAABAkAAAgSAAAQJAAAIEgAAECQAACAIAEAAEGrgwsXl9lHAHMcX3pnjOERAEV+AQCAIAEAAEECAACCBAAABAkAAAgSAAAQJAAAIEgAAECQAACAIAEAAEECAACCBAAABAkAAAgSAAAQJAAAIEgAAECQAACAIAEAAEECAACCBAAABAkAAAgSAAAQJAAAIEgAAECQAACAIAEAAEECAACCBAAABAkAAAgSAAAQJAAAIEgAAECQAACAIAEAAEECAACCBAAABAkAAAgSAAAQJAAAIEgAAECQAACAIAEAAEECAACCBAAABAkAAAgSAAAQJAAAIEgAAEDQZr27nJs1fvLR5ceOP7/+/qx9qDv+8L3ZJ0DW9szZ74xHHvtk1v5q1vAYY+w//8ITJ8fj6swboOz48ruzT4Cs7Wo8Oa68N+0z0CsAAAgSAAAQJAAAIEgAAECQAACAIAEAAEECAACCBAAABAkAAAgSAAAQJAAAIEgAAECQAACAIAEAAEECAACCBAAABAkAAAgSAAAQJAAAIEgAAECQAACAIAEAAEECAACCBAAABAkAAAgSAAAQJAAAIEgAAECQAACAIAEAAEECAACCBAAABAkAAAgSAAAQJAAAIEgAAECQAACAIAEAAEECAACCBAAABAkAAAgSAAAQJAAAIEgAAECQAACAIAEAAEECAACCBAAABAkAAAgSAAAQJAAAIEgAAECQAACAIAEAAEECAACCBAAABAkAAAgSAAAQJAAAIEgAAECQAACAoM2Dv/rTt2aNL9c/ffjrax9fH8tyboxFjMBdtjq1O/sE6FnGduyML06dO//E+tvfPT3rjM12e/LPWePjoUfH+qFHp81D3XJ0NMZYZp8BNesxxvkxxt+W7fG0I3zrBoAgAQAAQQIAAIIEAAAECQAACBIAABAkAAAgSAAAQJAAAIAgAQAAQQIAAIIEAAAECQAACBIAABAkAAAgSAAAQJAAAIAgAQAAQQIAAIIEAAAECQAACBIAABAkAAAgSAAAQJAAAIAgAQAAQQIAAIIEAAAECQAACBIAABAkAAAgSAAAQJAAAIAgAQAAQQIAAIIEAAAECQAACBIAABAkAAAgSAAAQJAAAIAgAQAAQQIAAIIEAAAECQAACBIAABAkAAAgaDP7gNuyGmPZW+btn6zG6sa8+dM723GwuTlt/2i7GYfbU9P24U452NsdOzur2Wdwj/vy8MZYlomfQbfpvg6Ak/PLOHz5aNr++sp67L15etr+T576YLz+zNvT9l/94NnxyrvPTduHO+W1Cz8fD+zvzT6De9xLv31jXL322ewzbplXAAAQJAAAIEgAAECQAACAIAEAAEECAACCBAAABAkAAAgSAAAQJAAAIEgAAECQAACAIAEAAEECAACCBAAABAkAAAgSAAAQJAAAIEgAAECQAACAIAEAAEECAACCBAAABAkAAAgSAAAQJAAAIEgAAECQAACAoM3sA27LyRirw3nzqxvLvPExxo2T9fj3zb1p+4fH9/efD/w3Xx0ezT6B+8DJycnsE27L6uDCxbmfYsA0x5feGWN4BECRVwAAECQAACBIAABAkAAAgCABAABBAgAAggQAAAQJAAAIEgAAECQAACBIAABAkAAAgCABAABBAgAAggQAAAQJAAAIEgAAECQAACBIAABAkAAAgCABAABBAgAAggQAAAQJAAAIEgAAECQAACBIAABAkAAAgCABAABBAgAAggQAAAQJAAAIEgAAECQAACBIAABAkAAAgCABAABBAgAAggQAAAQJAAAIEgAAECQAACBIAABAkAAAgCABAABBAgAAggQAAAQJAAAI+g+1eOxkbVzMiwAAAABJRU5ErkJggg==" parent="1" vertex="1">
          <mxGeometry x="443.01" y="92" width="50" height="50" as="geometry" />
        </mxCell>
        <mxCell id="LdKZ-aVJx-CH3_bbswVv-6" value="" style="shape=image;verticalLabelPosition=bottom;verticalAlign=top;imageAspect=0;image=data:image/png,iVBORw0KGgoAAAANSUhEUgAAAOEAAADhCAMAAAAJbSJIAAABd1BMVEX/////TABWVlb/swD/ugD/rQD/hgD/jQBTU1P/XAD/mwD/kwD/pQD/fQD/mQD/oABNTU3/aAD/dQD/bQD/qQD/sQD/YQD/cQD/gAD/igD/vgD/eQD/WQBJSUn/VAKjo6P/xACQkJDb2tpDQ0P/PACAgIBmZmby8vL/RgBub2/Qz8/u7u7/OgD///xeXl53d3eKiorDw8OoqKhpaWn/9u3/5t61tbX/4NP/TRj/+fD/8+Kmpqb/n3//bUT/km//fFP/1sb/xLH/YjT/q43/0rr/kFL/3cH/s3b/6NP/1Jv/w2H/7s//0n7/x0H/s5//fFn/XCj/waj/i2z/Yz7/l33/ajT/hl//pIr/YSf/pXr/cjv/f0z/uJf/k2j/2c3/bSf/xqb/hD7/pXP/lVj/iD//vIn/eij/2Lb/xJ7/nFb/lEX/kzH/pVn/nUX/tnT/rmX/oTX/2qn/x5L/sFX/sj7/6b//v1r/umv/znf/15r/z1//yFL/14B06E8kAAAPsUlEQVR4nO2b+V/TSBiH28qRAkIKbFuFtPagTY/0gLSlXZBCWRZFLi9EF2V1PVZWBQUVd//4ncnRZpLJUZoyxU++/iCQycv7zDvzvu9M1eVy5MiRI0eOHDly5MiRI0eOHDly5MiRI0eOHDly5Ogqa7lK2oPuitvKrjwn7UQ3xS9l3Wx8gSPtR9dUWYm73W42u82T9qRLquywbkHxxZ8TkXdLgBDxZ8w3pfkmIET8+fYit6QABIi3STtku/aybkTZOmmPbNbzOAroZnd+smyzwqoI3dk90j7ZquWsGtDt3imR9spGVR9oQgiCuEXaLRtVx4TQzf5MRfG2Os9IiI3dioqSry//sb+wSsbNi6vZrqkRs9mse/GPJmVl7xH8UTw7f6W2aGlrSQdQpGTj7MpCBbQ4zxfdcfbKbVHu+cOdOGsAKFG6l5YXFMPYB1dki3L17Th2B2Ig0YHs1Tgm17ezZtHTU48tU44rrS439u7fv7/XWF7lpVNDaTtrMX64kG6TRVKKKy3ffrDDZuNgu4GlFmd3FvdWeRffYC/OBwjnSXPJ4ne357NxdC2y8eyDxsUXqGSkR/ry+jx+JbLxzvjA+bFHCHENtT2K90i52O1krxmK7ZFbjq0LEMJ8xLLzUOKX2EErpNEktbtKIdGjh43d+vMSVH0V1JhHLIaSfUgaTVJbhIBkaaukzSDVemOJVafe7DIBHIyWLa9SNj5/2+BDGX73sRu11SM3VZr7JV2+xd2Sce7gSns7yhrDzlcuCcJQvKWyx7JLdSupsbQXUiKu9MIhkbNCmF2sW7VXWlDsx/hiFz23rG1TRNa91U5pKy21kld2oWt+W9dDM8J4ux+Iclutzzd6IduYJdP4dvubqbIoG2VXyHenvDFh/PFFXKw+lq32wr34otEyzS5dsLtsfowTJ3+bYdSZxrcv2j5zjbhswlZvL6LSvC4g28ln2fIGjxPv3jj9esF21JRIi6MHDhm6zXenvfOCiEi+YlQXdSLY8cfYD0VE8p2NThBDHZeyKtgAIXcoS7w95RbdIa1Y0ytdnq9USpVSief0Mm5pXrBEviZWslpA91PDQlGtbN1eXAntzId2dhaXbu8+xwd8VbDcA43NgXtaLdYozZQaj1hWCPw0+BOCx8fpg1Xc8fg2tByvd8lv6+IehVSAIYNmpnQbbC71jADMJw3thqs+ASPd5P/pDf9E7TGr+yEuvx/SRlyCfLKgYVyGgx8RX6a7bi+qad1dWHnqnvbqaTr0aFf1IrcUAj8m3pzeD6lcDf2hM3I3pB6qYnQ/q6Fv1N0G5i5LVXUIvWwNP3IB8Pn9+oDg2fS0KkcdgCDe7z6EoeqsH5X3GX5gI+Q3lzfUQF6qhPxe49LTfe2rHQ/tYsftWgGEr6PXMwdev49squEea3zE9ln1aSRUYNPJS1Mtd0P1npfs1Sk/7UPlf4od9sLfGhHy/dZYfQ6attX9Z75pr8qAz42klhd+L9l/QbQeUvnnxaa+x00O//SzQ0UqKh0+9qsZkXXe8PrJJtNddQyxM77ahPA+PVQXvfqB34/a8K+1Hlf8/tddJTDTvjoAL3C14k8ZwX+ASRvcqg9F9L9ozQL3p/dl99w3F/dKvYueYhDW5KU8vY83U/rNO4EgKhLq/nQD/9LlqPrMN4HI9wpTvQ6kQX7daHD7XsTM9Hrz0ar37664blFrARRwwv+7dhAvAfoO9A1xDT8yUb81J4p/Q3CV8i8n1PJj6v2hGB/fG512TtRLZDX4WwmLJ1fxVwO+iYBKfkwqfekTHx0aWuP+8insKIJITNWXXjUe0ERdM5B/JszDxF8mPleQ6ZpYMx7dfa3/6cMABnzanm19XHxyaGbytdLiBNH8AlQZnxjHaWJdM/StODJgup34NwpDgXGyDXcFeIAn1MZw1Sd4/N7c6mvlrE287YLflrU+FZjCaXwqoI3h4QR8FLDQXfJ+hakAyVaGf4MHhCAYQmFwwEpIXo0rEIMEs+krXcCpgDYFSoRWcuM7peEJw/LZVb0LXNdVQFsP3wrDLRGuKS2TqxfrBoDXA++044UH41b8rY0bm7ok/T0V1AUMjn/UjOf/gk+mrOxDbkBha4pUqlkNBA009V77CcTLKfjAyjmWe39dYepvMqmGf28EGAy+0RbEw3H4wFKPcqQgvE6oqzm8rscmzbw21fCiw1ZS45HC0vV/iMSQO8KDtYQ5IH6Cs3LdyjI9Cg60LJFZpWvBARMFtRtxfUp4YP6BNae0HvxAhPAfc0JM0vw9aM3j2g3yhGsDAzeMNfBB+1b1CL6FW8Co1oMK60Ft4bkUvTUjvBHEpJQ14a0BM8S3QaUdQoQQcVB0YVD2RfUFjuME+j4Y/GScUF8PDCrsDBx2BcBcIB6DhhrQni9AMzsgPBp81zrYcuvqgUcqQ5+7CqKv9aMBQ8Ibn3BvrQ0LE3Pj+Pc1vlrl+NrJl8FBFLEWVM8Vqea79o9xFG9gHat9kZ4ODh9/+HA8DNbhEbpoP2tnjtRVBncC9sqwrgaP8I6tHQ8Ir0mkA5/QYdVjjc1B7HK4FPFfDBH1HKt8HBPgwBoY/rihenh4Q2sJu6cvSWtg0ekj6p7tqusn7z7fufNuQ9P6VI9xlj4RvMuovv0yqss4qA6QuT5jjQ0SDCJgPPs2pBfI0XZvWWqj+KkiVTFkVTe+fQGra1Sj4eM2J/8YYwSKTHeKqlr7hkMcawvxow7g6CjRZSqrOjo6pNHoUBt78c6w1oBkhujdd1OfMYQA0XJL8hY3RaKRHiF0neI9tJgmsBMkAo4R/5RNUm1oaAyjoWMrKfUb9l3w9ujovR75n/lAJ8M6Xp6b+Vj7ggccGh351hNZRpZeIEZP7xgxVu+MYV4cGZs8/XZC7oMLrLjJsRG8xk7v6PnKnZ0OYV74XKvVeqAMqlXTAQQej419xQWken46ipmWsW+X77w1nekiipD3zmqt9VrdOLk7go/6ZI+tToWMECHlyMjp1+/3zs/P732/ezqiwzcy1n7TfmlaH5k0EcSCiQT8pTdk7Jw0hoHOx8wIzTV2lzSFgbivpjGcnOwHf8S/sRrpZUBX9XSyv0NNfu2dHgajjU75+ifv9jSg66zTEE5+J41gopP+XzpRf/8ZaQIznfRf60D9//ZuoZd1/ksnhL/01DkCr84Ir/VwKyPrpCPCPuL/k9JcJ8DNC+vaZg8el9Q6w7veZ4n7Wq9XCqgNLN/Zxr1NK4QnpN23oCqG5AdsUriN83ubN03W8BXYhi7Xj76bSgE+RX7ka2fn98DJEPzZvKlR37/k3G5DJ31KPIQPUVWD2NfX8/2MoFrT4Zs3/z03aFFqasKbm5fnZSfifvQBtlu3Nv87Mbkq24DDBLRbt4QvrkYIwV47O9vYsHQPWNsU2GRdjV3Ypv5TEl6JRNq2Nn7IfFdmjbats+8i4X+kHemiauebIDGR9qLL4jeuQMvtyFEvKFr89ddwOZoh7Ud3lEwX6FiMZmgmxuSLSdLu2K90iqYpjySKmSte1BBYBxGgQtRO7zpXJsJAPIqiKRGUYmYutFYzEQ9DU8AO3VurIJOKCVRUqlCI5HM0Db6jPReIQtrDiKuACdvvZQfKABwPFUuVxbAl05EY+AGdazsMGYqChoCYnspWSY/Ao9x50RmGYtqPYQEYYmbK6XQxbZ97NigCVhadV016mWk/12Q8lIfureUpKA32IJ3SrKqL7ELaQ+XscMlm5Sngly3bZhYQRuwwZK9gCJmLbJtMNBpFc1EYt0iTYBh+/uATa4Y70wxwa8Z4SD6RK7vSkVQCSKohmXI+B8qeJwW7n0IikYc/BISeXB4qVZZeLc7kQI31JGYB5GwukYBvJ+cSIK3BJ5QnF1FBRsMJUJapXAFMega8UOgYMJOjTEOYoOhwWCjkFD0n/KScYCip+0kUXTM0lZIJoXsUFZsV3U0xYqNEMZ5Z1yxDUQIh+LYcZihhNE0po54JU9ILND0TTTKU2eRbUBHuQpM1kQBhpqVKLgQnEms2eKD8lfMUnrAco5vDPEwhDL6TCCEyHAofxFpbN5pgWi+A+gXGdU4YMV+kkFD4laAr98DJmBE7IDDDDEQA4WwR5vIpoDk4EbPyMDAOdgJwrECYo0RzuZzwoImYEYbQMfkFgGsDYR7JDsVCBFWhKBPSnnBUTA1h6DmTL4Pv0hHBqRah0pbg7pwwLExJ0WwRMjPpTDI6C+Ip7xLh5xQVSYM3yikxmjYQziFezcZoVMJyg4TUnJwSorDFo2ellZ2eo3UIob9MWEqj0TyNEsqNaxR2CUKecoVh55GSfk1ylraR8Nfmd2XFPmjtO4GwmfNmwK+OlZuvRIWZ1xJCU3RriyVFRJmQSsgPirBawXlIxtDCPMvYQzijiqFCjIKwdVbIACBamcOjMSyh0EgohyGETGuK4HdFCTWmrB2wy7WBMKyfr6Ie6VcCwlizSy0C8BhSwvMUhjADQ4hUoUgz08CF2UIBIDTcCwV1zovak2mK+j0bTBU0fAQJm84CR6k5ZFyZxhCCVkllF8a6VS1ahMAgfCuZQiILNWdLtcjIi0QrsOEoIQcklE0BmHIKbTSKOEIQaiqB1NkMQtgKr0wIdyfqSMEWQsiBL4hwnYmTihBGNIRp3CqFhHOdEtK2EAqdNy6IQs4UfEQIw3Jkm8LGMBpT90qtVZrDEoJVSqN+5O2Jod7pqRxrFi2EUJtpCthMQ6szjZD99QmF7gpZHBl7cql8Ala3pmlo3iOSIIRCtUC6Zf1qoYx1RuhkDAhhtaCV1SJsF6F4i6E65BdhVyynNoRQKFOK6CTz+IovxFqx6iKMx5jQFWt2N4LStD0VH/5GSEN7FJlavD5tdsQooVCmmjkhM8PodG2w42whioCGhLBrYwryYkqLpytbCMECEm4Tc+FoJplMZooRGroTa24KlFA4M1CxAmick5lZ/c47KhiZKcJhxRyj6LyxuRQItrjgIBkFL6QL4gHNJkJXRujkweEzBw4+wqEcILR6ShWhqwCzIhg8N+eBQ2lcpnFJTS5N51LiMIoyI4wmhKbeMwd9EI4zthHKt/ri8VU8fioWrZowWWDksy6cirDiBIzkoLJiGDhugWRpTOiKzjGSFwLfrI2E8JMZpvnJDMXQyPVJAhza0YuOsqd5i0HNKm4xKPQmKp1jxEMTONKG4S2GTEjhCV3JiOwFFUvBWwwbCeEdUAqcJ2gmRs3Mook1QasJ4U0UE2NisVQ56WoR0ipCeKSm4DCwxWEmad7TULSSkFJ8yhENJ4AXwIciLIh23NOgfkeL5bT2Jg+kH8xNTjKalq4Jm49x44RhSeSxyp76rYzWsCNHjhw5cuTIkSNHjhw5cuTIkSNHjhw5cuTIkSNHl6D/ARBT3d3IEe7VAAAAAElFTkSuQmCC;imageBorder=default;" parent="1" vertex="1">
          <mxGeometry x="840" y="256.81" width="125.38" height="125.38" as="geometry" />
        </mxCell>
        <mxCell id="LdKZ-aVJx-CH3_bbswVv-18" value="" style="edgeStyle=orthogonalEdgeStyle;rounded=0;orthogonalLoop=1;jettySize=auto;html=1;" parent="1" source="LdKZ-aVJx-CH3_bbswVv-7" target="LdKZ-aVJx-CH3_bbswVv-13" edge="1">
          <mxGeometry relative="1" as="geometry" />
        </mxCell>
        <mxCell id="LdKZ-aVJx-CH3_bbswVv-7" value="" style="shape=image;verticalLabelPosition=bottom;verticalAlign=top;imageAspect=0;image=data:image/png,iVBORw0KGgoAAAANSUhEUgAAAVAAAACWCAMAAAC/8CD2AAAAkFBMVEX////mUizmUCnmTiblRhblSBnlTCLlSRz3z8b99PLlSyDnVi/63Nf//fzlSBvuloLqclftiXP1wbboXzzqdlzkQQjyrqDukn7xqJj75uHsfmb98e786+f98/D0uKv2xrvxopH41c3re2HpbE/wnIrnWzf64Nrth3DpZkbxpZXkPwDztKfpZ0jyrZ7pbVDqdFiRc9R5AAANKElEQVR4nO1dZ4OiOhSFVAxihVEQex3r//93L1QpSWRmZx33mfNlnZWWw83tiYahoaGhoaGhoaGhoaGhoaGhoaGhoaGhoaGhoaGhoaGhoaGh0RDOZGcNTpfFYjH+mM2Xfuu3H+hfRssaBweTItyhlFFKOwix7bU783/7wf5J7C49hCgEwCwBQIY90J9Pfvv5/i2ElzWm0JQBEGTvrd9+yH8Hy8DryNm8czrWYtoElotIjT/SEXCKzY2m9BGWPSQQzk4wt0ViSulCm30VJiMRnSbeGAMsnvp4O/jth35hzBgTkcb2hrGvq4FUStFKu1FiTAIEhJQRrilduZUiRAupCJYtFE/TpGP+baAw+wD1nd9++tfDh1g8OV0g5F+PqZxQzvlZT/sKRkhGFlxF3y8lRik7yFz+9gheCk4g5dPsnOIjtncBhgIXCtD5bw/iheC4igmNkhhzk2tYvDkItAPA2jRlcG4qBekl6nGXyTDr74TiDJBmNIETiPiEmRR6YXJYL7HzwG5JnHyAdb4kRl/ED1gd0jmOUkJTGvFJavEBbv/uSF4DF+EEJiNnlTCK02i9ZUcyC5hjfMo0BNyGvzuWV8DcE0vb2XAO0SQHIHPauxHBbGMYJ6kLRc5v7+GHROzPg61jWBHXYJgduoz+jGa1pfCxNr85mBeA40qSHhGhxpWLKNnnB3NvCUYi6CucfPTm7qhYgXLEzM04c/QzP5jrTtbl/zoiPzR7EeCtE6S+dPLGghkCUBS5HU3/2kjSKBFY/7cG8woIZFlOk16i711okrvh5pKZ+FBLuRLNI6u3xFxODI6THQsK1wW73Wd28uGgSObBw28M5TUwlOrC2CZFjNNF4fhPtEo+DJQiOnv+SF4DClpi48O1pucVg5/BcZF8cFQiCoZvapdUxhol6c2WV5q/7WMmfAplwdXFm4qoQkDBMNGcjlfixj/maeSbSkS3Tx7Ji+Aq5yR3Pq+lUHJyzCsdakP/lt59WxzEJ4TukmOccvrIQXcfSlW1g6tnDuRVMJJ75/AqOadgbixVkYntnjOGV0JrKzdJ+ENyUlDQAAqTZnYuTxnDS0Flp7EsrbkoEHpR1E3AGzr335nxxqBAqLiylAK9XZ3eseUzNm4VEaLYvejI46y4UPJm2ClsPG7WtCDtH+MgQfVop9VqOTF+fCwP0A1WT6jHyssYJrCbtdGqunPAthp+7jGBEYA93M+e2qd7pegJNrIvFy+4bnYJWctoDFotgPaZCWACgsnmL4f7vnW/fw/Sv0+oKo4vFD2UUHqitXg+eoPn83m9PgAMAT78XSG9He+DeAqhk+pymQJYw0JbW+naVy/SJ1mCYDI4M5PdfnZAZThDei8cPIVQVTNdoYqkRFvVwAOrVulOaFIa9P6moZgA9mRCVfpP7jWVsVMRWss4FQk1JjaA7g8Op/5o5MmEfijIYItm11BOeZNUzE6JUGNEgD39ueFUYaFnE6qqW5KGdUulUTJRxeqUCT11TBYFU6EfH9Y+nazsBTi7+WxmFSItP16xG85n8yQidtqD2bwciYXWrPRfp06dUH7ZQbvkBE+Xg9lgl/+X79+XBk98Pw+//eh5HvUYKbwmE/YenJxiJlgMViC0knAqE8pVTpwiXCE4McIrwvg4Sq96pvwvxK5ZTtVh6Go4G4YwglH8Za0R/8iC+xB3AUQczE0CEmuzHwKwdV33doteFyf0w2j3+GURut69qUnXjs7C50yZY3rM9fqnh1IWdi6LDiMrdSOcvH7c3LFXvZS8iCIh9JOaMIyfw9v5JgHckYqn5bSHIIsIJdDbp1UD7pD4Zy8aFOAjnh0jZojJ7IzRsUcooluGiRdr//0xWmwFMb9KnL+NCL148VsA0MuK3BamBFEboPxGpNDhOqapjh94hPCZiDvkqNQbilUy/OxGlXVlLF8vz5cJ7cHkrwBia91Bw9vhGB3vrBlAI8v3rT0yceIoOCYwD8eV1bb6GAzbBK2s3XKETJb6ER8eP2UXtsILBbHrYI26ZwAO3W53NGql90Jow89aUADTh1hSwC8UTifzLcRJRRIKCA0poEF7MtmN2VHpligJZaMmhKoy/o8IHSCTxo5qQMAZuZEcxeqr2wEwlew5NdEpIzStTI8Y2OJFOuK0tbqN8mb0NoNmYulGhNzH0IMmvSXibPGLxgc7NqQJjcb0AL34niJCFzQLc1pqKVMS2qw/SWXXHhBqMZD2oHDVw245zyEqFPW7DNjRc3BCM78jxCZMGgai/HgSjAXk/v4XNA3Q+qRklKCb3cKFCdMfCOadlxZOSBMRGpCG9TEBoSRvAm+UcC/GWpDVZ7+IUD/k2A1cxPlMRs4JLWSzx52CFIdpJxUnNBsUD5jThoFIWcTBWIgAzc27n1JTJZTmFYgPGid7nTO8r7FwhjDugRURuiqcq0TdKMFRADzEYlab+IiL2JONN3ig5821xmjdKHFJi4B4KE+y8nRQHDkfelHbuMlfBUKN6318o+TMAQKFXI4Nh+nNJIQOMDhEDZnMRPdZuII4eiciQjcUgEZdBnULTU+G4w+6axtTCOhDLbqjEZc02oKk3RI19dTdJv7SSASGyD77MiCFQNfJpnGCLkukqUBoD3YqhPL3uu1dE/SuWb+1nFAUzwELmaCXn7YFKPKJ4P0+OaE+JxQPx7uS/ypCXQFmXWET67LfouMDzeGsj/TaHbTT1yzw8euOvWkHHPv+YlAoRpNC8xTXIrhw3zGNu6fVhI6YCb0cyGMZoUWjVCOUG0VQOAsdZYQaFugAQNH648GcFYSeBaXnhNan2i7NL+3iAQKXVBR61q9TJhSWVuZcmhDKxThYWnfs0pupCZ0jYBfPyqx8nVBjuhhG/it+MPMFyZE/yFb4dYOvTo7kKBE6NUsS+knj4mlZh9anvChSfkSohQCsnSQmlD/AcjPkZlQ9aUXpu6oZaY5+ndBa80gDQnmoUExj9El8ETWhMywqMIweEBr1YtfCQRmh0TMMbAAPKkUqSjDD60PVK0ZbUFDO3ZsMDQg19gTeE+3cR4oNlprQnWfSeuLiEaGtIaj7l6CwXLVCaNzLJbjPHcK48bu1X1GUICiBPCaUD/fegc6HEDenqgk1DrDUE5x/qSSU27K6hktfYIzPKqFcfpky4ySsAeNvtSd8iDoe6kW6BoRyv4llIsp972RMDwidoYKu8lObxvkq1ZRqhPqeiXPtMp2nJ+Vm0zKzBHj2yDyAUPcRC8vIsPeNSb8TLhWtlZGbEBot66NxQsOYBCxdOvqAUKfHw7Rkqk42xEuO5PYMch25jPkVEWpskIk/40+t2TBpzObOaRLfO2NKUxt92p6yx6fqUpu40QFXNd9jtITd4bWSUjNCjYsHGN0vFgHOk2kPCDUmQwbQdrToXhGFaUTL1QWw+64HsvRddv2cUGfPY1ayX2wChiFK9ENATcovtIfedpyohNAjaHixrNOZwgfRo6QVx/tyq2wgzJF0ahHwvkO2dUJXFC1K/zHjcRTrUEaQnU5fB5L8qdYM5YTiTuovTYIjI4xSxrxDNvn7Htd5jMbZzyu7NzoMPJa91o1HYXwWgqm+nx4QhKzT8Q5+eKRxgnlAEMNR8hoNH3VoipvFAFu2vgTJXiX1ZrGFu9rXCd24bsUSOrNgaG8P+3vuYrXqZe7+yHWz/x+7bm5C2t311h72ugW/73I27XOyk9zIveUXs3r3pwg/b/xO6/48fyzndLXNbdy403e76eOshrY9DB7XaCXtjADaX4I4a/9n7YzOdPplXd6aVpS2M5k8vgg/q3JQa1IzPfxKTdKZ0oZb8CWIr9G0Ev2/gqJB9I/xji3hshIGQV8BForoey5aMNYif4d0rS9BWKl7z2U14oVfXww/hV1877rwS0jGTxD6fv3gKWYCEf0BQt928axwefcPEPq+y7tFzv2fE/rOGxAIqsl/Tug7b5ERpQWrhH5tvtYJfe9NXIxLNZnJFrv2F7CsqmEA39YixXBu1UlP8FdAqwL69fzf/wyyrdq+ibffqk2xKjnpRBJD1mqrNxPkGEsSo+dNV4qRuBsS2Hq7S0OyIasJVevpJsJTwPdbJf5XkGwZrFrxKdzwstRH89ZoCTe1JorpuxCcoDe1vkPIaEceMzmC8gl44xC+DieoK0VRGT3FTHC03sa+BEdQDpa2SoT1mj6E2h5VcKn/uIpEKTq9ej+5/nGVOuo//wOoiNHWqnYc2r93AC/BZFUTUq++lUV7W+WTMG2OJJjhKll0OCiZpnDEKkESQDc93aUI+9Uf+QPIXCyTppaWP1ihKuOdrRZPJayrV6WUYXO9CgJ3yHDtK7T5i9sI/E8w79V+KBXEGwRVFSzogK7+odQmsJr+lK/OLTVFOD4/+LFpc2/p1OdX4LTHPSz8OXSCkdkf6Ln+DUytz9UBYIw7NErTU/6Jbdej0+OlpBpSOJP2fPax2HS7m/FpYPk6JNLQ0NDQ0NDQ0NDQ0NDQ0NDQ0NDQ0NDQ0NDQ0NDQ0NB4Dv4Dcobn4xjyCKwAAAAASUVORK5CYII=;imageBorder=default;" parent="1" vertex="1">
          <mxGeometry x="620" y="458" width="201.6" height="90" as="geometry" />
        </mxCell>
        <mxCell id="LdKZ-aVJx-CH3_bbswVv-21" style="edgeStyle=orthogonalEdgeStyle;rounded=0;orthogonalLoop=1;jettySize=auto;html=1;entryX=0;entryY=0.5;entryDx=0;entryDy=0;" parent="1" source="LdKZ-aVJx-CH3_bbswVv-8" target="LdKZ-aVJx-CH3_bbswVv-20" edge="1">
          <mxGeometry relative="1" as="geometry" />
        </mxCell>
        <mxCell id="LdKZ-aVJx-CH3_bbswVv-8" value="" style="shape=image;verticalLabelPosition=bottom;verticalAlign=top;imageAspect=0;image=https://encrypted-tbn0.gstatic.com/images?q=tbn:ANd9GcQPt7x82BS9TOfNYxmdsp4VUYFDty6Rd-9w2w&amp;usqp=CAU" parent="1" vertex="1">
          <mxGeometry x="295.5" y="660" width="168" height="95.28" as="geometry" />
        </mxCell>
        <mxCell id="LdKZ-aVJx-CH3_bbswVv-9" value="" style="rounded=1;whiteSpace=wrap;html=1;labelBackgroundColor=none;strokeColor=#b46504;fillColor=#fad7ac;" parent="1" vertex="1">
          <mxGeometry x="205.27" y="435" width="155.73" height="135" as="geometry" />
        </mxCell>
        <mxCell id="LdKZ-aVJx-CH3_bbswVv-2" value="" style="shape=image;verticalLabelPosition=bottom;labelBackgroundColor=default;verticalAlign=top;aspect=fixed;imageAspect=0;image=data:image/png,iVBORw0KGgoAAAANSUhEUgAAAagAAACKCAIAAABww0keAAAAAXNSR0IArs4c6QAAAARnQU1BAACxjwv8YQUAAAAJcEhZcwAADsMAAA7DAcdvqGQAAAASdEVYdFNvZnR3YXJlAEdyZWVuc2hvdF5VCAUAADpASURBVHhe7Z0HWxW71/bfb/ScYkelNwGlKaCCIFUFRcSKBbFi72LF3hVBERQEOyIgXUSalWKjd/W8t0wcZ2cms4cif3Tnd63rHNxZmZJJ7qzMZDL/7z8Oh8MxMLjwcTgcg4MLH4fDMTi48HE4HIODCx+HwzE4uPBxOByDgwsfh8MxOLjwcTgcg4MLH4fDMTi48HE4HIODCx9ngGlqav7w8ZNgHz996urqJgmcoUdDY6NwpRobm759+0Z+NQC48HH0097eASP/UOXr168Ll678vxHjBBs+1iz7aR5J4wwx2tvbbSa5Cldq1ZoN3d0G1EVx4eOo0dHRGX/thutU74zHT8hPqnDh+41ISEwSL9PN1DTyq2HAhY+jTFl5xdade6wcXIS2cf9hBklQhQvf7wJC+Bl+s4TLZO3g8rm+niQYBlz4OMps37VP1C8YF74/jNz8AmNLO+Ey7TtwhPxqMHDh4yizZcceUb9gXPj+MA4ePf7XyPG4RqNNrJqamsmvBgMXPo4yXPj+bNw8fYVrtCJqPfnJkODCx1GGC98fTF5B4Y8LZH73/kPyqyHBhY+jDBe+P5UvX77ODAwWLpCzu1dt3XuSYEhw4eMow4XvT6X42fO/RxkLF2jTtl0GNW9ZhAsfRxkufH8kX79+2xNzSLg6/44xLauoJAkGBhc+jjJc+P5I6hsaxel7IQsWG2a4BxSEr7W1raGhUbDm5maqaDo7O99V1xw7eTYweL6lndOwMaajxltOdJ26eHlkStqdpqbmL1++EFd9dHd3izuCyXf08tXr3fsPefoEGlvZHzxynCTIQGNrbW3NKyzatmsfLqqJlT26spHjLSY4Tgmev/jM+cvVNTUdHR29usZwVjm2rq6uqqpXu/YdmOrtP9bcdpiRKfa1fPW6x0+y29rbiZMMbKStrT2/oHD9pq2OU6aPMrYaZmRm5+S2bGXUg4zHOAXi13tQ5k1NTdCmNRs2u02fOdbM9p/RJqOMLR1cPBYsXn45LqGmtg7lSbwZtLX9vO6wddFbRf2C3bx1W5oKw7VGyZPMP9ArfJ2dXdXVNbEnzvjNmmtqMxHHiaOd5h2AMKSy6qXeg1QBxYurjI2fPHN+TuhCm4muI8ZZ/DvGxMTawXNmEHT8aX5BS2ur/JhZ4CpLz7edfWUVkeZtbGwiv6rS0dH59l31+UtxoQuXTXT1GGdui5psbjvJdap35NroW7fTUeZd/XuxrOhZCWodLg1Gu5lZOeRXw4MWPlSLJctXixV3ynSfuvcfSNp//6XduTd3weKR4y1FB8os7Z2jt+6sevmKZFDlSVaONK+4I9TgR48z5y5YMnysuZD018jx+w8eFVIpyisqIUDObp7iduQ2cpzFrJAFVxMStbcrKJR0C3XvyQ1gHFtefuGiZatGG1tJHQRDNfUNCrlz70G3TP2x67iExOkzA9HUqVww1EJoaPz1G2i6JIM2cL0Kioo3bN5uO2myMC1L0YzMbOaFL72VmqbyPmbk2o1ULnVznDLtzdt3JPMP1IXvUWZW+JIVikUHQw+KBp+dk6tdm0Ta2zuuXL2GzlisM4o2afK0HXtiql6+JNlUSb6VKi3SnXtiSIIGoO9iRth4CzuSwACqeu1G8ux54air0oyUmVg5rFi9LqcfQfSyVWuETbl7+n769Jn8anjoET5UlNdv3uJ39H7oc9SvimCoK8aW9mj8wgZVoIQPfRF+hLJciosfbaLTNljCl3QzFXGdSoOXGjq6ad7+6FFJZlUo4RP7xpzcPAs7J2mS3BADohIL/gIoPUTEQk+rYiPGmR84fAwlQLJp4Pylqyhtajssw/bDl65kRS6/VPjw+56YwwhCxSSWoW0/ePRY2JpGUEWnzvDXW7yCobZY2jmn39VfPwdN+JqbW8KXrtB4/DC0DhRmH0I/xBYIgYWNbN6+qw8dzB+DHuHDeKGsohJNZc3GLRr1RbBxFhOgSmSjDCjhS797Hz8iKMDYRPo7TC58GI8fOXZKvXtXtMnTfASFVYcSPow+8CMymtlOkv7OMgzfcHbCpjAIXbaSdLN6bbiRmd5yE8BQc9P2XVR2LRY0d4HiDIZfJ3wdnZ0798Zorz9jTKy13xksLnmOkSC1Bb1mZGZ7IzlF/bbM4AhffX0DBjdSZ4wJ7JzcfAKDQ+YvQgiMYbunbxDEWnowKNj9h472qo+EMxqRuIX+hI1/AHqEDxqE1n763EWpxKDxI2BGIZ46eyHmUOzyyLWKcmBqM1FdYijhu3A57v2HD1b25K14GHon74Dg6G07T5w+X1T8jGTruTm47+AR+ZgRahu2eDkqxNkLl0+ePr9p265pPgHik3vRMCosfvacbIsBJXzRW3d8+PgJA1Xhn9im3+x5aMynzlw4eOQ4Rr7YtegsGPqMd9U12NSZ85dQTYUfoWuoynsPHEGRxhyOnb9oGVqgmEUwBIylZeXCYaiwffd+eYxgZjNp6cooXJRT5y4ePHo8cl00mhDlg4NfsGSFvLf/dcKXkJg06sfwFq13uk/g5u27j586C9u6c6+Hl5/8Uk7zCazTML+sqLjEeiJZWEm0f8eYTvcJwC6OnTx78sz5nXsPYAg52sSachs53iI55TbZkBKDIHxQ3g2btks9EfBevBJf9fJVU1Mz6jnUqrOr63N9femL8t37ydNYwRC5pqbdIRvSwOfP9YiLhbxTpvkY+DqJeoQPQXVCYjKaK/7+a8Q4ZzfPxKRb8jaDKxR//Ya8jVnaOancR6CEb/e+g9Fbdwp/jzOfsHbjFuntRSkYCknvM6J2YriH+t3Q0Eg8JDwrKfWbNZfSCEgYhIx4KEEJX2BI2IXLV9GioMV+s+a9eUc3+Oqa2pCwxXAQs+CoDhw5hio71vy7JmKYCWVpa2sjGX6AYVpQSBjV8nHuKsEIGkPK7XSpoGNfKPyLl68q3sK7e/8hKrroLFjsiTNfdeOFDx8+VlS9FG1F1DqpP1qjNBX2+u1b+WiLEj4U+7XEZERw+Pvf0SY404pK+v4aTufR4ydObp7SM/pnlPGVq9eIB4NPnz/7BMwRs8BQK+bMW1iuNEUDZxe1fhMican/lOk+tXV1xEPGIAjf8xdl4vo3MEt75+elL0iaEkm3UkdIQhBLeyftr9k+zswyMrNBLpzUHQ0j/T8bPcKHumgx4fstrWFjTNdv2lZTW0v8ZKD6Vla9DAyeL+YVsiPukAulACV807wDJjhOwR8IAbLYd7jR3qwldQUGOc5+mkuSlYCKHT1+ysj0+1UXDAp18OgxkqwEJXxoMIgT8ceaDZsbGhqIky7CbdC/Rv1sKi4eXlBD/DHMyBTRcUeH8qMVqOHKqPXSNqY+n/5FeQUakugMm78oQv2BUk1t3Yqo9dIsuKyKAiEyINNZcFIWExzxx2hjq9iTZ1pamE+uER3PDAwRM8IgaiSNQeyJ09KeBsOOy1evqY9e0+7cg7iIWXB4MYeUH5qBQRC+uITrUrnfsSdG/fjByjUbRH+Mw4QbRFrAAEjI5eg2Xe9e/nj0CJ9guPwotS9f9N8KRXZxlpBgk6d6NzQqBGKAEj7BjK3sn5Uwx6GQ11WSCw/DtZcPuOTgSmPsI82InrOeIWGAEj7B/GfPo6IkiorKKulQXbQtO3bjyImTEuUVVbaTvou+YCjwvPxCkqYLSnjjlh2iJyxgTiirk5DS3t4hVRbsAkEfSVNiQIRPMLTtQ0dPqJcAyMzKkaoADHpN0mQ0NjZBvaXOF69c1XLHC4GkNBfqTwtjItEgCB81Z0hLId9MTRODPhweCpYkqIL6Ly5ChaEV+dWA0SR8HjP833/4SDz0gWELBqpiXlTlhxmZJE0XufDhQqL6kmQloCxCVCgYqn5c/HWSpo+Pnz5PnDxVzAtbu3EzqzXKhc/UeqLeO4MoPQRfVEbria5l5RXEgwGGqAuWrJDmOnbyLEnTBRdiouvPszC3dSyU3P1UJzXtjlQsfIPmqijmAArfVG9/9RsLAmicHl5kyRDBLl1NIGkytukuF7hqzUaVc5GCKz573gJp3rMXLpM0XQZB+OYvXCZ1e5L9lCSwweWePM3HZuJkwQ4cOablxM9dvCLsYqy5rSFP3xPRJHzqA0kKjPgQg0izhy9dSdJ0kQufl98sxbtUIlevJUqDAoyGVKI2OY+fZIt5YTYTXWsZMYVc+EIXLtPy3Ym4hERZxqUoE5LM5vylOGmuBYuXkwRdbqffk5bAitXrtQ9bENrY9AzYBYMI4jRJmowBFL7b6XdJsj4uXYmXZly8PJIk6PL5c73jlOmiG0bT1TXMmzBycnLzpTdVZ81doKgdgyB888KXSt3ir98gCWw6u7pwsm/fVQumpf63tbfbO7sLu5g8zVvlohsO+oVvhv9skqaZW6np0i2MNrFWbPmU8KGSXdZ3P5tqVOjuSII2Ojo6MPQWs482sbr34BFJ00UufOcYcQFFaVk5lVGYCqOXvPwCaa4ZfsrFvjgiUurW2957ZZTOjQKVL2kMlPA5uLjrHeSKvHlbLc3rzbjNl5ObN/7HwA2GToJ1/1SRurr30gdxrh4zFB/BDYLwIVCVuqFzbW4e+DVBvz8M/BHpn7uoqRr/8egXPpV3xVi0tLQOM/p51xn2QmmsRwmfMHWGpDEw1503k19QRBK08eXr17Ubt4jZUa1PnD5H0nSRC5/GfSEYoTIWFBaTNFXevH0nzYWIhiRI+Prtm4nVz0mORqY2Hb18x0v8voxgh2KZd4gGSvjWRm8haRrABZLGsxjUkwRd4q8niSEbLmLMoVjt2gqampp8Z80V92I7aUpllcK7HIMgfBhlS91GjDVfFLHq2fPSXp2OOhgQbNq2SzgRNJ/m5haSYNjoF76U3swVEnHXvVmjOOGIEj7EYqyBp0BNTa3UH9dS4zcPpZw6e0HatNZFb1WsZHLha9LWFSO2pTK2tGiqap/rdRTTysGFJEh4V10j9XGd5k0SNPMkW6fMEQCSBBkDJXwJiTovsehF+kKbme0k8qsu+yQTcaGAl+KYtwIVaWtrk44xzWwmKd4nHQThKyx6hr1LPWE4I79Zc6GJFZVVra1t6NsgXn2WQiideFtg26595FeDR4/w4RpkZGaRtN6AjkvcCOzcxSskQQIlfDODQljP1wQyHmdJ/Z3cPElCb7iZchs9n7iRsEUROGWSJoESPpSDopscxCxURo1VtqGxUZrRyt6ZJEjIyc2X+tg5uR85drJXtmGzznTZBUtWkE3LGCjh6+37Z2NMf840Zglf1IbNog+6sUURkdRpqtuBw8dcp84Qt4AgOlfpGfogCF9nZ+eGLTpXRGrY+/cVFnyDIiLXxhyOvZ50s6i4pFlbPyqSdue+cBbjzCfkFShPFTBA9AjfMCOzzKxsktYbqOf0h4+dJAkSKOGbE7pQXVwSrusM0wLmhJKE3nDvwSPpG6P+s0MVHw5QwsequHIo4cPogiToQ4vwoRJLffpvrEcoYECEb9gY0+ycXjwZA1qEj+pW+2kmVva5+QVk0xIGQfhAe3u7fCaAog03Mhtrbovh/8Ejx1VmRFJMmU7mrvsEBmtcJMYQ+FXCR802iDkUSxIkUMKHBkMSGJzTfe7JelisTmZWjvAigWDe/nO0CJ+J9USSoA9K+Iyt7EmCPrQIX/Kt21Kf/tvyyHVk0zIGRPjERQq0o0X45i/SmQXSTzOzmVhQpHAfdnCED2DovWvfQZuJrtLdqdsEJzdUBvVAATyVDBEOs+/nGiC/SvikgxGYlohv2co1JIEBNdcBESJJ6A0PHmWI743CfINCfiPhS7mt87i8/6bSmIey8FFzHvtp1g4uL5Reju6P8LW2tokZYXpHDKiE5RWVZy9cRlwmvtmtbkZmtgeOqK3lg2shPsr7d4ypymxwA0S/8D1+0hfho6qm4hxRWvhW6RG+5BSdeMfdy5ck9AZoh3QS7+zQ8N9I+B5mZEp9FkasIgm/gKEsfBGRa0Wf4b/sO2H9ET7qMZT2WyUAoonS3rn3gE/AHIjyeEu7keMtFINB1GTW2wGgprZWXLdmBTu0N0z0CB+KW8vKenJcPLzEjcC0PNXVK3xFz0qk/kamNuqznRU5fynuH8nk1eWr1+GUSZqEoSl8ZRWVUp/AkDCS8AsYysInvZGCvll9kZU+0x/hox5D9Ur4RBDNNTQ0PCt5npJ2J/bkGQQT8mBw6cqoTsb0+PS794VFlUaOtyx9oX+9H4NCj/DBLsbFkzTNoMuiOijFcu+t8HV2dv6j+y6n4vQrFXB21Bu7ew8c0TKdZYgIX2dnl3QujoOLB0n4BQxl4Tt74YpYwf4ZbXxWac5A/4GeSqvxlp17SIIGDh09LmaE9U34KDA0eVddTa2BZOXg0sh4F158H85/dqjKFxEME/3Ch3pM0jRzPemmdAujTawVV1TvrfABDy8/aRa9b3pQQDp9fnxRFIZg4dqNmyRNl6EpfGCG32zR5y/V1/j7yVAWvnsPHknX6F6/aZvi/Yp+gohJKnyr10WTBH1gIOKlu1THgAifAM5dus4QjrBCqft//eYtqjcc0FPGnjjd52mAfyr6hW+MifXH3qzN39XVJZ0WDwtduIyk6dIH4du194A0S9jiiF51ZaUvyoTaIJiJlcPz0jKSpsuQFb6TZ85L3TACIgnawOElXE+Kv35DsBvJKSRBxlAWPrRq6fqj7l6+vX0hoaCwWCyEhMSk6prvS8ZSZGblSIUvMHg+SdBH8bPnUm2CKQpf3fsPKFXRWMudUbS0tEpXqYA9UnrvUJywibBD8dGNgaNf+GAro9Zrec1e4PGTbOl7lOhwWEuG9UH4nmTnSBsGlEtxIoIi7e3tAXN0lgv09p/Duks4ZIUPbV66+I3rVO9Pn3vRLSXdShXzwlTm8W3duVfqeUfbA4TBET7sZW7PQoeCQZ5up98jaRpoam6WrqOBa6Q4j6+0rFx6Y8HUeqKWT0Hh2Hbujflb91aPovClpt+V+mh/xcXjx0LKgqXL7sJDUsVFjHCmPNyTo0n4RhtbJSbf0lJ8yD57Xrg0r5Ob5+f6epKsSx+ED+pALbqLMYWWd8JwYFSshNbykP2K/pAVPkS40vmuUJaDR7W+TF1X997Z/edDJ5RAxhPmaznS7zPA4q/pXzgEoJwHQfjA07wCqSqhuLSs1y9w63a6dBL75GnKnUd7ewf10atLV/Tf7y4qLpF/NEZR+DBElfqELWJ2QlI6OjrRpqQZn7+gRy03U24LqxLgEufmKWg6R7/wCc8TxllMyC8oRCrxUwJRYcSPj9cJhnJH78fK1QfhA7dS07FZaUYIQWsrvaS7FEg29oXKJ801d8ESkqzEkBU+kHbnvvTBNNr/9Rs31S8NQLRCLc0yzScAR0uSZZw+e0HqvHHzDpKgyqAJH6De35jmHaCyQrgAakJ+YZF03WbYEaVJpgLSuBJmZGar8pU+bPz1mzfCR1T+1f2WAOsen7nt9+WpRVO8W0dRUvoCxSJmMbOZKP/iworVZLXtqd7+5CeOLnqEb9gY0z0xh4X7Yvjvrn0HFB+kov2gPqHGU5KE1vv69RviJKNvwocjjNqwWbojqEBo+NIn2U8VP5v77l31oaPHpcNDmJWDi/qqokNZ+DA8X70uWuqMEli/aduzklJF+Wtra7t7/yEicWmhjRhncVU1iEN5is6w0SbW6Xcf6H2GMJjCV1ZeQT3idPOcmXA9SXGE0aNKbxEdY8Sqm8VXZfmJomclaAKiMwowMHh+QVGxfPTT3NKCXU+aPA1uI8dbIuaSfvaTJXzbdu2TXpSQsMUfPqqt+NvV1R25Nloa6i5ctoqq9jgdIeSE2+lzF8ivHF30Cd/3CcxZ4mr9KErUm6C5YecvxWVm5TwvLXual3/63EXfoJBxFnaU6qFfzcnNJ9tVom/CB+rrG/xnz5PmhRmZ2Xj6Bh09fiojM6v0RTmqLIbnEavWWkxwksZHgl2+ek1RI0SGsvCB9o6OWXN1lhHGpUFL8w6Yc/zU2fsPMyCChcXPUtPubNu513HydPk3vJeuXKPYT4i0t7dTA72x5hOi1m9C8eK65+Tm3biZIo81BlP4sK9ricmis2DDjcwmOLqtWrMRVx8HiZqQlZ177uIVBPgIr6iaYGnnhACKbE4JCBz1GRlUcqjYvPCl2HVufiGyP3j0eMeemImuU8WJ8QuXrUTZSmcgsISv9EWZjeQpDS6ik7sn2pRcWAGCzYDg+dJwdcQ483v36QUlDx87KaRa2jmXPFc7O0NGv/BlZmWjfs8M0vkQjF4bZWx56qye3qbPwgcQeLp7+VJSq8UQ+h3T8CR0iAsfQAlA6KVZNNrwseaLIyIhnWRDbBDsq5Rwrz4orh3twieAfpe6iaHRsPEbyQqfDKR4/CRb/FqFFkPQJ8xaDVu8XPyRJXzgUlwC9Qi456uqc/YdPJKYdAu6dis1/cTp84jsKLeR4yx27j1ASWRzc4tYGojx1fs2Q0aT8OF3NDPxq7J6DaH+xSvxrC/2i/RH+EDd+w+RazdS92vUDXXiRnJKd7f+OV9DX/gARvErVq+Xx7MqhgsaczhW4zcJa+vee8zQmTgptSEifNjjzZQ0agCrblBzL99ZiIgVAyuK7u7ui9+/LKqpkLHZisoqIaN0qryK8OH4EZhL4z4tNtbMFoGFvCZLX+v8RS+0/BloFT6AWhK9dScuoUoUgNgbTUX926Ai/RQ+gKO9nnRzguMU6RJ7csMBo6LMXxSh+OFdRX4L4QOo+hi2m09whMRIs1OGEhhjauMTGFz18jXJqY3ComKMBxW1dYgIn0BjY+OCJctxlVUqJ2yYkamptcOufQdxfUlObdxOv2ft4EpNUhENOzUys4mIXFtf/3MunvTpkIrwCVRX1/jOmovj/1vyeVJFG21ijSaGMTLJKaGrqwuNSHCzsHP6FZO6/xh6IXwARYl+8tDR4yHzF9k7u+Ma/D3KeLiRmbmto+fMwPWbtt1MTdO+5ld1da10eci+vRQMIGfo8zdu2YGqYzNpMkbZOCpEghjVOrl5Qu8Ox57IzS/QPhURoJ+XHhvGUyRBH1+/fZNm1DveF+no6JBmZH36S5HPn+vRAazduGWG/2woJroBlACGQoiDXDxmhC9ZceDIMQiQluGtnJrautgTp2fNW2Bl7zJyvAW2PNrYChHKspVrPsq+nYbeMe3OPfEsYk+e6e27JSdOnxOznzl/ifyqga6u7vyCIuTCFcd1H2cxAXoNg5pYO7jMDApZs3FL3LXEXn2WSATnhUHP0eOn5oQuRB0TShg1DZ1uYEgYhqV5+YVU/FheUSmeyKkz+qsBshcUFcN58fJIN09fiL7QviBiJlb2jlOmhy5cCsnOyMxiLTyO3xOuJwl7ZH1MhiPQO+ETwBWCiKDPbGlpbW5uacb/WtvQbrV8ePfXgSPv7Oxsa2sTjwqHheE2DpWqkX8q6JY6Ojpbv5dAC0qgpwB6SqC7u58lgOydnV2SLePPts4hWbBC5cRZ4+RxpEI1wOEKC7gTp77yvRy+1/yfJfy9HDo7B7AcsCl0uuiicNBCTRbOwKBq8iDQF+HjcDic3xoufBwOx+DgwsfhcAwOLnwcDsfg4MLH4XAMDi58HA7H4ODCx+FwDA658H07HHsiYE6oYLPnhau/xc3hcDi/HbTwcTgczh8PFz4Oh2NwcOHjcDgGBxc+DodjcHDh43A4BgcXPg6HY3Bw4eNwOAYHFz4Oh2NwcOHjcDgGBxc+DodjcHDh43A4BgcXPg6HY3Bw4eNwOAYHFz4Oh2NwcOHjcDgGBxc+DodjcHDh08OpMxfE9ailZmRq8+HjR+LE4Qw9uru/dHd3k39wdOHCpwcufJzfjta2ths3U5aujHpeWkZ+4ujChU8PXPg4vwtt7e2v37w5cvyUtYMLqqixpX1uXgFJ4+jChU8PXPg4Q5/auvfnL8WFLlxmajNRrKJc+FTgwqcHLnycIc7VhMQRY83/GjmeqqJc+FTgwqcHLnycIc7OPTFU5RSMC58KXPj0wIWPM8ThwtcHuPDpgQsfZ4jDha8PcOHTAxc+zhCHC18f4MKnBy58nCEOF74+wIVPD1z4OEMcLnx9oO/C9/Xr1wcPH2/YvH2G32wHFw87J3dv/zn455Psp1++fCFOfeLbt2+lL8qPnjgdvnSlu6evnZObnbP71Bn+iyJWHT99rqrqFfHrB09z87fs2OMTGIwjn+ji4e0/e/3m7XfvP+zs7CIePxgo4WtqakpMuhW1bhN2OmnyNNtJk53dPQOD52/ativtzr3Wtjbi97+gs7Pz/sOMrTv2BAWHObt72Ux0xRH6BARHrt0Yf/1GQ2Mj8ftNaGpqvhJ/benKKHev75UHZxQStvjosVNv3r4jHn2lq6vr3sOMLdt3B4WEuXh44SI6TpmOglobvTXpZmpDw68qqOqa2tiTZ+aFL5081Tv2xGny6w9+kfB1dHSk3E7fsGmb36y5jm7TUSucpkz3mzVv/aZtybduN7e0EL8BJa+gcOvOvShSXDs0GfLrL0BH+NDsqbITbE7oQuLRw4ePn06cPmdp50y5CfbXyPFu02feuJnS0tJKMmgDcllRWYXr6uTmSW2TsinTZ546e+Hlq9eQSJJZG41NTZfjEtASqA2KZu/sfu7C5fcfPpAM/Ra+xsYm6FroomXDjMyoLUgNW4uIXJuRmfWL6pMibW3t6ADWbNwyzmICdTxSwwUNmrsg+VYqrjvJqQu6uhHjLKhcgqEvrK9vIH5KdHV3z5q7gMolmK3jFDEvWhqVCjMys818ki04APTEZeUV23buHW9hR3mKNnvewnsPHkHoSR5ttLe3Y0eRa6ONzGyoDUpt5DiL+YsisP36BrVTFkBtN7X+OdlYNI8ZfsSjx6egqHjx8sjhY81Fh+2791+9lij+s7cWMCeUbJ1Bc3PLw4xMdBvSncoNV3zBkuU4Wb1y39HRSeUVbN/Bo8Sjp+u9nnQTfYmYOsrYSksx9hlNwoduE41E8HleWjbdJ/DfMaaUD2WoBFHrN2sXpi9fvx44cmyC4xRqOyz7e5QxgrWTZ853aK7EL8oqvAPmDB+rJkCwv0eO9w0KefX6jZCrz8KHM8/JzZsZGDJyvCWVl2Wjja1CFy6rqa0jm/iV1L3/sHRFFLSDOgaW4Yp7+c2CNJP8EqA4B48cp/wFQ2lfTUgkfkpcuBKPS0nlgo0YZ34l/jpxYggfrlT89STi8d9/CYlJWuoPLtyKqPWfPteTbPqoqHqJizLWXGtBQS8gLsXPSkh+BizhQwfZ2vo9YkCpXopLkL6JIdgvFb7SsvLg+YtGm1hRuViGo0W/hfEZya8ES/gwnhOGhhhSIDIYOV6n7xwSwofSr3r5fYBZXlGpXZtgURs2a1kfAo0Qgz4qrxZDMBK1fpOWKKmy6qVKoCc3c1vHV2/eImPfhA9nnX73/jhztUiKZRDK7Kd5qPdkWwMNtlz0rIQVsKsbhOxGcgpGfGRbEmb4z6acBbO0d25ubiZOuryrrjGxcqD8BUOH0STJpSh8MMR3SEX7geopCqiiodosiohs7+gQNs4CBVVc8hxDPCq7FvtnlPG1xGSVys8SPljO0zw4II5GR0glwX6R8OF4snKemlgrXw51Q3O59zBDUDE5LOGb4Tfrc309BtSr1mykkmBDQvjGmFo/evwEJ4beQP5mjIohTEi5fYdsncHnz/VQvV5tlrL5i5bV1b0nm1Pi48dPXr5BVC695jd73sdPn/ogfBi+nTl/SW9oqWIY5aEWks0NNJlZObaTJlN71G7DjcxwdvJajlEPKyxC59Qt84es7N5/SFGtxphYFxY9I349sIQvKCQMqdi19iBFMNS3lWs2qAwXcHg3U9K0B3pyG2cx4eyFy2RzMlSE79jJs69fv7W0c6J+F+xXCB9ONjH5lvpAXt2gmKyWzhI+jCNfvnqNXIrXbkgI379jTC5fvXbu4pU+yJPvrLkt7IgMscPUGf5Ult4ajmrNhs1kizJQw8IWL6eyaDFs9sKVq30QvswnOWi6lH9vDaFQfb3W4Zh26usbLCY4UvvqrY02sS59Qa93hMaDsTPlKRgkIPtpLvH7AY6EFe6dPHOeOP2AJXxmtpMQMvR5uHDx8lWyAxkYIiDqp7L01v4ZbXI7/R7Zoi4qwrdgyfLorTupH0X7FcIHARpvybwxqtEwvvmo1CJYwoeRTW5eAasPHhLCB/ObNVf7/SCpDR9rXlSsfL8Dqrd7/0HKv2+GwOFSXLziLUXEqn0bcsIcXDxWrF5P/SgYS/hqauscnN0pZ9GsHVwRpCxZsXrZqjUhYYsdp0zHmIjyES186cq2dnJrdUBobGzyC5pL7UU0Y0v7mUEhiyJWRUSunb8owt3LV+VO7qTJ0+RPLT59rp84eSrlKdji5ZHSq4MxYPiSFZSPYBgyYwRE/H7AEj7Yhs3b9d5xZpnHDD8E9WQfEj7XN/S/PxYMgZu8kwAqwocwU35rT7QBF74PHz85uzMfJ6KbRBZcvohVa+eFL3Gd6g01p3xEm+E3u7mZjnJYwgdz8/SlfhFtqAif1Gwmum7buTchMelmatrpcxf954Sq17yVURvIDnQpr6hUjz4cXKfuO3gEu0lITN68fbe57STKQWrossrKK8imJSxfvY7ypGysme3qddHQzdS0O5fiElat2SCtdqzLrCh836OelcpRD7azLnorulbUDFR6eLa1tVVX1xw9cZr1+Gw8AqUcOlDqDwjbWVfKJyC4oLC4oaERkgSFQmV9/+Fj2t37KoPiI8dOku1KuHP/Aaos5QnDOT6WPBjBAId1Sy417a68A1MRPqlNcHRDPYm/dgOX8vTZC/PCl6o/TMdFSUy6RfbxA+x92659lCdlQXPDUPNT0u6cvxS3YPFy6sa81IThiLxHVhE+uY02tpobtuRQ7ImrCYll5ZUDKHxfv33bsWc/5SPawmUrX5RVNDU1d3+vsd/a29tr696jjbCem6O00VrJpn+gInxys3ZwQXGdOncR2qJ4K3mg6J3wQSOgRNRsALRh1EvWsAWG8T98iLeEtRu3UJ6ioX2i8kEaiGsPKEEUyohxyjKBGoYs1I5aW1vHmDLvXOA6Ra6LlkdVHz58XL1uk/ptI0XhKyx+ZqbUV/81avz6TdtYt7qhRyMY2re15+b9gIAhoU9gMLV9GMotKHg+UomfLlk5uThTKotgnr5BiIyI3w9wyRYtW0V5CmY+wVHowxsaGxWPBIa8imG7XuFDlBRzOLa1lZ4Oib7QdxYzyIV5zPCn6kzVy1f2TsyY3d7ZHWMI4vqDwqJnU6bPpDxFGzXesraWvgetRfhwadDxHDhyjAqj0BA+SYjeojwuHmdhd/f+Q+L0A2py3Ju37xwnT6MywrBrhOSdDOm5dTudpfUYzVCCpUX4sDtv/zkPHj1WvPq/gt4J37mLV1gynH73vuJDKMFe9zwhlYKuY4yp8o0wlAKiCcVCb2ltxdCG8hfNxcOLmm2LDpnykdrOvQfkTUUAHRy6dBXtUxQ+HLZiIIN4SuUZIi42a0CNESVx6jeFRcWK4Q+ipMqql8RJieOnzlFZBMPQuLjkOXGSgECedZsc2oTQIeF6kqLQu7h7sSb9qQsfJPXOvQesNlP3/gPGaFQW0XC9XugOFC5fTfh3jHKYP8bE+kn2U8UdoYa7ezEHbhgnEr8f6BU+tILA4PkVlVUkA5v+TGDGsO1fpTGNm+dMldssKAF0yVQWwTAcRIRI/HrQK3yolginfunAVk4vhG/ugiXETwlIUhBjJirs7r2HxO8HJ86cp3xE85s1D9WC+MlAvG3GHvMWFBYRvx48ZzIf5k6bGUicGHR1dy9g3IeCKQofK7hITKbHUxT3H2YMM1IehCreSewDq9ZGU1sWDGNznClxUgIBEetZTXIKPa4RuJGcgnZLOcMQSUEWFS8fan8ce8afivBBuY4eP6UeKTQ2NqnMSoGyE78eUM8pB9FiDv2ccysnMyuHNZEb1qjbJesVPgyhNM7o7I/whS5cRuUS7NDR48SDATpL1sm+KNeZ1qcufKgnO3bvJ66DiFbhQzQnzulVBDVv596Yv2QZBaPupKAtBcwJpXwEQ/u/cvUa8WNwJf46lUu0Tdt2Eaf//mtqbmYNIYePNUtNv0v82BQVl/zNeJAtFz6MFhVvb2EUVlBYTJwYFD8rYd3B1HKceoG0sV7POBx7gjixYd3p373/EPHQBRUpNHzpXyNpfxjr9hCiG5VXlFSEz2KCY917tclMAPUNrUtRi2ELliwnfj0P3FjhqpW9M9ow8VMCo42ZQSFULtEw6iR+PagL3/Cx5g8zMomrPvosfJ2dnYr3MRBD30pNJ04M6ureO7h4UBkFuxSXQJx6UBc+jGneVdcQ10FEq/B5+c1SmY0pcDkugXXH+vzFK8Sph4+fPk1yVX78Z2rtUFZRSfwYVNfUKt5Kgzm5eRKn//57/qKMNWZBcctH33Kg5o5TplN5BZMLX87TXMpHMJSJpZ3z9zeO2WZp78x6inLk2Cmyg35QWVlFbVY0NA/qYOTG6j/kIziRp7n5rFsZckMJqb9IqyJ8q9dtIk6q3HvwiHVbappPAIYRgltBUTGVKtrajVsEHxY9ff8BKpdoh3Q7GHXhmxO6UD2GldJn4SsqfkZlEQw9BKJyqg5Qhgh6GONB2bZd+8gOelAXPkTrxG9w0Sp8q9ZspO4By0HtZLXeE6d1RhOQNvSflI9gds5ueudwoGtFZaUyCvbPKGPxLuSjx09Yx4OeGWNzwU2dNRs2U3kFkwvfqbPKM/76aTv2xJAd9IN7DzKozQ6IzV8UQXagxI49zCBLamg/x3WrhxwV4bujG0mxePXqDWtWk4vHDHFSy8Ur8VSqYDiRS3Hxgo8KSezjXKP7BqeK8KHSxl+/Qfw00Gfhi792g8oyIBa1XqcrUhE+dHiNv3IlAhW0Ct/WnXv1dkGpaXdYQkPdRskrKGQ9BfYJCCZObNra2kLCFlMZRUM8KLjdTEljRaDhS1Zo7FEPHD5G5RVMLnwbtuygfAbEqP6zb/RnAoSKzQtfSnagRFtb+8xA5tBPNE/foE+fPpM8DFSET8vtf9DS0sp6H2ui69S376oFN9bcjuFjze7ceyD4qFDIDhgXLVslnQ6hInwmVvZ5+YXETwN9Fj5W3e6nrVq7keygBxXhQ/xBnAYdrcK3J+aQfuFLv6tR+LJynrJuOakHEQIoyoWMOROw8h8j5WuJySzhi1wXLfjoRfubG8tWraF8BsRiDsWSHfSDsxcuU5sdEFscEUl2wOBJds5Y1XnvuEBaBEVF+N7ru8EngPEK65kYBm4vX70W3NZsVA7wR5tYZ8hmsciprHpFZRQtNHypuNIHUBE+qRBroc/Cx3oy20+L3rqT7KAHFeHb/r94rCHwvxG+J1k5rHFH+NIVxIlNR2fnogim8JWWkYdKiORZwrc2eqvgoxftwrd4+WrKZ0BMukhJnzl97iK12QGx6C07yA4Y1NTWqrwVAIOgKL47QTEgwsd6BU0qfKvXbaJSBRtjai2dgM2i6tVrKqNocxcska66qCJ8k6d5f9a8eAzos/Bt3r6byjIgRq0YqCJ8p89eJE6Dzv9G+HJy84wZ7wYGBs8nTmza2tsxyKIyiiZW4sSkWyzhi1i1RvDRC64ilVcwufCtXqc8X6Sfxnrhr1ewbl31086cv0R2wOD8pTiVd/IEQ4Cg5fYxlUu019qWF4XomDKGug4uHuKjlU2Ml2RHjrO49+CR4KNCcclzKqNoYYuXS+dyqgifxwz/Xq1l2WfhG6gXRil78PAx2UEPKsKXkPhzVbFB5n8jfCXPX7BeVnNy89T7+LixqYm1CBJMvF2aduceS/iCQxfq3YvAFkavKBc+1h0Te2d3UYv/V6Sk3aGOSjQkEaeBpqyi0oTRtqWGEWh2z0JMKqgIn3z5A0Vev37LGmQgJq17T5aePX7qLJUqGCrS9aSbgo8KqHJURtFWrF4HsSN+qsI33SdQfMqshT4L37mLV6gsgiFjXkEvbjKqoyJ8t1LTiNOg878RvuqaGowvKB/BzCc46p3Xg2rKeihsYu0gHufT3HzW8Uyd4a9lhAV8ApRfrpIL321Gpbd2cNE7QedXw5q4AOvVA0TtNDQ2enj5UftimZfvLKkoyFERvoNHjhEnVe4/zGBNZ3H38hOXdIQblSrarr0HBB8VYg7FUrlEo+5nDQXhy8jMorIINtbMNjPr59LW/YQL30+6urqmeivPiR053jI1Tc+U3fS796lcomFAQZx61rlkvZNvYuVQoLvimyLvP3xknZFc+OobGhSdRxtb5eTmE6f/ES2trayiwJUlTgPH12/fjhw/ySo6RcOwS0X7VITPxd1L7yrcOJ5d+w6w5tYEzV0g1u2m5hbW3E83T1/1IXlra1tQSBiVSzSqgxkc4XuqKnwYGyleo2FGZlrCW41w4dNB5YnS8sh1KjWso6NDZckg6SsiGMxaMFZzhOl9/x9VU2WVDrnwAVePGZSbYBhAEQ8G6Akys3JS0+7I7UlWDnHqH0GMReuom+6KvCgrp45KMMRHxEOXisoqxXU0/x1twnrIO97CLiubufaqivANNzLTO1pvaGhgTUSHQXOJXw/QHcpBMIx2WYvrCeQXFKks1UFNuxkE4Rtrbpulb3Wf6TOVT3bz9t3EgwGOH+dL1QfBqHdOuPDpUPL8BeUjGjaCoRnx0wXHcOzkGcpfNHRx1Adx1qxXfkgHQ/+fr/tiL8X3esxeiVtR+FiPySa6eKgHC+UVlawFoCIimW9H9Irb6XepLQuGtqq+SAFgBTLeAXOIh4Surm6WyswJDS95XsqKPWfPC2eVkorwwdy9fBsbmfNgUWfUlyajupaDR5W/HwJDfWB9cenr12+srybBUCDE7wcDKHz7DhyhtiAY2hGaJHFiwLqnaePgiiMkTkp8/PRpynQfKpdgIWGLiVMPXPho/Bmv68IQF6TcTqdWgunu/nI5LkFFjJasWE2Nep49L2U934CZ2066kZwiv8AYsyCIYL2KKJii8D3MeIzfKU/B1kVvZT2qQwwbtX6T4kAMPz6WfEisP2C0O0lpASIYdO0joz0jaj57/hLryaz8dTr47z94lHITbPhYMyEAQdel+LYTThZJitVMXfhgM/xm5eTmyx9Y1dW936g6sdzawQXVnnj3UFBYzFoHFEc4N2yJvJ+orqllra8D+2e08YNHOg86wQAKH0u8YGGLl6t/Ug6xPOsx48JlK6m1jkSwzd17D7BaVnLKbeLXAxc+GjRplS+QjTGxRteByPnlq9cVVVXXEpNnBgaPYvsPMzKj3gMHOOZpjJGLYKNNrHwCgqGnpS/KqmtqEGmePnfR23+Oyo4EUxS+trZ2b8bjZjT1tRu3yNdBqamtmx26UHFpIJjrVG/1jlc7KApIkmJlRXv2CQyWv7wMRd6+ez9rnVSoQ/EzelkqBHSs1RYOx54QArpPnz97+c6iUgXDvnJyFZ7w6hU+GAbLaOc3U9MwqHz3rvpJ1tNtu/bZObmx6qRgh2XLqaIVzF8UQbmJ9veo8VCKzdt35TzNe1ddU1j07MDh2ImuU1X6V7/ZCqsNDaDw3UpNp7YgGupVwJz59x9m1NTWoqYVlzx//ERnNmJnV9cSxvxT1ApoX73s65H19Q3LVq1lhe32zu7UBye58NEgBmEtWtkHE79WR3H+UhzrIuk1nA4rwFQUPpCbX8AK+mCWds5ojUk3U+8/ehx/PQlSyKr9MEj5xSv63w/VDqQN9ZLai2gQjsh10fHXbyA8Qae9c0+MynqcMMTX1CKDrW1trEV3fALmSIex6XfvsS7KrHnh0u+rCagIn+2kyaw1gfSazURXxXckysorjK3sKee+GXrW23cU7gwOoPC9efNWRXYpky89X1L6gvUaFczMZtLGrTuuJ918kJGJ/27atos1oQKGw9gTc5i6X8GFTwGMGlSeP2g3jHRYHzZ+/+GD61TlZw56bU5o+OWr16gfBWMJHzh19sJw1RXPNZr/nNABX50RHX7/P4QEM5/gSE1ORHVnrU2CspIvyhS9TXmqMEbE5y7SHydTEb6MzCe9+uSp1HbvP9jdrRxQ37iZorKwrnbbumMPWj7ZqIQBFD6UvPZPp8qFDyTdTFFZPV+7Obl5yr93yIVPmZcvX6l8WkWLoc+Xj7mkZOXkoqlSufTaWHPbbAxn3lWPMlYY9qoIH+KglVHrMVKgsmg35LV1nMy6j95P4uKv97OWIxp69ryUbO4HKGTWl7qWroj6Kqs8bW1tLoyH4MOMTCt7vuMsoiJ8tXV1e2MOaw95RHNwdldZoae7u3vHnpg+bFY05F24bBXZnIwBFD5w4PAxjfVNUfhwMOgD1O8J6DVLO6dapZVTufApg80+evxkImN5Pr02dYb/Uw2z5BC4qcTzckOtPRx7squr69PnesWAUUX4QGNTEyKaPusLaqfeJ619pqOz88yFy+prB6iYnZMbwjdqOAOZYD35RTCCMiR+EnDd46/dYH19ODAkTBrtqgjfe/Dho8oTVUWb5h2gd548pDnmcGyfCypq/Wb55+JEBlb4KiqrNIa9isIH0AfsO3hE/TszKjbV2z+fsdouFz4m2HJDQ0Nw6MLeRknhS1awHkdSoKFe1bz62PCx5pfiElA1kbGtvV1xeW514QPQgoTrSb3VvmFGZnsPHG7VtlZgn0FplDx/MclV+SEvy9AZLIpY1dDQKK8Je/YfUrx2OH2VV1zRr7A+d/nvGFPpQr7qwgeH9vaO4PmLqCSWObt5qS8nLoKCuv8wQ2V2nqKNMbWOv55EzUmgGFjhE3oRajuKxhI+gJO99yCjt8Ovf8eYbNy8vbm5maUPXPj0gBEitMlv9jxjSz33lU2tHWbPC0+6lSpok3aKnpXMW7AEY1hqg6KNM58QNHfBw4zMr1/JyeKst+7cQ7nB9AqfwKs3b9ZFb3WcMl19HIFUxLxLV0blFahNLRxYPn76BJFFyKxXnTGKgawkp9zu6lJ4wTnzSTZrSLg4IrKV8TkngerqWkvGzXIre+e3P9YO0Ct8oKmpOeZQrJObJ+sROczBxWP7rn3iC2oaQUS5fff+ydN80C1RG5SacBFXRm0Q1wdSYWCFTyDldjoiWfXhuYrwCVTX1G7Zsdt1qjfrDRbBsBfEmPMXRWC4RoX/FL+B8KGRZ+fkKtq7av0LhNXXN2Q/zaMyClZbp+mzKaCpuflZSen5y3FLVqxG6Y81n4D6BBtvYYeat2zVmitXr5W+KOtt3RVBxuJnJRjGogZYTHAcZmQKs5jghH8ePHIsv7BIPtsOVSH7KX1GuXkF6l26CEK/t++qHz56vGP3ft+gEGsHlxHjLFBvILIYNvrPDt29/+Ddew9ev3krn4Ym0NzcgqhzZmBI30x9iYQPHz4+zc0/HHsiJGyRvbPHaBNrxG74r/VE12k+gRu37Ei+mVpeUanSFDFmlJePYHq/hgHKyiupXKKJ4bwW4QOowChqNKcVUet7Ko/tP6OMR463nDR5GjqVG8kpCPR621kKoG2jDmdlP91/8EjQ3DC0+VHGVriII8aaoxb5BAZv2bEnveciatw+DjWvoJA6X8FKnpeqSwkLbBMaDSWK3rpz+sxAE2uHYWNMcZBGZjZWdk7TfAKWrVxz9Rrzi04i2HtNTe2T7Jy9MYcDQ+bbTsLJWqJWGJnZ2jpO8QkI3rZr3+20u1UvX6l/pkoAMQR1gqKp3Ar41egIH2doUt/Q0J/nP/IHEb8dGoWPw9EIF77fAC58XPg4AwsXvt8ALnxc+DgDCxe+3wAufFz4OAMLF77fgC9fvla9fFVeUdk361D9DPZvARc+zsDChY/zG8CFjzOwcOHj/AZw4eMMLFz4OL8BXPg4AwsXPs5vQFl5xd4DhxVNZaEBDocFFz4Oh2NwcOHjcDgGBxc+DodjcHDh43A4BgcXPg6HY3Bw4eNwOAYHFz4Oh2NwcOHjcDgGxn///X+Qw9ioYgcAAAAAAABJRU5ErkJggg==;" parent="1" vertex="1">
          <mxGeometry x="209.76" y="450" width="147.48" height="48" as="geometry" />
        </mxCell>
        <mxCell id="LdKZ-aVJx-CH3_bbswVv-4" value="" style="shape=image;verticalLabelPosition=bottom;verticalAlign=top;imageAspect=0;image=data:image/png,iVBORw0KGgoAAAANSUhEUgAABQAAAAF5CAYAAADAhoftAAAABHNCSVQICAgIfAhkiAAAAAFzUkdCAK7OHOkAAAAEZ0FNQQAAsY8L/GEFAAAACXBIWXMAAA7EAAAOxAGVKw4bAAAAGXRFWHRTb2Z0d2FyZQB3d3cuaW5rc2NhcGUub3Jnm+48GgAAACF0RVh0Q3JlYXRpb24gVGltZQAyMDIzOjA1OjE5IDExOjE3OjQzW2xX8wAAb6tJREFUeF7t3QmcHEXd//GumdnNQQ4EEXIAknBuNtfu5jCKUUTheUBgF4KINyo+nniDjz4i3ijeJ3ihfxAhkIAgouKBCoZkN3eCQAICyYZbSAI5dmfq//3tFEhIspnpnpmd2f28X+l0Vc3OTE919VVdXRUBAAAAAAAAAAAAAAAAAAAAAAAAAAAAAAAAAAAAAAAAAAAAAAAAAAAAAAAAAAAAAAAAAAAAAAAAAAAAAAAAAAAAAAAAAAAAAAAAAAAAAAAAAAAAAAAAAAAAAAAAAAAAAAAAAAAAAAAAAAAAAAAAAAAAAAAAAAAAAAAAAAAAAAAAAAAAAAAAAAAAAAAAAAAAAAAAAAAAAAAAAAAAAAAAAAAAAAAAAAAAAAAAAAAAAAAAAAAAAAAAAAAAAAAAAAAAAAAAAAAAAAAAAAAAAAAAAAAAAAAAAAAAAAAAAAAAAAAAAAAAAAAAAAAAAAAAAAAAAAAAAAAAAAAAAAAAAAAAAAAAAAAAAAAAAAAAAAAAAAAAAAAAAAAAAAAAAAAAAAAAAAAAAAAAAAAAAAAAAAAAAAAAAAAAAAAAAAAAAAAAAAAAAAAAAAAAAAAAAAAAAAAAAAAAAAAAAAAAAAAAAAAAAAAAAAAAAAAAAAAAAAAAAAAAAAAAAAAAAAAAAAAAAAAAAAAAAAAAAAAAAAAAAAAAAAAAAAAAAAAAAAAAAAAAAAAAAAAAAAAAAAAAAAAAAAAAAAAAAAAAAAAAAAAAAAAAAAAAAAAAAAAAAAAAAAAAAAAAAAAAAAAAAAAAAAAAAAAAAAAAAAAAAAAAAAAAAAAAAAAAAAAAAAAAAAAAAAAAAAAAAAAAAAAAAAAAAAAAAAAAAAAAAAAAAAAAAAAAAAAAAAAAAAAAAAAAAAAAAAAAAAAAAAAAAAAAAAAAAAAAAAAAAAAAAAAAAAAAAAAAAAAAAAAAAAAAAAAAAAAAAAAAAAAAAAAAAAAAAAAAAAAAAAAAAAAAAAAAAAAAAAAAAAAAAAAAAAAAAAAAAAAAAAAAAAAAAAAAAAAAAAAAAAAAAAAAAAAAAAAAAAAAAAAAAAAAAAAAAAAAAAAAAAAAAAAAAAAAAAAAAAAAAAAAAAAAAAAAAAAAAAAAAAAAAAAAAAAAAAAAAAAAAAAAAAAAAAAAAAAAAAAAAAAAAAAAAAAAAAAAAAAAAAAAAAAAAAAAAAAAAAAAAAAAAAAAAAAAAAAAAAAAAAAAAAAAAAAAAAAAAAAAAAAAAAAAAAAAAAAAAAAAAAAAAAAAAAAAAAAAAAAAAAAAAAAAAAAAAAAAAAAAAAAAAAAAAAAAAAAAAAAAAAAAAAAAAAAAAAAAAAAAAAAAAAAAAAAAAAAAAAAAAAAAAAAAAAAAAAAAAAAAAAAAAAAAAAAAAAAAAAAAAAAAAAAAAAAAAAAAAAAAAAAAAAAAAAAAAAAAAAAAAAAAAAAAAAAAAAAAAAAAAAAAAAAAAAAAAAAAAAAAAAAAAAAAAAAAAAAAAAAAAAAAAAAAAAAAAAAAAAAAAAAAKIALc1SBx+c0j3yqe+uL086Nyflo/5RzdeEl9DM+8vumomisd1FX5HzH485f2Th39fbwMgAAAAAAQMlQAdjHNrxx0l65p3JnaU2cEkX+5S5ymfASBhAf+W79963R81d9TBulD8kAAAAAAACJUQHYR/ycOekNXXe806eiT2sljArJGOCc9zceMGnVa90FUS4kAQAAAAAAJEIFYB+wR323ZLde4SL3XyEJeA7/s1HzVr2dloAAAAAAAKAUqACssPUnHv7CqK7+FueihpAE7IL/zqh5q86hEhAAAAAAACSVCnNUwMo5DfVRXd01VP5hz9z7O1snXBQiAAAAAAAAsVEBWEEv6HZfdM69PESBXqmsfLizdcKXQhQAAAAAACAWHgGukA0nT36xT2f/qeCgfApQGO/9Z8fMX3V+iAIAAAAAABSFFoAV4tPdn9aMyj8UzTn36c62CZ8KUQAAAAAAgKJQAVgB/uzmOs1a8zEgDve59W2NnwgRAAAAAACAglEBWAGdj219ZRS5vUMUiMVF0Rc7Wxs+FKIAAAAAAAAFoQKwApyPpocgkIh3qa+tb2t8X4gCAAAAAADsEYOAVMD6tsbvKaPfE6K98j7a6CJ/7Oj5qxaFJPQDKgMrVAYaQzQRb/WAkX/v6HmrfhCSAAAAAAAAdosWgJXgo/1DaM+c/x2Vf+iN62lU6r7X2Tbx7JAEAAAAAACwW1QAVoBzkQ0CUhgfbQshYLd6KgG9/0Fn24Q3hSQAAAAAAIBdogIQqFHORSnvo5+tb5t4ZkgCAAAAAADYCRWAQA1zzqUjn/vFutYJZ4QkAAAAAACAHVABCNQ4qwR0UfSLda0NJ4UkAAAAAACAZ1EBCPQDzrm6VJSau+GUCSeGJAAAAAAAgB5UAAJVxvvIh2BxXFTvnZu7vrXx1SEFAAAAAACACkCg6jj/pP7/UT5SJBcNdpG/bkNrwzEhBQAAAAAADHBUAALVxkfRqPRR7/beXxZSiuPcEO/c9RtOnfCKkAIAAAAAAAYwKgCBKuTmzs2OzjS8NfLRFSGpSG5oLhfdsP7UiUeHBAAAAAAAMEBRAYiad+9bDh7c2dr4f51tE34akvoFqwQclTnqTd77q0JSUZxze0W53PUbTmmYHpIAAAAAAMAARAUgatr9pzUcOmjjsCWRiz7rI/frkNxvWCXgvzP+TQrG+m3OuZE5537feWpjS0gCAAAAAAADDBWAqFmdbUcdnMmm/hg5d6T3/ql/p3M3hpf6lca5q7c/ns7N8ZH/TUgqilUCRt7/YX3rxKaQBAAAAAAABhAqAFGT/Jw5aR+lfhW56KCeBBetsIqynnA/ZL8tmxo+J/L+jyGpSG7vKMrdtOHUoyaEBAAAAAAAMEBQAYia1Nl9x0dd5GaGqPl3mPdbB129YIvvGnyS99GfQ1JRnHP75XzqT52nNTSEJAAAAAAAMABQAYiac+/Jk/d2zp8XooHbNwT6tTE3dDwddQ060Xv/15BUFBe5F/mc+9P6tsYjQxIAAAAAAOjnqABEzalPd384/0jrf7goGhWC/Z5VAg7asu213ke3h6SiuMjt7yL/hwfbJo4LSQAAAAAAoB+jAhA1xZ8fpVwUvS1En+WjaOzDrUcOmErAF960ZuOQzKDj9LsXhaQiubE57/+84eTJLw4JAAAAAACgn6ICEDXlweUNr7DKqxB9ltO/7lTmVSE6IOwzt+PJ7dn0a6LId4Sk4rjooFwq+xcbTTmkAAAAAACAfogKQNSUXJQ6PgR3lov+O4QGjEOuW/aE3951vI/8ypBUFOeigyOf/sN9Jx0xOiQBAAAAAIB+hgpA1BQX+eeO/Lsj509+fE7zyBArmp8zJ12LFWFjbrjr0ZRPv8r7aFVIKo6LDqtLZ/700JyGA0IKAAAAAADoR6gARE3xzk0JwV1wQ7d2bzsjRIpifQtu6L7jclc/2IWkmjJq/vKH093Rq3wU3RGSiuPcEd1Z9/v1Jx7+wpACAAAAAAD6CSoAUTPuP23mEBdFw0N0l7yLzgrBomxYMeGLkfMHHXT1svUhqdR8mBciViXkAdevfCjn3Wu89/eEpKK4yE10dfW/v/+0hn1CEgAAAAAA6AdqsrVTrelsa7xOs5Pysd557y8bM3/Vm0IUz/FA68SxaecfCNHdcj41cdT85QX3ibehteGYnEvdrMz/uvL+oyG5pNa1TvhLyrnZIboHXv9SP/EuuiskFCXnc/vru96vjbsuJBVFZbB9SGbwsTbISEgCAAAAAAA1jArACqACsDQePHnixFzaLw/R3fKR/8aYeas+HKK9WjmnoX6f7tQqbQmH6n0f1Pu+FV4qqc7Wxsv1HWeGaPXz0ZK6bNfs/X5956aQAgAAAAAAahSPAKNPrDt5woHrTp0wK0QLks1Ee4dg73z0RqvYC7Fe7dPt3mGVfxZ2uWiPrQvj8t79JQRrg4umdmfqrgwxAAAAAABQw6gARJ9I1dVtdbnor+tbGy+99y0HDw7JvfI+V1AFoHNuv32y7rUhuls28IeP3MdD1AYYKaafvqKMnrziZ95HuRCtCcqM/+psnTItRAEAAAAAQI3iEeAK4BHgXetsbVxsLc0U/PWoeStPUWHstQKus22C8sX9IkR7pXy8Ufl4QojuUmdrw/GRS/02RPWe6I1j5q+8PERLrrN1wrLIuUkhWhO0Qq4eM2/lnBAFABRhzpw56Xvuuef7IRrHxzs66I8VAAAAydECEH3GO78mBE/a0DrhIyG8W967wh4BzjvOBg0J4V3yUeodIdjDRX5kCJZFLpt7awjWDOXJxBAEABTpnnvusfOss+NO3vuhmgMAAACJUQGIPuN89FAIRj5y529onfSiEN0Nf3AI7JFzLp2Kcm8O0Z08+NrG/fV5O7bKdNGRIVQWY399xxLNaqovQOddQY9nAwAAAACA6kUFIPqMd+7ZR9AVGuaj3P+G6C7pzw8LwQK53Y66m8341+rz6kK0h4/chBAsm1EvHPQaH/mHQ7TqZb3fEoIAAAAAAKBGUQGIvjQ8zHv4KHr7hjdO2itEd+b94SFUEOeiCRtaJzWG6I5c9JoQ+g/vm/3s2ZkQKwt3SUfXIJ9q9j7aFJKqmouizhAEAAAAAAA1igpA9B0fHRRCPXpaAW7JtYboDtaf2DzUR1GRLQCjKBflzgjBZ/k5c9LOu1eF6LOccyPXv+Cxso96+8L5K9Y9tWXrWO+f7QOxerno0RACAAAAAAA1igpA9AlvVUvOHxWi/5GL3hhCO/CDtk6xfv1CtHAu2qkC8MGuVc1K3ydEd+CcPz4Ey+rwm9ZsHDN/1WHeRefp1z0dkgEAAAAAAEqOCkD0ic62xiNc5PYP0eeafdfxhw4K4Wc5H8VqmeeiaPz6tsYdB/dIudkhtBMt0+t7KicrZMw1Ky8cNXHVyJz379X3Lop8tEXzXHgZAAAAAAAgMSoA0Sdc5F4egjty0eBhQ4fMCLFn6e+PCcGiuci/MgR7+Mg1heDOXHTY+lMnvCTEKsJdEHWPnb/q+2PmrZw+ev7KoZqnH0/nhm/vSo0rx+Si6LfhqwEAAAAAwABQsZZOA1lnW+N1mp2Uj/XOe3/ZmPmr3hSi/VZn24TLVPzeEKLPd/7oeSs/G8KRDczRuc9jjzkXjQhJxfHRT0bPX/mOELPvvlPf3cuAIv7y0fNW7fJR5P5gfVvjXG34p4Vor1Qer1J5fF2IAgCK0NzcbKPNb8/Hiqd98OjFixdvCFEAAAAgNloAouJsEA4fRceG6C74KSHQY8MLHntp7Mo/0Xc9OxLwIycdMdx7d2iI7pL30enrTp5wYIgCAAAAAADUNCoAUXEPdq+avZv+/3p4v2PrPO+iRC3QnIuerfDbnkpPVrzXcu+cq3Pp6H9DFAAAAAAAoKZRAYiKyzl3egjukg3cYa0ELWyP/+r/gh5X7cW+9582c4gFvEsd1pOyJz56+wNtRxX2twAAAAAAAFWMCkBUVE+Fno/aQnTXXDR4Q3blWAs+uM/jrc65/XrSE3C5J3s+z0XRuJ6EPbBWgCmf+nyIAgAAAACCWbNmDW9paRkXZ2pqahoVPgZABVEBiIrq3PfRVxVUoefSPX+Tc/6jPfGEMlEqVAD6gioAezg3p7N1wrQQAwAAAADI9u3b53jv18aZdD34/8LHAKggKgBRUS6KChrhOOfd3htaG47R308PSYl458bk54W1ADT6bqf3fTlEAQAAAAAAahIVgKiY/Ai80Skh2ivnsvvlnPtWiCbmvA/NzN3B+XlhXBQds75twnEhCgAAAAAAUHOoAETFdNWl25xze4Vo77z7hItcY4gllvPRAf58K++++P4EfURfgAAAAAAAoGZRAYiK8T715hDcIxe5iSFYEs5F+29YNWVffW4mJBXMOdfSeUrj7BAFAAAAAACoKVQAoiIemtNwQOR931Wi+egA57e9KMSKl/IfCiEAAAAAAICaQgUgKiLblTrFOZcO0YrzkRsV+VTsCkAfRSc8+NrG/UMUAAAAAACgZlABiMpw/rQQ6hPOReO99/uGaNHs0eFsxr8+RAEAAAAAAGoGFYAou3WnHLmvd1Ff96E3yDs3KYRjcVHUFoIAAAAAAAA1gwpAlJ/LnBRn8I3Sc9NCIBYfRTMfPf7QESEKAAAAAABQE6gARNmlXPSaEOxTLooSVQA65+q2Dh3EaMA1rrm5eXpTU9OF06dPpzIXAAAAADAgUAGIsvJR5HzkjwnRvha7D8BnpCLXFIKoUd77Qc65j3d3d9/T1NR0zpw5c/pscBoAAAAAACqBCkCU1fpTJh3mIhd79N3q4yeHAGqcc25fTd+85557VkydOvX4kAwAAAAAQL9DBSDKy2X7V4s5Hx0VQug/jkqlUr9tbm6+vqmpaXxIAwAAAACg36ACEGWVctGUEOwXvHNjQhD9z4ma7mhqavpWc3PzyHwSAAAAAAC1z4U5yqizrfE6zU7Kx3rnvb9szPxVbwrRmre+bcJVLnJzQrRfqOvuGrHfr+/cFKI1Z31b41xt+KeFaK9UHq9SeXxdiPYLTU1NRzvn/hqiu6Tf/Zhmnxs/fvx3586dm82nopo0NzfXaT2Oy+Vyh2l97aXwSE2DFN6m6Wn9yaPpdPreJ5544l9r1qzZln8XapCbPHny6Ewmc4jCo7S+rQ/Poc+sa81tX7xF8/u6urruXbZs2RM976oSVk41256PFU+/cfTixYs3hCgGqGnTpu2rsj9e5fxAzQcryfZ5PduAwps1Pan0e7XP+1dHR4ft/9APzZ49e/CmTZsO07ofp6jdqByqMmCNOZ7SfJPtB7du3Xrn6tWrrUz0W1OnTh2dSqXsmDD6+ccEpW1W+GmFH9Ax4Z4VK1b8u+dNKIuWlpazlNc/CdFi/VH7q2NDuCbNnDlzyPbt2w+18hj2zXs/pyzaOcqTVhZt37xo0SK7tgD6HBWAFTCgKwBbJyzSzq8lRPsFl0qNG3X18ntDtOZQAbjnCsDnuEMH9A8vWbLkphBHHwmtMm1E8VfYpLJ5uNZjxl7rjf6uS7Ml+tvbNL9u3Lhxf9tTpe6UKVP2y2QyBfX3qfLx0OLFi1eEaCy6qMs89dRT9rsKVl9ff/ttt91W1I0Iu3jcuHHjS5UXUxWdqGm0wnsrjwZrbierVnl2v+JrNO/QheStlb6Q1Ho+SMsyW/k6S/OXKOlITYN6XiyAlv1xvW+Rggs03bply5Zb9BtiV8AlVY0VgNOmTZugzx0VorFt27atg4vr0mtoaKgfNGjQ0bqgPFrRl2myrlReYK8V6G6t3wXaDm7VZ1yni84HQ3qpOB1HX6nPTvoU0YPt7e0rQ7gsWlpapmmWqEV/IeW80O/RelnX0dHxzxDdo1AWjtO6fLWix2hu3dDsMd/1PXaO+mdNf9R7fqPvfLLnhRo0efLkMel0+hX6HS/R75qlpKMUtoqWQj2h97Vr/g9Nt+oY+Je+vik4derUV+k3FXwNrt+7pNjKo3CTdJaOpc8c7w/SNEKTVZbajdKNCq9T+C6Fl2az2b/v6gaazocO0/nQwSG6E33+8fqMj4RoUfS9S7Qb+XiIFkXLu1rn5p0hWjE6fk7Rd89W0PbP0/XbD+x5oTCPaFqg321l8Yak545xWOW5yl5DiO6RlnWL9h+3hmjBZsyYsX93d/fRev9k5ZGdc9gxzG7Up+0zFbbyfI/id1p+jB8/fikNLiqHCsAKGOAVgLZx2126/iPnG0Zfu+qOEKs5VAAWVQH4jBuUFx/UwXptiKNCdBL7auX92xQ8RettSD41Pn2WXQz/QJ/1fZ3UPJpP3ZHKyIV6vdCT0iv1OWeEcCy6wNlbJ9hFVaTopPsknfxeH6K9SSkPX6vf/Ub9JhvsZlg+ec/0nm7N/qL5z/Vdl+VTS89OSLVsr1dwjubTNS/luYnl66/1uZe1t7f/UWHfk1oh1VYBqLyepAsuqwzfK58Sj5brRp2wn8QJe+morLzMtlMFbTvYJ5+aWE7Trfq8Hz399NNXlqoyXMv6Rc0+kY/Fo99qLdYatf+8PySVlMr6S/T5f9MUe6R/LeMtw4cPP/aWW26xfeFuKT/sgn5mPrZ7+ry7tD3bTY1e90PTp08/JJvNnqO/f4OW/4UhORZ9hrUIvVrT9/Xdt/ckVrlp06YdoN9v556n6/fbjaBSHhOsMvR6HUMv13HtdwpX9JhgdI6xXb/Ljg0F0bKepWX9WYj2xirnrbL4rfr8/9J8757UAqicZPUeOzb8fNiwYT9/psyrbH9Fs49ZuJoUkSeJ2fbY3d39ZgXPVB4dnk8tibs1/UJl/eKlS5da5WDZFdtiU3+7Vcf6YYUc61VW7CaIff5pyifbHxZzk8gq6udp+oHWq1XYo4zoAxDl5ZJdZFSjXLqniTcGFvoHrDDl9QmaFir4e51IvF5T4so/o885QNMFCv5Ln/+/hx566A6ty+bMmZPW63YRXtVSqdSEENydlJ3o6TfazYpr9Zus0r/gyj+j92Q0Havv+nRIKiktW5O2p/+n7/iXpos0zVByqW9M2l3nt+ik8g/6umVTp059m7W4zL80sMycOXMf5fE8BZNW/q3KZDKvp/KvJFIql62arMWqVVa9S1OpKv+MnedbK4xfDB482PZ5H9A2V3DFQy/O12TLHJt+53DNLs7HSku/0Vo5XaopSeWf3Sx6/Z4q/4qh5Tlc+6DjQnQndjNE6+jH3d3ddyp6jv4+UeWf0WdYXrxZ0wLly/VTpkwpqHV7X7AbFFrGn+VyOTsmfFOTtfgr9THBzuHeqOOaDf62Svl9trW0zL9UnZQPezreOx3vz9DvWaq//Z0mu6FWcOWf0XtsW7F9xYUq83bjYMCz1n4qH1doe7xb+fMZTaWs/DOHafqcyuL9Wnffs6dP8snVQ7958N13321dDuyWnVsony5S2bGbOV/Xe2y7LbaOyR6dPktTQQ1UkAwVgCgrHbWr+qAah46Q/e43Yc90ULLHKT6gA9xaHejOsYqi8BJKaPLkyS/WidBNyusbNNljVeVifWh9YeTIkUu0Pu3xmB5r1qyxu+ej87HqpXK420c4lH/TNd2uv/mJfmPiE1Z9zi0hWBK2jpXnV2vZOhS1lomlqJDYI33PRJ1o/3Tz5s3L9P32OPmAYfurrq6uXyoPko50/kgmk3ntwoUL7fExJKAy2KzpH1on8zRZ5XdZ6TtGafqWglYR/vJ8ajwdHR1d6XT6TAWTPlp6vPLgrSFcMtpnfVm/Nfa+T+/v1r7ijFK2vn2Glut9Ifhc1nLrbH3nKr3+dk3l2ieeqO9o13d96fk3v/pSS0vLgVqmK7RsSxW18lCpZbPHiS8ePHjwCn2/3eitVrs93ivvGrXsf1aZvULRSfnURP6maUBXAE6aNOlFOoe6NJfLLVb5OENTWc/39fnWsOQ92qfepe+1/UOpK70T0XLtrgK6Z7+1ffv2u/QbPqLJHjFPRPuAkp5vYteoAESZuX7XGbXrztDB9gCmA9y+mr55zz33rNBFlD1SiRKxFmuZTMb6RNltC4kysD6VFugk5nSLaN3aYx61YFcnZE4nj+fqQsD6aylZ36ulqgC0lnfK50/rZPIO5fOpIbkvNOj7f6dluUL5NSBa9K5du/bzmiXdrrarLJy6cOHCmu0DtxpYxYvK3TcVvF3l0B55rzSr9PiTluGCJDeyrBzoc/4nRGPTZ3xd22LiPimfoc+yvvJ2VclWML3/k+3t7WW5ENVn/5fOHQ4N0WjWrFnDtS7shoi1hiyq1VYc+h5r2X3eiBEjFumY22vLngqwLirOzeVy/9QyWVcafVLxoe+2PoWv17LMs9ZMIbma7LICRsv7Lu2T27Xs1iddqQzoChjl6Zvr6uqsn863aKp0ebTt/zvah1lL3appDagytlMFdGj1d73K3sWa9g3Jieh77MZL0f0NonhUAKKsfPK7w1XH17l+PboaCnaUDlT2CMn1OggmbVUzoIWKoe/o4G/9khT1mGop6ORlqGa/1Lr8kOan9CRWP+tH6tljuI1Epzy0xzut5UtJH3HVyfBfQjA25e1BmzZt+ouW7QJNVdGNgpbjDJW5JboILmdL0z6nvLf+eM4N0dh0kf4/ixcvttYhiMn6kho5cuTfFbTHO/usFXn47k+vXbv2au1/Y2+P7e3tv9IsaT9c9pj+D/LBZJS/I/Tbfqpg7At37ROu6+jo+GqIlkNKy/geC2h5x27dutX6D2yzeCVpGSZqm75dxw0bzKDiwuPONytoxyw7BleD1u3bty/VPvOlIV4VlD8HWkVxiPacM2kZbbv7oaaStpZMp9OJj/e1KJxD/VjBn2sqZtClktP6PkHXF//Q8lTLtcUOFdA2kFhXV1eHLWdIKpUlPF1QGVQAotzuC/N+wfsot2nz0xUfdQpVjf4BE7C+dzZv3myPwCVqsZGUvt8uiK3vkpL0NVhuWs6hLS0tL7aw8nCYLlp+o7SSV17qYnitTsjWhWgs2i5scAMbibmqLqqMlukQXQT/Rcv43yGpX7HHwzSzC8WkLRkuqlSH6/2VVTR3d3fbCNUla52blO0zNm3a9Fu7+A1JRduyZYt1jWF91sWm5ThZ+ZNoMCWj/P2GZrsdsXRPbH+XzWbtEdSyDgyh3/s2/d4j9F1/VnhP/buVjb7b+hj8nfZ/RY1Cn5S+b7o97qvvf2VIqhpapgNVDm6eOnVqxStle+G2bt3a0wrLWhBrm52rYMkfnZd/L1q0aHkIDxgTJ058gc6hbFt8e0jqc1oWq/z7u8qhPaXS155tAaj91lTtt6ySuOf8s5T0m3n8t0KoAERZucjfFYL9xQOH37RmWwgDPXTQon/AGHQRUDd48OArFXxtPgXF0EnYBLsYGDJkyI0qf+W6kEp0QqaTVxuB2AZyqcbHqnpo2YZqGa8tRQVENbGLGv2u+QombVV7w7hx484LYcSg48LRuVzuZpW1kjwqVUpapld0dXVdrmCsa4LVq1fbUxHWH2CicyOV1W8neezN9jX6LWeFaNH0/VtTqdScZcuWPRGSymlvlYfFmj/7KHBfUZ5Z5a89ybDHUYxLQcd962fXRmSvugEPnqE8GazpKpWpt4WkPqeyOcHOLUeMGHGVlq0sTypoGxhw/f9Zf3/19fVW+Vf2fliLpWU6QOv9RhsVOyT1lSOt7FnLP5WRP2m5Eg9OtCv67AHZ+rQvUAGI8vKRdfLeb7goGnB3xlA4HRTpH7A431V+1cojt1XHLgh0MXCJgmV7hEvrJ3YFYLggt9adVd+qUstYp5PPn7e0tBwbkmpdqq6uzip1ElUwKE9WDBo06ExG/I3PRpJU+bJK+sQdpJdRa3Nz8+dCuGiLRbNP5GOx7ad92rdDuCjKYzv22r4wNr3/fe3t7UtCtOz0fdXy2KuxmwTzm0rYF+OuhMq/GzRVvKuPYmn9pK1MKU+qYnCQXC7XsHbt2gu1TCeFpJLTZw+oFlj29EQmk/mdglU7Mra8OJvNXms3zEO84lQuBt97770ztBzXK1qWfkp1rpHV91j3GKgAKgBRVi6d7lf9BXnn2TmhEPQPuAfKm3dpdnY+hjh0wmSjrpV10BJddMS6IFC5n6Fl+5WmkvZHWGb1+r3X2F3uEK9ZVpmjvP+vEI3rYZ3wn3TbbbdtCnEUafLkyWNUpmqiwkP7k3O13ca+mdDR0fFNfcZvQzQWldkzVHaLvimkPP6+3puklczPtPzWB+2AFfLvKutfLp9SWvbooMrHNQrW51Oqnx2/NP3Klj0k9aW3aFk+EsJlofUzYFpgWYu2wYMH2znKlJBUtbSMM7Ru/i9E+4T2sddpOQ4J0ZLTZy/VPrjfjRtQragARFmNunr5vTqk9JvHgFM5mif3A9vDvBJO1EFtlS5ovmKdk4e0AS9UsMRq6YH/UNkqy2MYz9AJ571Lliwpuh9Xq/TQstnocNXUwqUgWuYROtH9pT1aHZJqztR831VJW2PZ45xty5Yt+1c+imLZBWYmk7G+usbkU6qbyr61ePqp9csakorlu7u736r9xoMhHove/317fD1E9yg8ut8zintMy+rq6t4bwgOa1v/LNm3a9MEQLRl7zFL7Veun9tmBLGrIXlp2GzG+T49nyruyHu/lyfHjxy8L4X5v7dq15ytPSz2IRTl9Qsf2SSFcceUuf9rv0/9fBVEBiLLz3l0VgjXOrzvg2tXWgTdq2OLFi2/XgeYlmio11LxVJHxMF0b3NNE/oEnpZPpHmtdMK4CBSid8cU7IUplMxkbRq9r+nQowacSIEV8M4Zpiletab5cqmGjQD+0f39XR0VGpfWS/pAtMG3n5JflYYndrnfxQ08c1vU37UKv0er+mCzTZY1lPaSqFQwcPHtwzQm0cy5cvf1jlz1olx+5HTO8fVV9f//UQ7ZWOqaOUF98N0Tie1PtPW7BgwZYQH/CU/5+ZPHlyKTv4d3V1dT+x9RriNUfLfoS2u6+FaH/1t4HS1UNzc/N0zZLeJOuhcvGopisUtBZ6/6PpdMXfqfmnNF2q8AbNE1MZzKRSqQtDtN9RPtHApoKoAET5uehyr207xGqW99FVuqKq+d+BnkrABZrsUSc7UN+TTy0vHbzpH1B04mWP/ZbqovgZtl3eoXV5taZva7KTpG9q+rnCizQ9bX+E4ijfiq4A1Pq11iOvysdKQ8thLYpu0twqQC4M00803azp0fxfldw5LfkRdGuGLtptYIH52s8kamWjPP2K9o9WiYuYpkyZ0qD1cH6IxqL1YBfjl2az2cM7OjoO1zp5t6avarp0yZIlVyrtu5o+o+mkJ5980o4vp+nvV/e8OZlPJmntpOX5g5b9ohCN660FHid/ZMfWEC6WFtO/TXm5JsSrkR3bVms5r9H0XU12bLO8tYqFWzWV49i2VzqdLtkNEJUl6+6j1P3oPazf/ntNF1ue2KS0H2n+B3ut5y9KTOXsbJXJqhnBu9SUdwOiBZbKo/Wld6nWZ6JH3ZVftv29Svvj/TWdqf3e5zVdrGmu4j/W/Aua3qawPRFhFY52oyap45N001DFct3d3XSxVUGJ7hCjMJ1tjddpVlCnrdqZXDZm/qo3hWi/0dna+DuVtteEaM2xCkyfSx059trlNf848/q2xrna8O1CYY9UHq9SeXxdiPZL9rjT4MGD360D9GcULUvntrtxg/L3gzo5WBvi/d7MmTOHdHV12cXW6HxKMso/2x6/V1dXd+Xtt9/+UD51Z7Nnzx68cePGV6RSKXs8rU3rupSdKduFeKLRY63iJpPJ/DtEq4YuAsctXLjw3hDdo2nTph2QzWbvUv6W4jGvzVpXdkFnlR29Db6U0gmx9c9krY7equ8u5aP2N2ndJupHL1xsxO52QL9/tPYRhbQgsHz4tX5/okea9H2/1ve1KjigRoIsNa33X2sWe3RzrYd7NZ2yh7K/E2thvnbt2g+pHFiFSOyb/Prud9pFbIgWzcq9PuNWLce0kFQ0vf9+HZsbd9cHpb7j7ZrFXka5SNv3x0I4ES3LPzQr2Si6+u1/Ud79TMEbtYy7vclhXRXsvffex+jv36Go9Z1YqoYdOWlU+bsjxGOxwVn0OXcrWPAj3buj32iVndZP46UqmzZYy+5uyDt972Qdi96kPLRRoUt5XvdXrY/ZIRyb9tXbtWx9NqjDrmh5pre3txf9lFNLS8tZWjdx+8/8o/KzogNvKe/fq98au9WwfutWTe/UtnFZSCqYvvuVmtkozrEfp9V3X63yPydEi5ZwfZWFlmeJflNTiKICaAGIisg599UQrEkuiq7vD5V/2Nnq1au368Dzrbq6uvE6CNlFk/V9VQl2R/wOnRB8SxcPI/NJ/VtXV5c9HpG48k/ryS4I3z1+/PgGrbtv91b5Z2655ZatOlmzypwzMpmMPcpzdXhpoHlCv93uWv9S08WKf09za0l3o6Z/aurO/1lPHt9fTOWf0QXX53ViW4rKP2v1NE7r9sMFVIDk9Hcdms7Rd9uAO9/XVKqW2sdr23xZCFc17Ucu0O9P2p/R8q1bt75Bcyr/EtAFllUQxK78k47u7u6ZxVb+GXuET9vCRSoL1idekmNZoj7xtK/t0j7kTE2xB5DRbzhI5fErIboDe0RVn13QY8K78bdhw4aV5BHAUtJv+rN+93Stw1cqD3+hqdcWzmvWrNnW3t7+W/3dqdpnNun9t4eXkkppORLnj5bJWsGWovLvinQ6PV758gFNNuJ0b/t4v2jRoqX6s49s3759nOL2NECp9mkv1762JhozKM82WnnQ9CtFL9HcWpBahbkNSmStSrvs74zCG/faa6+KjYDdV2bNmjVc5frTIRrHE3r/sXEq/4zK5J9zudws5XdR51bPc8rUqVNLchO9zKz/6Js02ZM4VuFqZfD/abKWpus1PUt5Sv9/FUYLwAroDy0A7zr+0EGH37QmUcVIZ+uEP2grr+idnlLwPsrlIt904PxViTvHvffkyXsfct2yJ0K0T9ACsHc6sB6sg5GNoPlGRSuyj1Q+P6bZ58aPH//d/toHS2iZco/y9aCQFNfduqg4YenSpdaqIDbrOF4nYpdoeZJWWFV1C0CVLbtxcal+643Ks173YZMmTdqrvr6+Re+xiqQu/a5P5l/ZM+WnVaza44dJbixaq4h36IL2/4V4LLpAO06fc6WCiSvW9ZsS3W23llCalbUFoL7DWv7M0xR7f6XveUjTDF3YFD3oC3ak9WEXPcflY0V7pLu7e+qyZct2uECKQ8vxIc1iV5JpP3t40v2sjqdvTKVSSbZnq+g5Rvui5/YPZa1db9Y2bq1pihbKepPKemdISkx5nagFoJbH+iC0yi1rmRP7BoaN4Ltp06avKW8+EJJi0zJt7erqGr1ixYpYx6ZwLnW3ptgt3bQMdlPqPcoX6zc4NpUXKytztSxxHxd/lpbpRi1PopstWp5ytQC8T8v3M02/Ufm2itLdVnzakxGbN29u1t9aK/eR+k3Wp2jRaqkFoPL9g8r3b4Rosbzee4rOT6x1dyLTpk2bonOyBQrGHWzs/cq3WK0Yy9gC0PZbv9fvulLns79dtGhRr4NBaV2MUn6+TMti5y+/UPn7Xf4VVAItAFGQvYYMvqmzrXFpZ+uEn2xobXjvulMaX2KVguHlguRy/mM++k8Lk5rhosviVP490Dpx7Lq2Ca9Vvp1vlcCdbRMeGJTK/iK8jCplF8A6ENnjhHYy/7eexDKzk1JN/bp/wHvvvfc1+o2JKv90onCPLiZfnvSi1Ogkzu6Kv1KfaZWv/Y5+1xLl93+rLB+p6Ut7qvwzy5cvf0r5cotOLD9eTOWf0ffZxUOSRw6t4vt1SSv/jJ1I6vOOLtG6PUUnzAeGcNXR/uIo/U47riS5WbFN21UblX/J6cLucM2StBB6aykq/4y2YWv59Kd8rHgqEyeHYGwqU5epfCbZpp3e/+Pm5/RJqAvH92vfFrfyz/Yzry9l5V9SWqYHldcv1X7LWmclar18yy23dOtzztFnfj4kxaY8HlxfX283QmPRb7JHLZNUcuX0/jfr9ySq/DP6jD9bHitfen1aoBBapuOnTJlyWIhWBf2uf2q5Ths3bpy1krxA5btdyb22erQnI7SPuFV//ylNsSr/aoy1ao09wJHy+DulqPwz1kJVs9gtEbUsiffNJWTl7PJsNnuEytPxKns/21Pln1GZ26C/t/4S36CJyr8KowIQhfG5X+r/yTryneVd6rupVHTbsCGDN65vm/CPzrbGb2w4tfH0dSdP6PUiaex1q5c639N5cS151KUyHw3h3XqwbeK4zrYJpyovvrC+rfG3ypeH0s4/kIqcHSysb7mTdNowVqeyc3vegKqnA9NCTS/P5XLWerdSnYQfpZPU3+pi53pd5NjjjP2GTlisj6LY9P6n0+n0SYWcWBRKJx0d+tzjNfWbESAtnzRZi4kWnaz+1pLyr5SPtWDU7C35WDw6Mf+ktrdrQzQx/f4V2pZs243d+s5ouTLaB1RlK2jtJ0Zq+RIP+qH3v1Nl5bYQRQK6CLJuDmJVxmq7/Yu2gRtDtBRs208yEElJHnUcPHiwPU4c+xiq8mnHwi9Y2Foaa/YlC8ehz7LKjj+HaLU4QdtfSR+/1G/8P5Unu8mViD4j1r7PWpNrluiYLzaogo2uWhLK4zs1+2/9pq35lNh0aEm9PoT7mh3fzh0+fPhE/b5rBsoovnHonNpaGsatuN2s88/PhnBJDBs27NuaPZKPFUf7sZdbC84Q7TPalmybeom20zeW4sY8KocKQBRkSN2Qq7Sl73iR7KJ6FzlrJfVB76MrU2l3f2frhHX2iGlnW+OH1506Ydb6E3ccSW7biM0XaJb4UdpKcS567+irl+6wg14/p+Ggda0TztDv/KqmP3a2TXg8F/m1+mvrV+x/deZ/vPLlRfm/3sFj24ZvpgKwxixZssRG7mrQgc5GsivL6HK70K/6B7TBP5R/SVs2fnLRokWrQrhk7E65XRSGaK27WxcmTbr4+4HCFevHTSfG1t/YsHyseCobf9cJZMn7ibVKLX12US0Zd8MGxag2dv72/1R2rUIkNuXPl5VPiVtdoodV/MV+XFzbbk8lVylpu7KRFTvyseKobNkAHklalvawQTxyuZxVmCSpjP+AjodH63N+ruUaEtKKdb3yw/r5rTaFDPJTNOXT/2j7XheicenwPXOfEC6Yjgm2z0zS91/7uHHjSlrhYnRstMdiP5KPJdLnxwRbt5qs8uUr1vIzJGP37DwlFuXzxTr/LOnTItYCU597SYgWq37Tpk1TQrhPaNl/qX1Mk8rfwpCEGkIFIAqyz9yOJ70uNkJ095wbo7NF61/uaynvbo3qtz65vm3C8s62CT/tbJ3wnsGbh052LvsG7TqqbsTLnXj/3Wy2+49a/uO0/J/U8s+3Ck6XTd2Xcu4K/c6PajpGP7qgkxzl388O+fl9Se88og/oANel88ZLtm/ffqQOehdqKvt61IG1TtMH9F1rdeFzjvWhF16qOV1dXa/Ub9nhZkAxLA/0/u+FaMnporIkj9z1JeWRnYTNCq0cKu3UMI9Fy259lZWlwnL8+PHW30+im04qezNnzJixf4hWhebmZnt8KMlAE5bv12q/VooKUkiLqKyMDdGiaF08oG335hAtKX229YcZx97Tpk0ryaOOdqNFy5HkRotdr/xO+TsjHy2OvvseHb+tlXLZW0RXC523PKnZeflYPMrvdHd3d9EtQfW+RMcEHZM/Uq7WbNrn/VDlIdFgKfp9U6yPwxCtOC3/qkwm85JQoYk9sPNnrbPYx8t0Om0jcpdD3H2zlcHYI6yXwFdV9N6ofYyNzI0aRAUgCpbx0Vd00CnqgOwil9E0UaG3aW/1Pe/TC3K51BKv9PAn1aw1lco8quW/Scv/eS3/KZrGhNeKYgOJZHL+hyGKGmWdYeugd14qlbJ+nuzOXdlbWekg3x/6B/zvMI/rh1YJG8J4HrsYqK+v/y/lUa8jRpZDaB0Sqz+u4B+hv6KysItI5U/SFp6prq6uWSHc51paWuzR5iQjGVqZWbp161YbcKxiLUX7u1wul6RC1kbmLAsdP2I/3m0DgYRgYjp2fk3l7vchWjT9jlgt//SddsNuTtzBLGrZ+PHjf6Xfn6gVoMp1Ufu+hoYGaw0edxAcs0zHhL+GcDnYPu9/88H4VB77aoT4f2mdvmbhwoVJW3cOGPfee6/dONjVk1l7pLy+txxPnxjtE+1zraK+aFquPumHUt/7XZ1rftyC+RTUIioAUbD9r1211iW4W/EMHTTr9DlJR94sv5iVfbvinL/O8i9EUePa29sf0AHwXToxnqGDYaWGr6/l/gFjtdoItmmfcWkIYxeUP59csGDB4yFaUdu2bXuF7dNDtGjafi4OwbLRSfZvNLsjH4st9gifpaTt/0jtd6w1vg6j8SjPH9Q6O3n16tWbQxJKQHkau5JY68T66yyLYcOGWV+ncW+glLKVUy6dTlsrvEp1pfEMG113QLaUshsgKpeJRvzU+1tCsCCDBg16md4T9zHtSh0T/qTvSVom+uqY8PklVTSITS0othL7uVSWy7ZvlpzKYdxHaCveAtWOI9p2zglR1DAqAFEUF6W/pB0AncwWwVr/OZ9O1FoD1claLulg+AptE22a7grJ5XaiTkhWNTc3f8X61gtpVauhoaFes4n5WCw39kXLtlqik9s+a8WVSqViXwRpm3m6vr7+qhAtJ7tTnbQSeXqY95np06ePUJ7ZoB8jQlLR9H5rDdWqber+fApKJKW8jf1IlrajsvWNbH1NqczE6mxeYj3SvDs2iJOW5a0KVqr1yM91jE48imwtU35bBWDsY4TK9eRiuiBJeEzoymQyl4doWSlfkj7W2SfHhL483tew2DehVSbL2m+9ymHclpwl3TcXQstq+23KXz9ABSCKMmr+8pUuct8NURTmcsu3EEY/pAsMuyhv1InCuzQ9FJLLaZCmj23btu3F+Wj12muvvRo0s+WNRfnJ6KTVLfbFnraZjgULFlRkBGZ913UhGFdft7p13d3dv9DvODLE47CT93dof7UgH0WpNDc3H651E6tiVvu4pzs6Osr6OJ++I9bjr/pNJX9ao729/bdaHuubs9yWa3pPPjhw2RMLyu/YLaBVBobed999o0K0EEmOCcsXLly4MUTLSt9V68cEFEjruqhWrM+VSqXK2q+yts1YT2/oN8W+EQjEfoQEhetsa7SDjPXZs0faEVw2Zv4q65enaj1y0hHDuzKZ1So+Fb/7UGu8jzZm0+mGg65eVjWDDNgozdrwbaCWPVJ5vErl8XUhigJY/zdDhgz5qPLu4zpAl7WFXi6Xa1iyZEnSRxvLShfGVtZij36tfHz54sWL/xaiZTF16tTX6STvVyFarCt18X5GCMcyefLkvTOZTOz+qVQOTlI5sNGqK66pqenJBCeiFynvPhbC5ea0rI9oWfcN8WLltmzZMmT16tVFjWSq8m+PR8ce/VTlf7TK/wYt+6e17DaKfmz6rC/os/rLiNdVRevnBK2fuP343af3viOEy0L7iG/qOyaEaDF+pm30rBAuGWsZPnjw4H9omZpCUkmprG/Ub25ZunTp3SGprLSd/0OzWBVfz2zjIVoWKp8/UV7HXo9670vb29sLuhmn79qgvz8gRIv1fZW394Zw2WlZH9Cyxr6WGTRo0Agb5TpEC6bv3a7vjdV1hsr1WTrel2tQiqK1tLScpTIc9zHzP2p9HxvCZRH2NU8rv2MNpKff9gadH5at2wL7fM2sVXSxOpV3RXdVlXB9bdd3xr6hj+pBC0AUbb9f37lJeywbtRF74qJPVlPlH8rP+tXSAfIzmUymZ6AQHWgH+iPzB4V5HDmdtHWEMKrMtGnTbICaJHeh4/Z9E4fXstpFelypoUOH9slNr6lTp75Wy35+iMY1b/HixXRFUT5JWmMfrOPEH8o5qfzEqfyzi9OyXOxZRXo6nX69guXoh9Lrgv2sSlX+1YhEo97mcrmC9n3Nzc1DVdaSjJieaDmLpWVN9ITB9u3b+2wkYBRm8ODBB2o9x6r8M3rv5c/fn5Zy0lfEqfwr274ZAwMVgIhl9PzVV/vIW8fq2A3vo9tHp4/6QYhigLER2jo6Ot6l4HQdqP+cTx2QDgzzoinfnlAePh2iqDLd3d2HhGAsWr8PhGBF6PsSVTjqInjvEKyYVCp1uCYb9CP2+Zp+99Kurq43K0jfPWWii8T+WhFQtv3vokWL7lLZfH+Ilow+8xvt7e3XhChE+5Ck3dAUtO/LZrNWEZ5kgKKKjmyb9Jig91f8mICisW8GnocKQMSW8umzdPSjddsueB9t9j71Zjd3LgOmDHCL847RBeKrFbU+iQYUnSDHfeTSxH4sFuWnMh27ctfoorTS6zfRY3b6vUNDsGK0/ViH+CPzsdhGatljj9SMgiRdR9WqrP2x6dh4qcr4FSGamD7r7yrr54UoAuVL0lHiC9r3aZ8+oI4JyteKHxNQHK2jfllJq/1c0Y+eA8+gAhCxjZq//OGcd3O0c+0KSfiP/xl77fJKjQqLGtDe3n5zR0fHVAXfom3mwXzqgBD7BFknOE+EIKqQLtaGhWAs6XS6ous36UWw3r9XCFZS0X38PJ+2o0OU19ZnFP0+l09flI2yq8RFZiaT+R9tW/eEaBIPZ7PZM3Sc5Zz0eZL0MRsUWgGY6JjQ1dVV0QrApMcE6ZfbfT/TXytpKzJYDvonKgCRyNhrV/5DlxR0Kv4cOqG4ZMz8ldZqA3i+nC5OfqH5a0pw4lkrkgyE8lSYowqpDCc6sXbOVfQEVhenSbc5G0W3opTHvw7BRJTXpzQ1NX0gRFF6/fIiU+Wv7BWAYdTXM/VdiSru9P43L1tGn8u7smnTpqQVa4Xu+xJtB/X19RVt1ZT0mKD9asWPCSiO1hH7ZuB5qABEYqPnrfqqdkXzQ3RA8z76878zpe/TBv2DDZqgi/AvK7hQJyX75FP7vfowL5pOcIaHIKpTohPrp59+uqLrV+UpUYWjttm+qJD+sKbV+WAyWv6vtLS0TAtRlJDKVr9sXanf9VAIltXixYtvV/m8KkRj0ftnhyCeZ/Xq1d2aJamsKqi/MZWXRC3iuru7E7UgjCHpTShuUlY57Rf65b5ZP6si+2b0T1QAIjHtWf22bMaGFS/FIxw1y0d+5fZcuq1x7urtIQnoMWnSpL2am5vPzeVya3XQPlfT4PDSQLAtzIumfHpBCKIKaZ+fqPVDfX19RdevylOSEYutg/tyjFi6J0+nUqnTldVbQjyJeu2Drp45c+ZAuflQSf2yQ3ZtM/eFYFnp+Dhdszn5WGznNjU1HRPCeA5t89YPWpKKkIIqurSfSjTQUDqdrvS+KdExQfvTvjgmoAjah/XLfbO2tYrsm9E/UQGIkjjkumVP5FKuVbukP2ivdPNAm2xE5Gwqc7zlQ8gSwC5q6nRBcnYmk1mjqLX8668dxe9WwpMvKgCrW6LWD9lstqIXezphTlSe6uvr+6TPnUWLFq3SdvTxEE1En3NQV1fXjy2YT0EpKF/7ZUsgbaNlH6l74sSJtl1a67/YrcUDu6b5ORXcO8vlcknPPQrd9w2oY4LO7frkmICi9NebMxUdMRv9CyeAFdDZ1nidZiflY73TweiyMfNXvSlEgZJb39Y4Vxv+aSHaK5XHq1QeXxeiKJxrbm62PP6ipkN7UspAJ/UNS5YsuSNEq1JTU9PPdaLy5hAtlt+yZcuI1atXl/Uu+9SpU1+XSqV+FaLFurKjo+OMEI5l8uTJeyfppF3l4CSVg+tDtGK0bt+gdXtZiBZN+5e2xYsXV6z7iJaWFmup/pMQLYrel9VvHVLsAAN2E0Cz2K3C9b2jlUc2UqXtU+xc4rU9LySkz/2gPvdbIYqEtC18TeXDHtfuN+KW+SI55d18fc/JIZ6Ylvsale2CznFKRdvmPzSbmY8V5znbeNlo3zdV37M4RIumY8wsHWPsN/ZK67JV63JeiBZNy/hG5UXF+tBWvpyh74w9CrXOT4bHOT9RPm1XPsUamV3r4iytCxvUqSokOa7KH7V/OTaEy0Lb5qs1+30+1q+coLy7MYQLlnB9bdd3Dgph1DBaAAJACengeqxO7toVtBYNZav8qyFJRjx2Q4cObQ5hVJkSDKoxI8wrQie9B4Vg0XSxtq7MFSF7Yo9bn6WpsyeWkH4P/QGWVqLHsVQ2rTJ9fDVN2Wz20HKXeR0rz9F3lazyz+jzTtXnviNEIblc7rAQjKug8j2QjgnySLlvTiI5lcmk++aLn7tfrJZp2LBhfwqLCBSNFoAVQAtAVBNaAJZHc74Poy9pqlQfRFbJ+F+6QHs0H61Oypf3afadfCyW8/QbLwzhsqAFYDzKt6OUb0kGqPib8u7lIVx2Kos3aXZcPlYc7Qv/vHjx4qK3bX1nqVoA9mhqajpGJ/9/UDDxDVx99r3ZbLZp2TK6rkhK28JrtS0kGbH5Am0LnwnhASEcM/+mKemjv7vylLaT5vb29jtDvKz0W6q6BaCW7yuafSwfK46Wb6uWzwb32GP/ftoODtZ28K8QjUObQUdLCJed8sVaK7bmY8VRvtyufIm1zmkB+KyytwA89NBDB40cOdIeA457zFygZXxJCNc8WgDC0AIQABLQwfQInURaa78Fmspe+acD9/2a3qWD8AxNVV35FyTtQ6qiLQJQuHBnPfZAICrH0xoaGspx8b8rdr4TuyzpYs0q3PucLjj/pHyzi/nE9JsOyWQyP7VgPgVxKR8TDYKmdfqqEBwQ7KaHfrPddCnX9r9XLpf7ZQX3L1VNeZ2kUm2ZpoIG9xgxYsR6fZeNOByL3jtZ66xiIwHr+2JV4JlqOSagd2vWrNmm9bw+RItm247O8Qdc/93o36gABIAYdAEzRicFF+siY6WiNnphWS+idRJij9acN3z48CMWL158icKJRturlFQqlaiPQv3uY5XPQ0MUVaSjo+NprZ/YHVHrAmrwoEGDYrXIK9a0adMmaWYjYcai37nH/q8qRfn2aS3P7SGaVGtTU9MHQhgxDR061FqaJXkccIbK6L4h3N85q3i2CugQLwt9ftOQIUO+EKID1qRJk/ZSXsR+3F/vLbii65ZbbrHKv7X5WPH0XRkdE04I0bLS9na4vm9UiBatmo4J2KOOMC+alUnNXpOPAf0DFYAAUIRZs2YNb25uPjedTlvF1tnh5KCctutE89vZbHZ8R0fHhTrB3hrSa8KiRYvWaPk3hWjRlL/D9f5Yj+igIhJVRGn9Wr92Zaft5+0hGIfX9l41F3vaD3SlUqkztV2UZARKrQP6A0woVHzE3ha0Dupyudz/hGi/1tTU9H7NKrVP/7DKdlkfMax2mUzGunyJ3apO+5lFIViogXBMsHy9LQRR/ZKuK9tnAf0GFYAAUAB7lEgXLmdv27ZtjaJftoqp/CtlY49Wzk2n00cuXrz4nBrupyunvFoawnHZ6Jo8plidkl7snWR9CYZoWYRHyuKORG0WL1q0KMlgNiXX3t5uj5y+Jx9LrD6Xy11pj2WGOGLw3ie6yNT732f9VYVov6RtvUXb/FdDtBJSytefNzc3vzDEB6K3hXkcyj5vfY4WI+kx4dU612oK0bKYPXv2YM2SVDTesXDhwntDGPFV5LwulUrdGoJxHa19iPVZCvQLVAACQO9SOvDPGTx48D91Ynqx4i/KJ5ePTrhv1nc1d3R0nN4fTjL1e/4SgrEoL5p04Xh6iKKKJF23kip3hcCQIUPeqe8YEaJF02+8JgSryuLFiy/Xsv0iRBNR/tAfYEK6yEw0EI/WwQEjR458Z4j2OzqOjtRvvFLBSvfLN1rbiXV6X5VlO5vNlq3S1yrSlOexB1pSvi2RokYez+VySY8JWuTyHhM2b978Fn1H7Erhaj0m9AWV3yT9AFfkptMhhxxildIP52Ox/V+YAzWPE70KKNcowA/NaRiW63KvyDk3w7lofx9VZkda03y0TaX+ERV9az1x85h5K/+Zf6F4/uzmuvWPbX+587nZ+twD9bk2SlpfeFwb8gNRLnXTqGtXLFa414MxowAXzh4dUh58TUHrP6wSbETVz3R0dMzNR/uHqVOnvkQXx0kfwVivz5i8aNGix0K8ZLR8jAIcn9M15r90MXVQiMd1pvLxihAuGS3bKC2bbVexj496/5FxRxNtLvEowM9nXRJs27ZtsYKH5lOS0fd9UN/3rRBFcWxbWKvykqRvu83anqdqe7aW5v2K8uZq5c2pIVoUlcvf6r02yFbsyjJ9xntUtn8QoiWl7TzJKMDXaLkKOicrktNyWWVckpHWY41OrXVtN0yPCNFY9P63a79rNyVKSnliFX92TNivJyEGnS9M1blI7CcblD/9ZhRg/ZYz9VsuD9GiqOw/pLJ/QIiWlZbz+1rOd4doLFret2l5Lw3RmsQowDBUAFZAqSsAH2ybOC7rc+dqR/YWRdkQk/B+uU/5L49uXH2lu6CwQRW8tpv1rY1vTTn/WQXHhuRqsTQXuY+Nnbfi5hDfCRWAexYqrL6sYJIT54Ipn20ghc+NHz/+J3Pnzs3mU/uPOXPmpNeuXfug9lmJHsNSPv1GeXRyifPIWnj+UvO45XygVwDaifW3tG4TDSShdbtJ29wsXfDZoDolEcrdTVq22H2Aabn+rBP+2KN7l7sC0Nhjlco7e8SpFC2r7ML0ZVoPxfb7BdG28CXl33khGteCYcOGHR36FewXtB28T7Pv5GPF0TZwv/aPE7u7u9+nvI09qIc+Z4v2lS1Lly61yp+S0u+LXQFotGyf1nb+uRAtCS3ThzT7ej4Wi3XfcVjobqAopdgOlCdPa3a08sVucJSKHe/tmuzEfLR4Wq7btUix17VR/vSbCkDl58maXZuPFU/HrsZFixatCtGyaWlpma11l6h1qt6/UfuiKbX8ZA4VgDA8Alxj1p/S8M5clFuhA8fZirIRJuXcJOdTv9ywfMLvHm49co+jgd1/2swhG1obr0i56KdVWPlnprjI/76zrfF8q6gMaSjQlClTGnQyc5VOSKy1WiUq/2zUyAvq6+sP1wnlJf2x8s+E3xW3hd2ztN87Ye3atZdYxU5ISmT27NkZnYjbiMoDtpVrKaTT6cQXI1q3NtjL77T9HRmSkkrdc889P9LnJhoAQPuCb4Zg1dLFYLvy7lMhmhT9ASag8vYDrYukFXczN23aZC2f+sU5uvaxzZpdlI8VzWsbfLsuuDcOHz78K4onGc1ziPZVV4T+36qKlu2z2vd9MkQTmzp16mtVDi2/YtP7/xin8s9onVkrqdiPhhrlyVBNN6n8TAxJSVmLyG9rHrvyz9TCMaHCer1BtSc63lhjlrJTWf6rZsvzsXhUHkdks9nf6FohdutRoBpQAVhD1rc2ft6lUrpYdUNDEkpFF4ndLr2ws+2og0PKTqxCLZPb/NPIVXdlgev5F32ms7Xx4/kU7ElLS8uBOjG8WCd2dnIwJ59aPjqx7tLskq6uLhvZ9zMLFizYkn+lXyvJHWudgJ21du3aa5JWUOgCabQusu2xskQjAaJnpGd7FOpv+VgiozXdpu3xv/LReOyxWF00XqVgks7vbTv9py4abgjRqrZ48eKvaXmL7ax/l7RN0B9gTNqf36+Zlb1EtA7epGPSr2bOnDkkJNUk/YaRmlm/f7FuWKtM/1DbYM8TDdYiUnHbpmO3qJVJmzdvttb91ejz2m/9MumxTZ/xFp3L2OPWmZAUi97//RAsmtaZdZnw+3wsEato+bvK0Sn5aDx6/1Dly2UKvjefEtu/VAbp/+85stlsotZwys/36XysJF1Y7IFXmY57I+K5jtL29VeVp/EhDtQcKgBrhLX8cy4q2d1B7Iob6336RmvlFxJ20HlKwzs0S/SoX4V9sfPUxpYQxi5MmzZtXx3Ev5zL5e5S9GydHJSkZVkv7I649e93lC4U37V8+fKknRLXDHuMRyd6C0M0Ea2nk9Pp9HKdNFplfFGVFDbKpi4GPqQTuJX6nEStw/AfWrffCMGkXqDP+o3W0aWaiu5X0Fq+bN26dZnWbay+xp5LZeRczQrqGqIK2HJaS4pS7VNatW9M9Fj3APZlleFStOaes3379sXaDl4R4mVj+0Wt71K1tHoua4Ub60JZeXiPtuUdbmTqMLJC6Z8P0bg+kPQmQ7kor16vY9sdWudvb2hoKOqR/smTJ4/ROrxcn2Gt7xJ1B6A8XqpzFHtUNjZ9RkmOCfo9NoDTfPtt06dPL7p/Tb3vOM2W6nPOzKfEp8/4hPLFbuAiWLp06SOarc/Hiqc8HaLphkq0qlOZtCdREvevquW1JxVs32xdG5S9LkXnNVzLoaSoAKwBD81pOEB7m7KOiIU856KGdHbz/4bos+46/tBBLpUquiPkvqTfktLR7oshiueYNGnSXjpwn5vL5azDdutPsxKPBFkfQUfr5PF0XcSszScNLCW4cHuW1tmBqVTqVzq5X63pY/b4dnhpJ+Hi9hit82+MGDHC+lu0fpFe0PMiSkJl2voAsjJeClapa5VZd2udXaWT37aJEyfudn3pYn6cnYhrHXeoTPxaZSPJIAw9VFb/3N7e/usQrQlaB/YolrWQSvTo3TOUj19R3k4LURTIKqk0K8lgE1oHdqH5J5XvS3vbx8VhXSnoc1+h7ebHI0eOtD5af6vkkl0X6HPfo1ncFvU5bYNvW716tXWTsQMtp1Wwxh6AQZyO/T+bMWPG/iFeVfT7bFCEHw8ZMuQe5eGXNc3Uetplf3H2OLO20WP1+k/T6fTdem/iSi6jz7Hz3UT7EW0Hv9PsT/lYcvbburu779Rvnadpjt3ADS/tRMeMg5Vv79Z0u953k5IOy7+SyAIdE6w1K3ZmfdDGpnV0hI7dVqH26pBUiKJbqFvlrfYdHwzRRLTMVjH9HZWxf2h6jcIlrVNRGT5Kn/tZTWuUN4u0/58cXgIS4/GOCkg6CEhn64Qvak/ziRBFmWkdPJXJ+AP2n/ufE8/O1objI5eyk+Oa4n2Uy2RyY/RbHgxJA34QEJ00Hp7NZv+qg3elTv5X62LjvL4cpKGK2CiZHcr7qSFeak+qzNqjR09qsseqh+u7xirtEM0TPQ7ViwE/CMgzdCE6S3n9dwXLcW5hF6P36/PtcaOntD7TCtsJ+OEKJxpc5vn0uU/rM5u1XmOPEv+McOFe1kFAnk/faX1UnZOPJWP5rf1l07Jly54ISSiAVVjX19db+XlRPqVk/qF1Yt0p/EnloqgbSXYjZMSIERNUtmcr+kpN1s+tPaL7XC9TuU90MW+0L5iq/dJt+q64N9e+qeWwQSx2ScfxKSqXC/X5sQZSMMrH3yoPT7BgPiU+bXOJBgEpwHYtrz2pYK2tNmmyroCsH+rxSfJgV/Q9f1C+WIVGYlYO9HntCpalwYk+2x65t2OCna/bd4xQflhlX6m3u20qbzOWLl26LMQT0XlQvxkExGg9v0nr4hchmtQCTb+083TtQ++1/j+tK4Tu7u5RShubSqVeou+ya+rLVE5j3WjR9mo3916bj5XMfZou1bLZTcgVVtmYTy5ISmXCzlNfqvAx+oxXKrzDExBK+7x+7/+FaGxaVwwCAioAKyFpBeD6tgn3usi9OERRAd7lzhxzzeorQjTqbG28UFtLTfapl4v8GWPnrXr2ruVArwDUQfZoHVitM+Bye0T594Xhw4d/rz+N5piUTrxeppnlf385/lAB+Bzavr6v7evdIVqr3q11+sMQTqQvKgBDRc8CrYcpISmp+coPe6S6JC0LB4qpU6cer4vV3yhYrsqPxzWzypVnbnpYJa3N7fusYs9ugNjgOocrfISmFyu+p24ueq14K8T06dOto3xbrlitrrS8d+rCf+qe+sbVtnWBZp/Ox+LRd52j7csGhkikAhWAFaH8sDyfqDwp2VMKOiZcpHL3kRCtVR/RdpFkROUd9LcKQNvmu7u7rRVxOfoste4tdrUPvV7rpKBr6+ebNm3aAdpHLdHyWmvbktN2tFUzqyy21uCP6nueUJqd49lvGaapZ9+suV3bH67XjlC815sl+pt/ars8KkRjowIQpiwnJSid+09r2IfKvz7gU00hFPhqHPG3IKnqHK24P3tKB9cLBw0aNF4H629R+bcjnTz8PcHJB6qcTmI/qvVrFRI1Sct+tcroxSFak9asWbNN6+H1Cj6VT0mM/gBj0EW6PXpYtgEntI730fQaTe/X9ClNVtFife5drOkrmqy1yAc1/29N1lJsj33cqvxbRW+imzO6sLaR1eNW/mU1va2QgbG2bNnyBc0SjeopF06dOnVSCCOKPlHKyj+zceNG67886XrqMyqPv9ExgZF/e2Gt9DSzvifLYXd1FcfYza4QLsqiRYvsqagzbX+TTykt7WsHa5qh6R2azlPSlzW3/bLtn7+h6bNK+5gm6yJhsuJ7bCmtvzmypaWlMUSBRKgArHLOp6i86QPORweGYNBzp6Ym6QBnj8mhzJTPVtF3SSqVOlQn0Ofddttt9pgOdkEnMh/VLHFHzKg+ulB6WtvC6ZrsgqDWLKivr3+z5jXf0k3r4Z9aByXp68hom6U/wBjGjRv3aa2Hmhk1VOv5wKamphkhWrTm5uZ3aZbkqYGLlixZUlBfoqtXr7bHYt+mKfZNNrvw1vTLWh9tuUSuspuWIVwydkNCs9dpPVmL1ZqiZV68detWa+FfK4NB9Rmd+16k/LKWb5Wy18iRI60bg1hU1v+s2fs11czxXvlb0NNbwJ5QAVjlvMs9HYKoJOd3zHfna/bgr5NbTlzKTAflm3XyM1UX3e8KdxbRC+XTk9ls9jTl2x5beaD26AJ+ufY7tn5rZrRELes/VSZPKqTlUa3QBc6PNbNRx0uhPpfLXWmPq4c4CjB37tzs1q1braVJLfUhHOsi0zqp1++M3VJK7121cePG80O0ICrjizW7MB+LR/uqCV1dXReF6EC1bNCgQe8I4ZKzGxKanaJ1XMkKokS0rNYS8sRdDUSDnbW3t9+jWUUHrNQ6SjSat3YfP9Bn2Gj/NUHLSgUgSoIKwKo3Yr0N5BAiqBhnnbn+h3ePhlDt8d46jUYZ6GC8UBfFs3US8Wqd/KwMySiAdaat/HujJh6R7od0wfcHXVjbiJTW+qOq2XasZT1aZbLf7Su7u7vP1mzH41lMyqNDMpnMTy2YT0EhrKVafX39qSpnV4ekqqb1XPRjwLNmzRqeSqWu0ntjDfoRjgNvCa3FirJx48bP6f2rQjSud7e0tMTqT6wfuKOrq+s15X5qQedJf9N6stbhVX+TRcu4NJ1Ov0zLXFT/qwOdtsUvKO8WhWglJKoANFrHX9Uyf0hTWR4HLiXtXyfY6MAhCsRGBWCVO+jqntYIt+RjqJSUd78LwR4+iu4OwZqTcykbOQ4lpBMFy9PTdeIwc8mSJZUYUKRfUt7NU16+TcG+vsnB4AZl0NHRcbVOWE/UOq7mx+Fv2Lp166u0rLV7k6cXYfTeN2gdlKqinf4AY7CWpTpeWOWH9VtX7fubF7dICBdE29APta3bYCOx6L1fVP50hGhRrNIwlUolehRYnN7/Y5XtUSE+IOg3r8zlcscuX7784ZBUVjrm22BVx2mq2lHFlSd28+oVPM1RPNsWs9ns6Qp25lPKS+vpyOnTpx8SorFp32Mtl0/Wuq/6rnv0m2kFiMSoAKwBLpX7eQiiEry/c//5K24PsR6pqGckv5rjfbTx6ae3/C1EkZBODh7T7LyNGzdO6ujosEfrqDhKSBcElylf7YSmVAMWFMv6IrTO8lEG7e3tN6fT6ZfYhWZIqgpani5NH9N2fFJ/f8RLv/FWzT6XjyWnCxD6A4zH60LzU5qfqGl9T0qVyuVyBV9kNjU1vVNlwlr7xqLtcKlmn8/H4tF+xlodfS0fi20/TXa+PVCujW7KZDIv1TG4IpU1z9A28DeVl5la70tCUlXQ8lgF8v9p+Y7XPtNG00YMy5Yt+5dVKis/K1KB2t3dfXwIJqL1/hstc5Omv4ekqkQFIEqBCsAaMCo1wS6Q20MUZec/6PRfiPQYNX/5SiX8KURrycWH31T8IzXYkbY/G9jgQh14x+vE8MI4jylh93TiNV/5+3JN94akitD3/UGzl+hklQFJymjRokWr6uvrpyv4PU193qWF1vsiTbNU7qzfrwFRiT9+/HhreVaq1sr0B5iAjiE36qK1UWXwx5qq9bGzgi4ywwi6SQaOsIE83qI8Sdxf6PDhwz+j2R35WDw6xr+6qanpwyFaEfr9vwjBitD3WV5fMG7cuBPD6K0V197efufGjRvtxtDXNfV5NyBahqWpVGq2yqFVRNPtUkJLliy5Q9vSDMvXkFQ2+p7EjwE/Q8u9RucFs7XcNoBWtbZSnTRt2rTYra0BQwVgDXBz52ZTqdxbdZlScyNo1R7/ndHzV98UIjvw2dxHtA5qpgNjLfG67u3uSyGCeOxEcK5OBhp0UnAed4XLR/lro+3ZxeT3NZW1Ukbr0yp0P6qvPE7rtF8++llt7BFI5fX7dLJujxb21WPznfr+t2u926P7A+qmmg1God/+RgX/nU9JRp9Ff4AJ2KPZKofvzOVyk7QvslGCq6Ui2pbDnhq4aM6cOemelN1oaGgYpnJwpabYI+jqt1+gbXF5iCZyyy23bNXnnaUpUaWqfs8XmiREK+E8fadVuJb9MVzljbW6m6l98Wdsn5BP7Rt2I1XbwEdsADUt180huaL0vQ9p9u7x48e3tLe335ZPRSmojN2/ceNGa+n5ZU3lrOQ95tBDDx0UwqWQU7n81vbt28fZsiveV0+n7MoaLZO15u+Tinv0H1QA1ohR19yxKhW5ExTkYrV8fjxq4iq767NLY69bvVRbzDtrYVAWLeNmncW2HvybFSW52BuIdJC9OZvNNukk5nRdoJSkE330zh7FVH6/V3k/TVM5Rs3M6XN/qQuOI3WCZ4+LDYjWX9VEF1lLtI5nh0eEblRSJdbBan3fWVu2bDlE32+VVgOyhYd++wPKh1KO9El/gAktXbp0tfZFp2m9TFDU+qHqq2P2Mk3naXqxts+Xa5l+sKcKoiFDhvzAOXdkiBZN2//C4cOHfyVES0LLvUDL9I0Qjate0y8nTZq0Vz5afto2r9FxqUFBayW9vSextKyV+5nKnxZNNnJy1dBvX6lFerXW2ytUJq5TUtn3z/qeuzS9S+XPyvsP+7oytL8KlbyfUNluVPRK5Xk58nkvrccZIVwyK1as+HdY9oO13B+1MhNeqih9rw1EY62sZ6isHqZl+jT9UyIpKgBryAHzVyzoTqWn6HJphwEqkJC1rPT+LaPnrXynu6D3E4/R16y8zDt/it5UvR0YR9HaXCp6qZaVx8bjadcB9xg7IbWRakMaKkh536Hpv3VBYI+NXqL1kehup95vfTd+TxfZR+hz32AVIflXSqLPH1+qRUuWLPmj1sUJVhmr9fNpJZV0W9NnPqDpG5peopPmRn3fz2w01vDygKV8mKfZJflYctpG6Q+wBLRe7lA5/VBdXd0Y7adsxOCfairnRd4d+vyLNT9T3zdG3z1F04Wa7s+/3Lvm5ua3a2YtSmPRd1trvbfecsstJd9/Kg8/rc++M0RjUbk+Qp+TtCKxKLqof0z5/z4FD9PyX6h5ohaB+gzr5/RaTSeOGzfuSH32FUqu2psfOi7fomPCKcp7+/3/q6nUFZWd+sxva360vucoTZdYq9H8Sygnrds7Vf7OyGQyL9Y6+IymRI8G6/0PabKy/Z50Oj1O+8+yPVVg26XKytc02c2Ol+k7L9SUdNTx3bLfptlVmr/PKk71vbZ//qCmhfm/AJLj0Y0K6GxrtDtaJ+VjvdMGf9mY+aveFKK7te7UCbNSOfc+rcFXK/rCfCoKpXzOqvi3OxfNTadzF+8/t7hO4NedcuS+zmXO1fvPUPTAfGrf8j5apeX56eant36vt37/1rc1ztWGX1D/Psqnq1QeXxei/UJTU9PROsHc6WRBv9UqhT6vg+2PNR+QLYSq1cyZM4ds377d1pu1Gnupko5UeJ/8qzvT32zS6zboxN8V/qPCf9LJ0277mAoXs7bei6bPv1hl5n9CNC43ceLE2P2p1dfXW8vJxH1o9TWth4OUny9TcKYmewRvnNZdIaNyPqL33aO/Xa3JOvC+1S448i/1Pa3bF4Rg0VasWGHdDpR0fzR79uzM448/PjxEE1P526by93SIonRS06ZNOyqXyzWrfNuj85NUvq01yhjN6/J/0itrXXu//v5uzW26SxeUd+qCefHtt99uF5mxzZo1a/imTZsyIVq04cOHd992221lG3HTjhlPPfXU4BCNzVoBhWCvtO/6h2a23yqa1s9oHUOslc8ObDvdvHmzVTgcr/Vt/eVN1Xy3261etxtl/9Tf2M3fP2g9/6mv+vgrlenTp4/t6up6qcrtSxS1Y8J4TXZM6PX6VXlhN/3WKi+sotvOA25dsmTJP+2lnj/oY0mOCdls9qn+cDNr6tSpo7V+rOVesyZbrwcqvr/mtl8ZqnVm12XW2MLK8Fqb9Prd2h8u0rrs86dyJk+ePCaTydjTKrb8TVq2QxQ+WPOh+b/onf72Ufs9Ct6p8N0hvELHUiunZWOPSw8ZMqSgZdyVQveJqG5UAFZAOSoAn+HPj1IPrGoYl+6ODohcar9U5GKfkA0E9mhsNu3Xd3en7z/kumWJW/HpTMKtazvq0HQubQeyF4XkivE+l/Wp6KFsKvOvg65eVtCoglQA7lgBqN/4uOJfGTZs2Le4G1w7pkyZsp9OvvbXyeAwXRwM03q0FiVPd3d3r1u+fHlRLSd08XauZtbXS9H0nXZn+KMhihLTRfDgLVu2jNJ63Ufb6WBNQ7TO7QaHVTg9oTLwSK1f5AJFSuni+QDte/bWvm+I7f+UVqftYrPCm7PZ7CZtLxvLUXmMXStHBeCu6HteqPU7Jp1OD7f9oVUGKbxJ88eXVHg0377ynGPCC1TerZJ36DPHBOXlk0p7pIP+mtFHpk2btq9m+2qbHK6yaH0T9pRP205VPjdqu33y3//+92YGE0RfogKwAspZAQgUiwrAZysAbfTBH+ogfb51yJ5/FQORLqqsH6qP5WPFURn6X128MdgOAAxQlaoABAAgKfoABDCgOOesRcTcdDptA0GcQ+UfdAE2JgTjsEdTAAAAAKCqUQEIYEDp6Oi4VdPpCxcuvDckAdaHS1w2uiIAAAAAVDUeAa6AcjwC/ODJEydmU7nXahUeqZX4Ir0zHV6qGO+ibc67ByMftXdn0tcX2gfdrjzQdtRhaZ96tT5zovPRAUqyPm3QGxc9pf8e9pFf5VL+D6OvXr06vNKrgf4IMPBcLS0tB6qcW4fSRR8P9b7urVu3vmD16uIGEQIA9B88AgwAqBVUAFZAKSsAreIvl8p9PXLu2JBUFXzku/XfT6Ourk+OueGuR0PyHq1vbXy13v0p59zLQxJiUtlpV7n4wph5K68NSbtEBSDwH01NTedo//PNEC2Kto+FunCzUeyAAam5uflfmo3IxwaU8zs6Or4TwhjgqAAEANQKHgGuIRtaJ87JpXMLqq3yz7jIZXQRfXZUX7doQ+ukxpC8W+tPbB7a2dZ4iXPR76n8Kw3lY4uLovnrWydcee/Jk/cOyQB2z46B784Hi6dt7pYQBAYqO9a8YKBN3nsbfRQAAKCmUAFYI9adOvFVOZf7pS45h4akquQi92It5+8faJ04NiTtZOWchnpXt22egu/Mp6CUnHOnD0pn/3LfCRPtQgXAbjQ1Nb1J28sRIVo07/1vQxAAAAAAqhoVgDXgoTkNw5zPXW6t7EJSVXNRNCoV5S4O0Z28oNv9RH90XIiiPCbX1fsrQhjA88yYMWN/zb6cj8XSOX78+L+GMAAAAABUNSoAa0B3t/uAi5xdrNYM59x/rz+l4WUh+qz1p054jV57Y4iinFx03PrWxjeEGICgubl5aFdX1zzti2zAoVi891fMnTs3G6IAAAAAUNWoAKwFLjojhGpLKvX6EPqPnDsvhFAZnwhzoGpNnjx5zJw5cyoykvm0adP29d7f6JybFZKKpvd3ZbPZ74YoAAAAAFQ9KgCr3P2nNezjIjcxRGuM32Fwj4dbjxyl2ex8DJXgXDTBRo4OUaAqpdPpi9euXbu+ubn5my0tLdNCcsk1NTW9JpfLdTjnEu2H9P7Lly1bZqOfAgAAAEBNoAKwytVlM6NDsAb4MM9zUTQmBHt0pdITnaPMVVounZsSgkDVaW5urtPs5c71dHNwjvd+YVNT0xpNP5w6derrJk2a9KKeP4wvpc86TpONOP47xQ/OJ8ej5duay+W+EKIAAAAAUBOojKlyLvLDQrAGuDDP81E0PAR7+JzboUIQleEj8h1Vbbpzbod9heLjNb0rlUr9qq6u7sHm5uZVmn6l6TMtLS1naJpqjw3PmjVrh/dNmjRpL712YFNT0wxN5+jvr9J8nT7rJk2vDn+W1JeXLFmyJoQBAAAAoCZQAVjlclGuZjuZd5HbYdlTUW5TCP7Hjo0GUR6bwxyoOt77V4Xg7tidhQZNr9N0vv7+Ck2LM5nMum3btm1sbm7OaXpc07a6urrNeu1+59wCTd/U38/R3LoeKAl99j83btyYZORgAAAAAOgTVABWO5d7OIRq0fOW3d0XAv+xY6NBlEHKR/eGIFB1nHPHhmBcthd5gab6nliZeO+3pFKpM9esWbMtJAEAAABAzaACsMqNeuHQTh9FO7ecqwU+uiOEeozKNCz2PnowRFEB3vunUpncLSEKVBV7ZFezGflYVbO2yu9ob29fko8CAAAAQG2hArDKuUs6ujSzjutrjq6YbwjBHm7u3KyLol+EKCpj7v5zV/MIMKpSfX29jRRe1pZ7JfKJxYsX/zKEAQAAAKDmUAFYA7zz3wjBWvLokMygnSr7BmcGfdFH0YYQRRl5H23sznZ/MkSBqpPL5fbU/181+FRHR8eFIQzgObq7u6e4/KA9A2rKZrM/ClkAAABQM+iBrQI62xqv0+ykfKx33vvLxsxf9aYQfdb61sZfOBftlF6tfOTfMWbeqp+E6A7WnTrxVSnvf6PgoHwKSk3lKOsif8bo+auvDknPWt/WOFcb/mkh2it9zlUqjzb4AlByTU1NS3QxPSVEq812Ldu729vbfxriAADspLm5+R+azczHiqPzrNGLFy/mxjgAoCJoAVgjsulh79Jpgp1g1AD/nd1V/pmx16z4o8+513nP6LRlsi3lUu/YVeUfUC2mTJmyn3NuUohWFV2QrdPsGCr/AAAAAPQXVADWiIOuXrClOzX8Vd5H/y8kVaNtunL+2Oh5qz4Q4rs15toV13mfalbw7/kUlISPluSyuZmj5q24NKQAVck5d4xm1XgMmltfXz+5o6Pj1hAHAAAAgJpHBWANsUrAMfNXvtlH/mU+iuZ5758KL/UpG9lXy/RDl00fOXr+qotC8h6NvXb5XaPnrTzaRf4Yfcrl+oyHwksozmPKu7nORyeOmr+yeex1q5eGdKBq1dXV3ap92JcVfCSf0re0LLdrOqajo+P0BQsWPB6SAQAAAKBfoA/ACihFH4C7snJOQ/1+Xe7A7siP8qn04JBcMRkfbd6eTj1w4IRlG9wFUS4kx+ZVHh9pPfKAbanMfs67F4Vk7I7rfizblXvooKl3PlhM/tMHIKrJoYceOmjEiBFWHt/jnJuVT60clfHb9L1f7ejosP20dkMAABSOPgABALWCCsAKKFcFIBAHFYCoVi0tLUfkcjnbV56g6aXOuUzPC6XXqenabDZ7ydKlS5flkwAAKB4VgACAWsEjwACAqtDe3n6nLoS+qukVXV1d1gr4TF0cXaz5PzTf1PNHMei9j2n6rabP5HK5aR0dHWM1vZfKPwBAUt3d3ac558bHmeTh8DEAAJQdLQArgBaAqCa0AESNci0tLYeoTE7UNEbxkTbpAuoFIWye1GtblfbvXC53n+L319XV3bNw4cJ78y8DAAAAwMBEBWAFlKsCcN0pkw53Lnecc36GotZaZp+eF7B73m2LnH/E+2iN86k/dmf2+osNrhJeLcr6Ew9/YVRXd4qCs7UlHaiNaVj+lQrz7jF9//2Rz/3Odw25ccwNHU+HV3aJCkAAAAAAAAYWKgAroNQVgOvbJrxUK+58rb5XhyTE5CP/sP77VjY9/BuFVgTedfyhg/YaMvhTeveHnHN7heSqYCMy6///Uxn6cUjaCRWAAAAAAAAMLPQBWEP87NmZztYJX4q8+yuVf6XhIvci59wX0tnN7Q+ePHFiSN4ta/U3bMjgPzoXfaraKv+MlusALdeP1rc1/tzKS0gGAAAAAAADGBWANcJHkduwz6MXR86d5xzrrdSUpw3ZVO5v6049ampI2ok/u7kuqqu/KnLRS0NS1XJR9GaVl2+EKAAAAAAAGMCoSKoRG1obPxU5d1aIIikf5s/hnBuZ8ukb7jthog0qsJPOR7d9xLnolSFa/Zx73/rWRlqKAgAAAAAwwFEBWAMeaDvqsMhFnwxRlMLue78cnRmU+2IIP+uhOQ3DXOTPDdHa4aLPhxAAAAAAABigqACsAeko9X7NBuVjKDfn3VnrTjly3xDtkc264/TK3iFaM1wUTd9w2qRDQhQAAAAAAAxAVABWOev7T9PpIYpKcFG9S6VPCbEeWgdV3+/f7nifq9llBwAAAAAAyVEBWOUebJ20n4vc/iGKClGeN4ZgD+fd6BCsOd77ml12AAAAAACQHBWAVS6b66bypg/4yI8JwWcMDfPa46O9QggAAAAAAAxAVABWuXRd5skQRAW5yD0RgoHPhkDNcc7V7LIDAAAAAIDkqACsco+57vWRj7aHKCrER9G9IdjDu+ihEKxB7sEQAAAAAAAAAxAVgFWuce5qq/z7XT6GSkn51PUh+Iw7wrzm+Fx2dQgCAAAAAIABiArAGuC9+0kIogJ8FC0cNX/5yhDtkY5S1ytd/6rc85bQe//I6LoJ/whRAAAAAAAwAFEBWAPGXLviushHvw9RlJH3Uc55/74QfdYB81bco9k1+VgVc2H+DOe+7ubOpQ9AAAAAAAAGMCoAa0R3On2Wj/y/QhRl4iJ/7uj5qxaF6A7SkTs3ivy/Q7TqeR+tyqaGfStEAQAAAADAAEUFYI046Opl63NR7jVR5O8KSSgh731W0ydHz191UUjaibUCzEWp0/XXT4ekquWjaEPG+5MPunrBlpAEAAAAAAAGKCoAa8iB8+64O532zT7yP/Ted4VkJOSj6I5UKjp2zPxVXwxJuzV23oqbo1zq5XrTmpBUdVQ2/ppNpaftf+2qtSEJAAAAAAAMYFQA1pj9567ePGbeqndHGX+ool+MIt9h/dblX0URHtX0qyjnTx09cWXjqGtW/SWfvGejr13R8XgmN0F5/57I+79Z68HwUt/x0VYfRTeoLLSNmb9qtrUYDa8AAAAAAIAB7vlDBqAMOtsar9PspHysd977y8bMX/WmEC2IP7u57oHHu1+U6uraL+XS6ZCMXchlos2DN2/Z8MKb1mwMSYmtnNNQv0/Wj9KHvzAkVUwu3Z3LduUeOmjQpIcKHexjfVvjXG34p4Vor1Qer1J5fF2IAgAAAACAGkQFYAWUuwIQKAYVgAAAAAAADCw8AgwAAAAAAAD0Y1QAAgAAAAAAAP0YFYAAAAAAAABAP0YFIAAAAAAAANCPUQEIAAAAAAAA9GNUAFaAj6LuENwjF7m6EATKwkVRfQjukf624LILAAAAAACqExWAleCjh0KoEK9ed9rEI0IYKKkHTm2c5KPolSG6R94VVXYBAAAAAEAVcmGOMupsbfw/5fRnQ3SPvPdZF7n1PvK0vkLJOOfqvI/GOFdExb/3Hxs9f9VFIQYAAAAAAGoQFYAVsKG18QTvohtCFKgZzudeNWr+6j+FKAAAAAAAqEE8AlwBm7ZsvdlrFqJAjfBPHLDfkL+FCAAAAAAAqFFUAFbA4Tet2eY8LQBRa9zV7pKOrhABAAAAAAA1igrACsn51Ge891SmoDb4aGsUZT8fYgAAAAAAoIZRAVghY69dflfk3I9CFKh23x497477QhgAAAAAANQwKgArKJsa9lEfRQtDFKhOPrpt85atnw4xAAAAAABQ4xgFuMLuP23ymHSu++8uci8OSUAV8Xc5nz561PzlD4cEAAAAAABQ42gBWGEHXb1svc9lW7yP/hySgKrgvf9rlKp7GZV/AAAAAAD0L1QA9oGx1/7zsX9ncsf7KPpEFPknQjLQN3z0eOT9x0Y//sJXjb566SMhFQAAAAAA9BM8AtzH1p1y5L4pl3mPgq1aG1PzqUB5+Z5/Ubum+d3b3A8P/s2Kf/e8AAAAAAAA+h0qAKvIA60Tx2Zc7jDv3JjIR/t7H2XCS0BizkVd2uIfdpFft72r+66Df31nZ3gJAAAAAAAAAAAAAAAAAAAAAAAAAAAAAAAAAAAAAAAAAAAAAAAAAAAAAAAAAAAAAAAAAAAAAAAAAAAAAAAAAAAAAAAAAAAAAAAAAAAAAAAAAAAAAAAAAAAAAAAAAAAAAAAAAAAAAAAAAAAAAAAAAAAAAAAAAAAAAAAAAAAAAAAAAAAAAAAAAAAAAAAAAAAAAAAAAAAAAAAAAAAAAAAAAAAAAAAAAAAAAAAAAAAAAAAAAAAAAAAAAAAAAAAAAAAAAAAAAAAAAAAAAAAAAAAAAAAAAAAAAAAAAAAAAAAAAAAAAAAAAAAAAAAAAAAAAAAAAAAAAAAAAAAAAAAAAAAAAAAAAAAAAAAAAAAAAAAAAAAAAAAAAAAAAAAAAAAAAAAAAAAAAAAAAAAAAAAAAAAAAAAAAAAAAAAAAAAAAAAAAAAAfSyK/j+34sK6b9J+SAAAAABJRU5ErkJggg==" parent="1" vertex="1">
          <mxGeometry x="204.71" y="510" width="152.53" height="45" as="geometry" />
        </mxCell>
        <mxCell id="LdKZ-aVJx-CH3_bbswVv-15" style="edgeStyle=orthogonalEdgeStyle;rounded=0;orthogonalLoop=1;jettySize=auto;html=1;entryX=0;entryY=0.5;entryDx=0;entryDy=0;fillColor=#fad7ac;strokeColor=#b46504;" parent="1" source="LdKZ-aVJx-CH3_bbswVv-10" target="LdKZ-aVJx-CH3_bbswVv-7" edge="1">
          <mxGeometry relative="1" as="geometry" />
        </mxCell>
        <mxCell id="LdKZ-aVJx-CH3_bbswVv-10" value="" style="rounded=1;whiteSpace=wrap;html=1;labelBackgroundColor=none;strokeColor=#b46504;fillColor=#fad7ac;" parent="1" vertex="1">
          <mxGeometry x="389.90000000000003" y="436" width="155.73" height="135" as="geometry" />
        </mxCell>
        <mxCell id="LdKZ-aVJx-CH3_bbswVv-3" value="" style="shape=image;verticalLabelPosition=bottom;labelBackgroundColor=default;verticalAlign=top;aspect=fixed;imageAspect=0;image=data:image/png,iVBORw0KGgoAAAANSUhEUgAAAagAAACKCAIAAABww0keAAAAAXNSR0IArs4c6QAAAARnQU1BAACxjwv8YQUAAAAJcEhZcwAADsMAAA7DAcdvqGQAAAASdEVYdFNvZnR3YXJlAEdyZWVuc2hvdF5VCAUAADpASURBVHhe7Z0HWxW71/bfb/ScYkelNwGlKaCCIFUFRcSKBbFi72LF3hVBERQEOyIgXUSalWKjd/W8t0wcZ2cms4cif3Tnd63rHNxZmZJJ7qzMZDL/7z8Oh8MxMLjwcTgcg4MLH4fDMTi48HE4HIODCx+HwzE4uPBxOByDgwsfh8MxOLjwcTgcg4MLH4fDMTi48HE4HIODCx9ngGlqav7w8ZNgHz996urqJgmcoUdDY6NwpRobm759+0Z+NQC48HH0097eASP/UOXr168Ll678vxHjBBs+1iz7aR5J4wwx2tvbbSa5Cldq1ZoN3d0G1EVx4eOo0dHRGX/thutU74zHT8hPqnDh+41ISEwSL9PN1DTyq2HAhY+jTFl5xdade6wcXIS2cf9hBklQhQvf7wJC+Bl+s4TLZO3g8rm+niQYBlz4OMps37VP1C8YF74/jNz8AmNLO+Ey7TtwhPxqMHDh4yizZcceUb9gXPj+MA4ePf7XyPG4RqNNrJqamsmvBgMXPo4yXPj+bNw8fYVrtCJqPfnJkODCx1GGC98fTF5B4Y8LZH73/kPyqyHBhY+jDBe+P5UvX77ODAwWLpCzu1dt3XuSYEhw4eMow4XvT6X42fO/RxkLF2jTtl0GNW9ZhAsfRxkufH8kX79+2xNzSLg6/44xLauoJAkGBhc+jjJc+P5I6hsaxel7IQsWG2a4BxSEr7W1raGhUbDm5maqaDo7O99V1xw7eTYweL6lndOwMaajxltOdJ26eHlkStqdpqbmL1++EFd9dHd3izuCyXf08tXr3fsPefoEGlvZHzxynCTIQGNrbW3NKyzatmsfLqqJlT26spHjLSY4Tgmev/jM+cvVNTUdHR29usZwVjm2rq6uqqpXu/YdmOrtP9bcdpiRKfa1fPW6x0+y29rbiZMMbKStrT2/oHD9pq2OU6aPMrYaZmRm5+S2bGXUg4zHOAXi13tQ5k1NTdCmNRs2u02fOdbM9p/RJqOMLR1cPBYsXn45LqGmtg7lSbwZtLX9vO6wddFbRf2C3bx1W5oKw7VGyZPMP9ArfJ2dXdXVNbEnzvjNmmtqMxHHiaOd5h2AMKSy6qXeg1QBxYurjI2fPHN+TuhCm4muI8ZZ/DvGxMTawXNmEHT8aX5BS2ur/JhZ4CpLz7edfWUVkeZtbGwiv6rS0dH59l31+UtxoQuXTXT1GGdui5psbjvJdap35NroW7fTUeZd/XuxrOhZCWodLg1Gu5lZOeRXw4MWPlSLJctXixV3ynSfuvcfSNp//6XduTd3weKR4y1FB8os7Z2jt+6sevmKZFDlSVaONK+4I9TgR48z5y5YMnysuZD018jx+w8eFVIpyisqIUDObp7iduQ2cpzFrJAFVxMStbcrKJR0C3XvyQ1gHFtefuGiZatGG1tJHQRDNfUNCrlz70G3TP2x67iExOkzA9HUqVww1EJoaPz1G2i6JIM2cL0Kioo3bN5uO2myMC1L0YzMbOaFL72VmqbyPmbk2o1ULnVznDLtzdt3JPMP1IXvUWZW+JIVikUHQw+KBp+dk6tdm0Ta2zuuXL2GzlisM4o2afK0HXtiql6+JNlUSb6VKi3SnXtiSIIGoO9iRth4CzuSwACqeu1G8ux54air0oyUmVg5rFi9LqcfQfSyVWuETbl7+n769Jn8anjoET5UlNdv3uJ39H7oc9SvimCoK8aW9mj8wgZVoIQPfRF+hLJciosfbaLTNljCl3QzFXGdSoOXGjq6ad7+6FFJZlUo4RP7xpzcPAs7J2mS3BADohIL/gIoPUTEQk+rYiPGmR84fAwlQLJp4Pylqyhtajssw/bDl65kRS6/VPjw+56YwwhCxSSWoW0/ePRY2JpGUEWnzvDXW7yCobZY2jmn39VfPwdN+JqbW8KXrtB4/DC0DhRmH0I/xBYIgYWNbN6+qw8dzB+DHuHDeKGsohJNZc3GLRr1RbBxFhOgSmSjDCjhS797Hz8iKMDYRPo7TC58GI8fOXZKvXtXtMnTfASFVYcSPow+8CMymtlOkv7OMgzfcHbCpjAIXbaSdLN6bbiRmd5yE8BQc9P2XVR2LRY0d4HiDIZfJ3wdnZ0798Zorz9jTKy13xksLnmOkSC1Bb1mZGZ7IzlF/bbM4AhffX0DBjdSZ4wJ7JzcfAKDQ+YvQgiMYbunbxDEWnowKNj9h472qo+EMxqRuIX+hI1/AHqEDxqE1n763EWpxKDxI2BGIZ46eyHmUOzyyLWKcmBqM1FdYijhu3A57v2HD1b25K14GHon74Dg6G07T5w+X1T8jGTruTm47+AR+ZgRahu2eDkqxNkLl0+ePr9p265pPgHik3vRMCosfvacbIsBJXzRW3d8+PgJA1Xhn9im3+x5aMynzlw4eOQ4Rr7YtegsGPqMd9U12NSZ85dQTYUfoWuoynsPHEGRxhyOnb9oGVqgmEUwBIylZeXCYaiwffd+eYxgZjNp6cooXJRT5y4ePHo8cl00mhDlg4NfsGSFvLf/dcKXkJg06sfwFq13uk/g5u27j586C9u6c6+Hl5/8Uk7zCazTML+sqLjEeiJZWEm0f8eYTvcJwC6OnTx78sz5nXsPYAg52sSachs53iI55TbZkBKDIHxQ3g2btks9EfBevBJf9fJVU1Mz6jnUqrOr63N9femL8t37ydNYwRC5pqbdIRvSwOfP9YiLhbxTpvkY+DqJeoQPQXVCYjKaK/7+a8Q4ZzfPxKRb8jaDKxR//Ya8jVnaOancR6CEb/e+g9Fbdwp/jzOfsHbjFuntRSkYCknvM6J2YriH+t3Q0Eg8JDwrKfWbNZfSCEgYhIx4KEEJX2BI2IXLV9GioMV+s+a9eUc3+Oqa2pCwxXAQs+CoDhw5hio71vy7JmKYCWVpa2sjGX6AYVpQSBjV8nHuKsEIGkPK7XSpoGNfKPyLl68q3sK7e/8hKrroLFjsiTNfdeOFDx8+VlS9FG1F1DqpP1qjNBX2+u1b+WiLEj4U+7XEZERw+Pvf0SY404pK+v4aTufR4ydObp7SM/pnlPGVq9eIB4NPnz/7BMwRs8BQK+bMW1iuNEUDZxe1fhMican/lOk+tXV1xEPGIAjf8xdl4vo3MEt75+elL0iaEkm3UkdIQhBLeyftr9k+zswyMrNBLpzUHQ0j/T8bPcKHumgx4fstrWFjTNdv2lZTW0v8ZKD6Vla9DAyeL+YVsiPukAulACV807wDJjhOwR8IAbLYd7jR3qwldQUGOc5+mkuSlYCKHT1+ysj0+1UXDAp18OgxkqwEJXxoMIgT8ceaDZsbGhqIky7CbdC/Rv1sKi4eXlBD/DHMyBTRcUeH8qMVqOHKqPXSNqY+n/5FeQUakugMm78oQv2BUk1t3Yqo9dIsuKyKAiEyINNZcFIWExzxx2hjq9iTZ1pamE+uER3PDAwRM8IgaiSNQeyJ09KeBsOOy1evqY9e0+7cg7iIWXB4MYeUH5qBQRC+uITrUrnfsSdG/fjByjUbRH+Mw4QbRFrAAEjI5eg2Xe9e/nj0CJ9guPwotS9f9N8KRXZxlpBgk6d6NzQqBGKAEj7BjK3sn5Uwx6GQ11WSCw/DtZcPuOTgSmPsI82InrOeIWGAEj7B/GfPo6IkiorKKulQXbQtO3bjyImTEuUVVbaTvou+YCjwvPxCkqYLSnjjlh2iJyxgTiirk5DS3t4hVRbsAkEfSVNiQIRPMLTtQ0dPqJcAyMzKkaoADHpN0mQ0NjZBvaXOF69c1XLHC4GkNBfqTwtjItEgCB81Z0hLId9MTRODPhweCpYkqIL6Ly5ChaEV+dWA0SR8HjP833/4SDz0gWELBqpiXlTlhxmZJE0XufDhQqL6kmQloCxCVCgYqn5c/HWSpo+Pnz5PnDxVzAtbu3EzqzXKhc/UeqLeO4MoPQRfVEbria5l5RXEgwGGqAuWrJDmOnbyLEnTBRdiouvPszC3dSyU3P1UJzXtjlQsfIPmqijmAArfVG9/9RsLAmicHl5kyRDBLl1NIGkytukuF7hqzUaVc5GCKz573gJp3rMXLpM0XQZB+OYvXCZ1e5L9lCSwweWePM3HZuJkwQ4cOablxM9dvCLsYqy5rSFP3xPRJHzqA0kKjPgQg0izhy9dSdJ0kQufl98sxbtUIlevJUqDAoyGVKI2OY+fZIt5YTYTXWsZMYVc+EIXLtPy3Ym4hERZxqUoE5LM5vylOGmuBYuXkwRdbqffk5bAitXrtQ9bENrY9AzYBYMI4jRJmowBFL7b6XdJsj4uXYmXZly8PJIk6PL5c73jlOmiG0bT1TXMmzBycnLzpTdVZ81doKgdgyB888KXSt3ir98gCWw6u7pwsm/fVQumpf63tbfbO7sLu5g8zVvlohsO+oVvhv9skqaZW6np0i2MNrFWbPmU8KGSXdZ3P5tqVOjuSII2Ojo6MPQWs482sbr34BFJ00UufOcYcQFFaVk5lVGYCqOXvPwCaa4ZfsrFvjgiUurW2957ZZTOjQKVL2kMlPA5uLjrHeSKvHlbLc3rzbjNl5ObN/7HwA2GToJ1/1SRurr30gdxrh4zFB/BDYLwIVCVuqFzbW4e+DVBvz8M/BHpn7uoqRr/8egXPpV3xVi0tLQOM/p51xn2QmmsRwmfMHWGpDEw1503k19QRBK08eXr17Ubt4jZUa1PnD5H0nSRC5/GfSEYoTIWFBaTNFXevH0nzYWIhiRI+Prtm4nVz0mORqY2Hb18x0v8voxgh2KZd4gGSvjWRm8haRrABZLGsxjUkwRd4q8niSEbLmLMoVjt2gqampp8Z80V92I7aUpllcK7HIMgfBhlS91GjDVfFLHq2fPSXp2OOhgQbNq2SzgRNJ/m5haSYNjoF76U3swVEnHXvVmjOOGIEj7EYqyBp0BNTa3UH9dS4zcPpZw6e0HatNZFb1WsZHLha9LWFSO2pTK2tGiqap/rdRTTysGFJEh4V10j9XGd5k0SNPMkW6fMEQCSBBkDJXwJiTovsehF+kKbme0k8qsu+yQTcaGAl+KYtwIVaWtrk44xzWwmKd4nHQThKyx6hr1LPWE4I79Zc6GJFZVVra1t6NsgXn2WQiideFtg26595FeDR4/w4RpkZGaRtN6AjkvcCOzcxSskQQIlfDODQljP1wQyHmdJ/Z3cPElCb7iZchs9n7iRsEUROGWSJoESPpSDopscxCxURo1VtqGxUZrRyt6ZJEjIyc2X+tg5uR85drJXtmGzznTZBUtWkE3LGCjh6+37Z2NMf840Zglf1IbNog+6sUURkdRpqtuBw8dcp84Qt4AgOlfpGfogCF9nZ+eGLTpXRGrY+/cVFnyDIiLXxhyOvZ50s6i4pFlbPyqSdue+cBbjzCfkFShPFTBA9AjfMCOzzKxsktYbqOf0h4+dJAkSKOGbE7pQXVwSrusM0wLmhJKE3nDvwSPpG6P+s0MVHw5QwsequHIo4cPogiToQ4vwoRJLffpvrEcoYECEb9gY0+ycXjwZA1qEj+pW+2kmVva5+QVk0xIGQfhAe3u7fCaAog03Mhtrbovh/8Ejx1VmRFJMmU7mrvsEBmtcJMYQ+FXCR802iDkUSxIkUMKHBkMSGJzTfe7JelisTmZWjvAigWDe/nO0CJ+J9USSoA9K+Iyt7EmCPrQIX/Kt21Kf/tvyyHVk0zIGRPjERQq0o0X45i/SmQXSTzOzmVhQpHAfdnCED2DovWvfQZuJrtLdqdsEJzdUBvVAATyVDBEOs+/nGiC/SvikgxGYlohv2co1JIEBNdcBESJJ6A0PHmWI743CfINCfiPhS7mt87i8/6bSmIey8FFzHvtp1g4uL5Reju6P8LW2tokZYXpHDKiE5RWVZy9cRlwmvtmtbkZmtgeOqK3lg2shPsr7d4ypymxwA0S/8D1+0hfho6qm4hxRWvhW6RG+5BSdeMfdy5ck9AZoh3QS7+zQ8N9I+B5mZEp9FkasIgm/gKEsfBGRa0Wf4b/sO2H9ET7qMZT2WyUAoonS3rn3gE/AHIjyeEu7keMtFINB1GTW2wGgprZWXLdmBTu0N0z0CB+KW8vKenJcPLzEjcC0PNXVK3xFz0qk/kamNuqznRU5fynuH8nk1eWr1+GUSZqEoSl8ZRWVUp/AkDCS8AsYysInvZGCvll9kZU+0x/hox5D9Ur4RBDNNTQ0PCt5npJ2J/bkGQQT8mBw6cqoTsb0+PS794VFlUaOtyx9oX+9H4NCj/DBLsbFkzTNoMuiOijFcu+t8HV2dv6j+y6n4vQrFXB21Bu7ew8c0TKdZYgIX2dnl3QujoOLB0n4BQxl4Tt74YpYwf4ZbXxWac5A/4GeSqvxlp17SIIGDh09LmaE9U34KDA0eVddTa2BZOXg0sh4F158H85/dqjKFxEME/3Ch3pM0jRzPemmdAujTawVV1TvrfABDy8/aRa9b3pQQDp9fnxRFIZg4dqNmyRNl6EpfGCG32zR5y/V1/j7yVAWvnsPHknX6F6/aZvi/Yp+gohJKnyr10WTBH1gIOKlu1THgAifAM5dus4QjrBCqft//eYtqjcc0FPGnjjd52mAfyr6hW+MifXH3qzN39XVJZ0WDwtduIyk6dIH4du194A0S9jiiF51ZaUvyoTaIJiJlcPz0jKSpsuQFb6TZ85L3TACIgnawOElXE+Kv35DsBvJKSRBxlAWPrRq6fqj7l6+vX0hoaCwWCyEhMSk6prvS8ZSZGblSIUvMHg+SdBH8bPnUm2CKQpf3fsPKFXRWMudUbS0tEpXqYA9UnrvUJywibBD8dGNgaNf+GAro9Zrec1e4PGTbOl7lOhwWEuG9UH4nmTnSBsGlEtxIoIi7e3tAXN0lgv09p/Duks4ZIUPbV66+I3rVO9Pn3vRLSXdShXzwlTm8W3duVfqeUfbA4TBET7sZW7PQoeCQZ5up98jaRpoam6WrqOBa6Q4j6+0rFx6Y8HUeqKWT0Hh2Hbujflb91aPovClpt+V+mh/xcXjx0LKgqXL7sJDUsVFjHCmPNyTo0n4RhtbJSbf0lJ8yD57Xrg0r5Ob5+f6epKsSx+ED+pALbqLMYWWd8JwYFSshNbykP2K/pAVPkS40vmuUJaDR7W+TF1X997Z/edDJ5RAxhPmaznS7zPA4q/pXzgEoJwHQfjA07wCqSqhuLSs1y9w63a6dBL75GnKnUd7ewf10atLV/Tf7y4qLpF/NEZR+DBElfqELWJ2QlI6OjrRpqQZn7+gRy03U24LqxLgEufmKWg6R7/wCc8TxllMyC8oRCrxUwJRYcSPj9cJhnJH78fK1QfhA7dS07FZaUYIQWsrvaS7FEg29oXKJ801d8ESkqzEkBU+kHbnvvTBNNr/9Rs31S8NQLRCLc0yzScAR0uSZZw+e0HqvHHzDpKgyqAJH6De35jmHaCyQrgAakJ+YZF03WbYEaVJpgLSuBJmZGar8pU+bPz1mzfCR1T+1f2WAOsen7nt9+WpRVO8W0dRUvoCxSJmMbOZKP/iworVZLXtqd7+5CeOLnqEb9gY0z0xh4X7Yvjvrn0HFB+kov2gPqHGU5KE1vv69RviJKNvwocjjNqwWbojqEBo+NIn2U8VP5v77l31oaPHpcNDmJWDi/qqokNZ+DA8X70uWuqMEli/aduzklJF+Wtra7t7/yEicWmhjRhncVU1iEN5is6w0SbW6Xcf6H2GMJjCV1ZeQT3idPOcmXA9SXGE0aNKbxEdY8Sqm8VXZfmJomclaAKiMwowMHh+QVGxfPTT3NKCXU+aPA1uI8dbIuaSfvaTJXzbdu2TXpSQsMUfPqqt+NvV1R25Nloa6i5ctoqq9jgdIeSE2+lzF8ivHF30Cd/3CcxZ4mr9KErUm6C5YecvxWVm5TwvLXual3/63EXfoJBxFnaU6qFfzcnNJ9tVom/CB+rrG/xnz5PmhRmZ2Xj6Bh09fiojM6v0RTmqLIbnEavWWkxwksZHgl2+ek1RI0SGsvCB9o6OWXN1lhHGpUFL8w6Yc/zU2fsPMyCChcXPUtPubNu513HydPk3vJeuXKPYT4i0t7dTA72x5hOi1m9C8eK65+Tm3biZIo81BlP4sK9ricmis2DDjcwmOLqtWrMRVx8HiZqQlZ177uIVBPgIr6iaYGnnhACKbE4JCBz1GRlUcqjYvPCl2HVufiGyP3j0eMeemImuU8WJ8QuXrUTZSmcgsISv9EWZjeQpDS6ik7sn2pRcWAGCzYDg+dJwdcQ483v36QUlDx87KaRa2jmXPFc7O0NGv/BlZmWjfs8M0vkQjF4bZWx56qye3qbPwgcQeLp7+VJSq8UQ+h3T8CR0iAsfQAlA6KVZNNrwseaLIyIhnWRDbBDsq5Rwrz4orh3twieAfpe6iaHRsPEbyQqfDKR4/CRb/FqFFkPQJ8xaDVu8XPyRJXzgUlwC9Qi456uqc/YdPJKYdAu6dis1/cTp84jsKLeR4yx27j1ASWRzc4tYGojx1fs2Q0aT8OF3NDPxq7J6DaH+xSvxrC/2i/RH+EDd+w+RazdS92vUDXXiRnJKd7f+OV9DX/gARvErVq+Xx7MqhgsaczhW4zcJa+vee8zQmTgptSEifNjjzZQ0agCrblBzL99ZiIgVAyuK7u7ui9+/LKqpkLHZisoqIaN0qryK8OH4EZhL4z4tNtbMFoGFvCZLX+v8RS+0/BloFT6AWhK9dScuoUoUgNgbTUX926Ai/RQ+gKO9nnRzguMU6RJ7csMBo6LMXxSh+OFdRX4L4QOo+hi2m09whMRIs1OGEhhjauMTGFz18jXJqY3ComKMBxW1dYgIn0BjY+OCJctxlVUqJ2yYkamptcOufQdxfUlObdxOv2ft4EpNUhENOzUys4mIXFtf/3MunvTpkIrwCVRX1/jOmovj/1vyeVJFG21ijSaGMTLJKaGrqwuNSHCzsHP6FZO6/xh6IXwARYl+8tDR4yHzF9k7u+Ma/D3KeLiRmbmto+fMwPWbtt1MTdO+5ld1da10eci+vRQMIGfo8zdu2YGqYzNpMkbZOCpEghjVOrl5Qu8Ox57IzS/QPhURoJ+XHhvGUyRBH1+/fZNm1DveF+no6JBmZH36S5HPn+vRAazduGWG/2woJroBlACGQoiDXDxmhC9ZceDIMQiQluGtnJrautgTp2fNW2Bl7zJyvAW2PNrYChHKspVrPsq+nYbeMe3OPfEsYk+e6e27JSdOnxOznzl/ifyqga6u7vyCIuTCFcd1H2cxAXoNg5pYO7jMDApZs3FL3LXEXn2WSATnhUHP0eOn5oQuRB0TShg1DZ1uYEgYhqV5+YVU/FheUSmeyKkz+qsBshcUFcN58fJIN09fiL7QviBiJlb2jlOmhy5cCsnOyMxiLTyO3xOuJwl7ZH1MhiPQO+ETwBWCiKDPbGlpbW5uacb/WtvQbrV8ePfXgSPv7Oxsa2sTjwqHheE2DpWqkX8q6JY6Ojpbv5dAC0qgpwB6SqC7u58lgOydnV2SLePPts4hWbBC5cRZ4+RxpEI1wOEKC7gTp77yvRy+1/yfJfy9HDo7B7AcsCl0uuiicNBCTRbOwKBq8iDQF+HjcDic3xoufBwOx+DgwsfhcAwOLnwcDsfg4MLH4XAMDi58HA7H4ODCx+FwDA658H07HHsiYE6oYLPnhau/xc3hcDi/HbTwcTgczh8PFz4Oh2NwcOHjcDgGBxc+DodjcHDh43A4BgcXPg6HY3Bw4eNwOAYHFz4Oh2NwcOHjcDgGBxc+DodjcHDh43A4BgcXPg6HY3Bw4eNwOAYHFz4Oh2NwcOHjcDgGBxc+DodjcHDh08OpMxfE9ailZmRq8+HjR+LE4Qw9uru/dHd3k39wdOHCpwcufJzfjta2ths3U5aujHpeWkZ+4ujChU8PXPg4vwtt7e2v37w5cvyUtYMLqqixpX1uXgFJ4+jChU8PXPg4Q5/auvfnL8WFLlxmajNRrKJc+FTgwqcHLnycIc7VhMQRY83/GjmeqqJc+FTgwqcHLnycIc7OPTFU5RSMC58KXPj0wIWPM8ThwtcHuPDpgQsfZ4jDha8PcOHTAxc+zhCHC18f4MKnBy58nCEOF74+wIVPD1z4OEMcLnx9oO/C9/Xr1wcPH2/YvH2G32wHFw87J3dv/zn455Psp1++fCFOfeLbt2+lL8qPnjgdvnSlu6evnZObnbP71Bn+iyJWHT99rqrqFfHrB09z87fs2OMTGIwjn+ji4e0/e/3m7XfvP+zs7CIePxgo4WtqakpMuhW1bhN2OmnyNNtJk53dPQOD52/ativtzr3Wtjbi97+gs7Pz/sOMrTv2BAWHObt72Ux0xRH6BARHrt0Yf/1GQ2Mj8ftNaGpqvhJ/benKKHev75UHZxQStvjosVNv3r4jHn2lq6vr3sOMLdt3B4WEuXh44SI6TpmOglobvTXpZmpDw68qqOqa2tiTZ+aFL5081Tv2xGny6w9+kfB1dHSk3E7fsGmb36y5jm7TUSucpkz3mzVv/aZtybduN7e0EL8BJa+gcOvOvShSXDs0GfLrL0BH+NDsqbITbE7oQuLRw4ePn06cPmdp50y5CfbXyPFu02feuJnS0tJKMmgDcllRWYXr6uTmSW2TsinTZ546e+Hlq9eQSJJZG41NTZfjEtASqA2KZu/sfu7C5fcfPpAM/Ra+xsYm6FroomXDjMyoLUgNW4uIXJuRmfWL6pMibW3t6ADWbNwyzmICdTxSwwUNmrsg+VYqrjvJqQu6uhHjLKhcgqEvrK9vIH5KdHV3z5q7gMolmK3jFDEvWhqVCjMys818ki04APTEZeUV23buHW9hR3mKNnvewnsPHkHoSR5ttLe3Y0eRa6ONzGyoDUpt5DiL+YsisP36BrVTFkBtN7X+OdlYNI8ZfsSjx6egqHjx8sjhY81Fh+2791+9lij+s7cWMCeUbJ1Bc3PLw4xMdBvSncoNV3zBkuU4Wb1y39HRSeUVbN/Bo8Sjp+u9nnQTfYmYOsrYSksx9hlNwoduE41E8HleWjbdJ/DfMaaUD2WoBFHrN2sXpi9fvx44cmyC4xRqOyz7e5QxgrWTZ853aK7EL8oqvAPmDB+rJkCwv0eO9w0KefX6jZCrz8KHM8/JzZsZGDJyvCWVl2Wjja1CFy6rqa0jm/iV1L3/sHRFFLSDOgaW4Yp7+c2CNJP8EqA4B48cp/wFQ2lfTUgkfkpcuBKPS0nlgo0YZ34l/jpxYggfrlT89STi8d9/CYlJWuoPLtyKqPWfPteTbPqoqHqJizLWXGtBQS8gLsXPSkh+BizhQwfZ2vo9YkCpXopLkL6JIdgvFb7SsvLg+YtGm1hRuViGo0W/hfEZya8ES/gwnhOGhhhSIDIYOV6n7xwSwofSr3r5fYBZXlGpXZtgURs2a1kfAo0Qgz4qrxZDMBK1fpOWKKmy6qVKoCc3c1vHV2/eImPfhA9nnX73/jhztUiKZRDK7Kd5qPdkWwMNtlz0rIQVsKsbhOxGcgpGfGRbEmb4z6acBbO0d25ubiZOuryrrjGxcqD8BUOH0STJpSh8MMR3SEX7geopCqiiodosiohs7+gQNs4CBVVc8hxDPCq7FvtnlPG1xGSVys8SPljO0zw4II5GR0glwX6R8OF4snKemlgrXw51Q3O59zBDUDE5LOGb4Tfrc309BtSr1mykkmBDQvjGmFo/evwEJ4beQP5mjIohTEi5fYdsncHnz/VQvV5tlrL5i5bV1b0nm1Pi48dPXr5BVC695jd73sdPn/ogfBi+nTl/SW9oqWIY5aEWks0NNJlZObaTJlN71G7DjcxwdvJajlEPKyxC59Qt84es7N5/SFGtxphYFxY9I349sIQvKCQMqdi19iBFMNS3lWs2qAwXcHg3U9K0B3pyG2cx4eyFy2RzMlSE79jJs69fv7W0c6J+F+xXCB9ONjH5lvpAXt2gmKyWzhI+jCNfvnqNXIrXbkgI379jTC5fvXbu4pU+yJPvrLkt7IgMscPUGf5Ult4ajmrNhs1kizJQw8IWL6eyaDFs9sKVq30QvswnOWi6lH9vDaFQfb3W4Zh26usbLCY4UvvqrY02sS59Qa93hMaDsTPlKRgkIPtpLvH7AY6EFe6dPHOeOP2AJXxmtpMQMvR5uHDx8lWyAxkYIiDqp7L01v4ZbXI7/R7Zoi4qwrdgyfLorTupH0X7FcIHARpvybwxqtEwvvmo1CJYwoeRTW5eAasPHhLCB/ObNVf7/SCpDR9rXlSsfL8Dqrd7/0HKv2+GwOFSXLziLUXEqn0bcsIcXDxWrF5P/SgYS/hqauscnN0pZ9GsHVwRpCxZsXrZqjUhYYsdp0zHmIjyES186cq2dnJrdUBobGzyC5pL7UU0Y0v7mUEhiyJWRUSunb8owt3LV+VO7qTJ0+RPLT59rp84eSrlKdji5ZHSq4MxYPiSFZSPYBgyYwRE/H7AEj7Yhs3b9d5xZpnHDD8E9WQfEj7XN/S/PxYMgZu8kwAqwocwU35rT7QBF74PHz85uzMfJ6KbRBZcvohVa+eFL3Gd6g01p3xEm+E3u7mZjnJYwgdz8/SlfhFtqAif1Gwmum7buTchMelmatrpcxf954Sq17yVURvIDnQpr6hUjz4cXKfuO3gEu0lITN68fbe57STKQWrossrKK8imJSxfvY7ypGysme3qddHQzdS0O5fiElat2SCtdqzLrCh836OelcpRD7azLnorulbUDFR6eLa1tVVX1xw9cZr1+Gw8AqUcOlDqDwjbWVfKJyC4oLC4oaERkgSFQmV9/+Fj2t37KoPiI8dOku1KuHP/Aaos5QnDOT6WPBjBAId1Sy417a68A1MRPqlNcHRDPYm/dgOX8vTZC/PCl6o/TMdFSUy6RfbxA+x92659lCdlQXPDUPNT0u6cvxS3YPFy6sa81IThiLxHVhE+uY02tpobtuRQ7ImrCYll5ZUDKHxfv33bsWc/5SPawmUrX5RVNDU1d3+vsd/a29tr696jjbCem6O00VrJpn+gInxys3ZwQXGdOncR2qJ4K3mg6J3wQSOgRNRsALRh1EvWsAWG8T98iLeEtRu3UJ6ioX2i8kEaiGsPKEEUyohxyjKBGoYs1I5aW1vHmDLvXOA6Ra6LlkdVHz58XL1uk/ptI0XhKyx+ZqbUV/81avz6TdtYt7qhRyMY2re15+b9gIAhoU9gMLV9GMotKHg+UomfLlk5uThTKotgnr5BiIyI3w9wyRYtW0V5CmY+wVHowxsaGxWPBIa8imG7XuFDlBRzOLa1lZ4Oib7QdxYzyIV5zPCn6kzVy1f2TsyY3d7ZHWMI4vqDwqJnU6bPpDxFGzXesraWvgetRfhwadDxHDhyjAqj0BA+SYjeojwuHmdhd/f+Q+L0A2py3Ju37xwnT6MywrBrhOSdDOm5dTudpfUYzVCCpUX4sDtv/zkPHj1WvPq/gt4J37mLV1gynH73vuJDKMFe9zwhlYKuY4yp8o0wlAKiCcVCb2ltxdCG8hfNxcOLmm2LDpnykdrOvQfkTUUAHRy6dBXtUxQ+HLZiIIN4SuUZIi42a0CNESVx6jeFRcWK4Q+ipMqql8RJieOnzlFZBMPQuLjkOXGSgECedZsc2oTQIeF6kqLQu7h7sSb9qQsfJPXOvQesNlP3/gPGaFQW0XC9XugOFC5fTfh3jHKYP8bE+kn2U8UdoYa7ezEHbhgnEr8f6BU+tILA4PkVlVUkA5v+TGDGsO1fpTGNm+dMldssKAF0yVQWwTAcRIRI/HrQK3yolginfunAVk4vhG/ugiXETwlIUhBjJirs7r2HxO8HJ86cp3xE85s1D9WC+MlAvG3GHvMWFBYRvx48ZzIf5k6bGUicGHR1dy9g3IeCKQofK7hITKbHUxT3H2YMM1IehCreSewDq9ZGU1sWDGNznClxUgIBEetZTXIKPa4RuJGcgnZLOcMQSUEWFS8fan8ce8afivBBuY4eP6UeKTQ2NqnMSoGyE78eUM8pB9FiDv2ccysnMyuHNZEb1qjbJesVPgyhNM7o7I/whS5cRuUS7NDR48SDATpL1sm+KNeZ1qcufKgnO3bvJ66DiFbhQzQnzulVBDVv596Yv2QZBaPupKAtBcwJpXwEQ/u/cvUa8WNwJf46lUu0Tdt2Eaf//mtqbmYNIYePNUtNv0v82BQVl/zNeJAtFz6MFhVvb2EUVlBYTJwYFD8rYd3B1HKceoG0sV7POBx7gjixYd3p373/EPHQBRUpNHzpXyNpfxjr9hCiG5VXlFSEz2KCY917tclMAPUNrUtRi2ELliwnfj0P3FjhqpW9M9ow8VMCo42ZQSFULtEw6iR+PagL3/Cx5g8zMomrPvosfJ2dnYr3MRBD30pNJ04M6ureO7h4UBkFuxSXQJx6UBc+jGneVdcQ10FEq/B5+c1SmY0pcDkugXXH+vzFK8Sph4+fPk1yVX78Z2rtUFZRSfwYVNfUKt5Kgzm5eRKn//57/qKMNWZBcctH33Kg5o5TplN5BZMLX87TXMpHMJSJpZ3z9zeO2WZp78x6inLk2Cmyg35QWVlFbVY0NA/qYOTG6j/kIziRp7n5rFsZckMJqb9IqyJ8q9dtIk6q3HvwiHVbappPAIYRgltBUTGVKtrajVsEHxY9ff8BKpdoh3Q7GHXhmxO6UD2GldJn4SsqfkZlEQw9BKJyqg5Qhgh6GONB2bZd+8gOelAXPkTrxG9w0Sp8q9ZspO4By0HtZLXeE6d1RhOQNvSflI9gds5ueudwoGtFZaUyCvbPKGPxLuSjx09Yx4OeGWNzwU2dNRs2U3kFkwvfqbPKM/76aTv2xJAd9IN7DzKozQ6IzV8UQXagxI49zCBLamg/x3WrhxwV4bujG0mxePXqDWtWk4vHDHFSy8Ur8VSqYDiRS3Hxgo8KSezjXKP7BqeK8KHSxl+/Qfw00Gfhi792g8oyIBa1XqcrUhE+dHiNv3IlAhW0Ct/WnXv1dkGpaXdYQkPdRskrKGQ9BfYJCCZObNra2kLCFlMZRUM8KLjdTEljRaDhS1Zo7FEPHD5G5RVMLnwbtuygfAbEqP6zb/RnAoSKzQtfSnagRFtb+8xA5tBPNE/foE+fPpM8DFSET8vtf9DS0sp6H2ui69S376oFN9bcjuFjze7ceyD4qFDIDhgXLVslnQ6hInwmVvZ5+YXETwN9Fj5W3e6nrVq7keygBxXhQ/xBnAYdrcK3J+aQfuFLv6tR+LJynrJuOakHEQIoyoWMOROw8h8j5WuJySzhi1wXLfjoRfubG8tWraF8BsRiDsWSHfSDsxcuU5sdEFscEUl2wOBJds5Y1XnvuEBaBEVF+N7ru8EngPEK65kYBm4vX70W3NZsVA7wR5tYZ8hmsciprHpFZRQtNHypuNIHUBE+qRBroc/Cx3oy20+L3rqT7KAHFeHb/r94rCHwvxG+J1k5rHFH+NIVxIlNR2fnogim8JWWkYdKiORZwrc2eqvgoxftwrd4+WrKZ0BMukhJnzl97iK12QGx6C07yA4Y1NTWqrwVAIOgKL47QTEgwsd6BU0qfKvXbaJSBRtjai2dgM2i6tVrKqNocxcska66qCJ8k6d5f9a8eAzos/Bt3r6byjIgRq0YqCJ8p89eJE6Dzv9G+HJy84wZ7wYGBs8nTmza2tsxyKIyiiZW4sSkWyzhi1i1RvDRC64ilVcwufCtXqc8X6Sfxnrhr1ewbl31086cv0R2wOD8pTiVd/IEQ4Cg5fYxlUu019qWF4XomDKGug4uHuKjlU2Ml2RHjrO49+CR4KNCcclzKqNoYYuXS+dyqgifxwz/Xq1l2WfhG6gXRil78PAx2UEPKsKXkPhzVbFB5n8jfCXPX7BeVnNy89T7+LixqYm1CBJMvF2aduceS/iCQxfq3YvAFkavKBc+1h0Te2d3UYv/V6Sk3aGOSjQkEaeBpqyi0oTRtqWGEWh2z0JMKqgIn3z5A0Vev37LGmQgJq17T5aePX7qLJUqGCrS9aSbgo8KqHJURtFWrF4HsSN+qsI33SdQfMqshT4L37mLV6gsgiFjXkEvbjKqoyJ8t1LTiNOg878RvuqaGowvKB/BzCc46p3Xg2rKeihsYu0gHufT3HzW8Uyd4a9lhAV8ApRfrpIL321Gpbd2cNE7QedXw5q4AOvVA0TtNDQ2enj5UftimZfvLKkoyFERvoNHjhEnVe4/zGBNZ3H38hOXdIQblSrarr0HBB8VYg7FUrlEo+5nDQXhy8jMorIINtbMNjPr59LW/YQL30+6urqmeivPiR053jI1Tc+U3fS796lcomFAQZx61rlkvZNvYuVQoLvimyLvP3xknZFc+OobGhSdRxtb5eTmE6f/ES2trayiwJUlTgPH12/fjhw/ySo6RcOwS0X7VITPxd1L7yrcOJ5d+w6w5tYEzV0g1u2m5hbW3E83T1/1IXlra1tQSBiVSzSqgxkc4XuqKnwYGyleo2FGZlrCW41w4dNB5YnS8sh1KjWso6NDZckg6SsiGMxaMFZzhOl9/x9VU2WVDrnwAVePGZSbYBhAEQ8G6Akys3JS0+7I7UlWDnHqH0GMReuom+6KvCgrp45KMMRHxEOXisoqxXU0/x1twnrIO97CLiubufaqivANNzLTO1pvaGhgTUSHQXOJXw/QHcpBMIx2WYvrCeQXFKks1UFNuxkE4Rtrbpulb3Wf6TOVT3bz9t3EgwGOH+dL1QfBqHdOuPDpUPL8BeUjGjaCoRnx0wXHcOzkGcpfNHRx1Adx1qxXfkgHQ/+fr/tiL8X3esxeiVtR+FiPySa6eKgHC+UVlawFoCIimW9H9Irb6XepLQuGtqq+SAFgBTLeAXOIh4Surm6WyswJDS95XsqKPWfPC2eVkorwwdy9fBsbmfNgUWfUlyajupaDR5W/HwJDfWB9cenr12+srybBUCDE7wcDKHz7DhyhtiAY2hGaJHFiwLqnaePgiiMkTkp8/PRpynQfKpdgIWGLiVMPXPho/Bmv68IQF6TcTqdWgunu/nI5LkFFjJasWE2Nep49L2U934CZ2066kZwiv8AYsyCIYL2KKJii8D3MeIzfKU/B1kVvZT2qQwwbtX6T4kAMPz6WfEisP2C0O0lpASIYdO0joz0jaj57/hLryaz8dTr47z94lHITbPhYMyEAQdel+LYTThZJitVMXfhgM/xm5eTmyx9Y1dW936g6sdzawQXVnnj3UFBYzFoHFEc4N2yJvJ+orqllra8D+2e08YNHOg86wQAKH0u8YGGLl6t/Ug6xPOsx48JlK6m1jkSwzd17D7BaVnLKbeLXAxc+GjRplS+QjTGxRteByPnlq9cVVVXXEpNnBgaPYvsPMzKj3gMHOOZpjJGLYKNNrHwCgqGnpS/KqmtqEGmePnfR23+Oyo4EUxS+trZ2b8bjZjT1tRu3yNdBqamtmx26UHFpIJjrVG/1jlc7KApIkmJlRXv2CQyWv7wMRd6+ez9rnVSoQ/EzelkqBHSs1RYOx54QArpPnz97+c6iUgXDvnJyFZ7w6hU+GAbLaOc3U9MwqHz3rvpJ1tNtu/bZObmx6qRgh2XLqaIVzF8UQbmJ9veo8VCKzdt35TzNe1ddU1j07MDh2ImuU1X6V7/ZCqsNDaDw3UpNp7YgGupVwJz59x9m1NTWoqYVlzx//ERnNmJnV9cSxvxT1ApoX73s65H19Q3LVq1lhe32zu7UBye58NEgBmEtWtkHE79WR3H+UhzrIuk1nA4rwFQUPpCbX8AK+mCWds5ojUk3U+8/ehx/PQlSyKr9MEj5xSv63w/VDqQN9ZLai2gQjsh10fHXbyA8Qae9c0+MynqcMMTX1CKDrW1trEV3fALmSIex6XfvsS7KrHnh0u+rCagIn+2kyaw1gfSazURXxXckysorjK3sKee+GXrW23cU7gwOoPC9efNWRXYpky89X1L6gvUaFczMZtLGrTuuJ918kJGJ/27atos1oQKGw9gTc5i6X8GFTwGMGlSeP2g3jHRYHzZ+/+GD61TlZw56bU5o+OWr16gfBWMJHzh19sJw1RXPNZr/nNABX50RHX7/P4QEM5/gSE1ORHVnrU2CspIvyhS9TXmqMEbE5y7SHydTEb6MzCe9+uSp1HbvP9jdrRxQ37iZorKwrnbbumMPWj7ZqIQBFD6UvPZPp8qFDyTdTFFZPV+7Obl5yr93yIVPmZcvX6l8WkWLoc+Xj7mkZOXkoqlSufTaWHPbbAxn3lWPMlYY9qoIH+KglVHrMVKgsmg35LV1nMy6j95P4uKv97OWIxp69ryUbO4HKGTWl7qWroj6Kqs8bW1tLoyH4MOMTCt7vuMsoiJ8tXV1e2MOaw95RHNwdldZoae7u3vHnpg+bFY05F24bBXZnIwBFD5w4PAxjfVNUfhwMOgD1O8J6DVLO6dapZVTufApg80+evxkImN5Pr02dYb/Uw2z5BC4qcTzckOtPRx7squr69PnesWAUUX4QGNTEyKaPusLaqfeJ619pqOz88yFy+prB6iYnZMbwjdqOAOZYD35RTCCMiR+EnDd46/dYH19ODAkTBrtqgjfe/Dho8oTVUWb5h2gd548pDnmcGyfCypq/Wb55+JEBlb4KiqrNIa9isIH0AfsO3hE/TszKjbV2z+fsdouFz4m2HJDQ0Nw6MLeRknhS1awHkdSoKFe1bz62PCx5pfiElA1kbGtvV1xeW514QPQgoTrSb3VvmFGZnsPHG7VtlZgn0FplDx/MclV+SEvy9AZLIpY1dDQKK8Je/YfUrx2OH2VV1zRr7A+d/nvGFPpQr7qwgeH9vaO4PmLqCSWObt5qS8nLoKCuv8wQ2V2nqKNMbWOv55EzUmgGFjhE3oRajuKxhI+gJO99yCjt8Ovf8eYbNy8vbm5maUPXPj0gBEitMlv9jxjSz33lU2tHWbPC0+6lSpok3aKnpXMW7AEY1hqg6KNM58QNHfBw4zMr1/JyeKst+7cQ7nB9AqfwKs3b9ZFb3WcMl19HIFUxLxLV0blFahNLRxYPn76BJFFyKxXnTGKgawkp9zu6lJ4wTnzSTZrSLg4IrKV8TkngerqWkvGzXIre+e3P9YO0Ct8oKmpOeZQrJObJ+sROczBxWP7rn3iC2oaQUS5fff+ydN80C1RG5SacBFXRm0Q1wdSYWCFTyDldjoiWfXhuYrwCVTX1G7Zsdt1qjfrDRbBsBfEmPMXRWC4RoX/FL+B8KGRZ+fkKtq7av0LhNXXN2Q/zaMyClZbp+mzKaCpuflZSen5y3FLVqxG6Y81n4D6BBtvYYeat2zVmitXr5W+KOtt3RVBxuJnJRjGogZYTHAcZmQKs5jghH8ePHIsv7BIPtsOVSH7KX1GuXkF6l26CEK/t++qHz56vGP3ft+gEGsHlxHjLFBvILIYNvrPDt29/+Ddew9ev3krn4Ym0NzcgqhzZmBI30x9iYQPHz4+zc0/HHsiJGyRvbPHaBNrxG74r/VE12k+gRu37Ei+mVpeUanSFDFmlJePYHq/hgHKyiupXKKJ4bwW4QOowChqNKcVUet7Ko/tP6OMR463nDR5GjqVG8kpCPR621kKoG2jDmdlP91/8EjQ3DC0+VHGVriII8aaoxb5BAZv2bEnveciatw+DjWvoJA6X8FKnpeqSwkLbBMaDSWK3rpz+sxAE2uHYWNMcZBGZjZWdk7TfAKWrVxz9Rrzi04i2HtNTe2T7Jy9MYcDQ+bbTsLJWqJWGJnZ2jpO8QkI3rZr3+20u1UvX6l/pkoAMQR1gqKp3Ar41egIH2doUt/Q0J/nP/IHEb8dGoWPw9EIF77fAC58XPg4AwsXvt8ALnxc+DgDCxe+3wAufFz4OAMLF77fgC9fvla9fFVeUdk361D9DPZvARc+zsDChY/zG8CFjzOwcOHj/AZw4eMMLFz4OL8BXPg4AwsXPs5vQFl5xd4DhxVNZaEBDocFFz4Oh2NwcOHjcDgGBxc+DodjcHDh43A4BgcXPg6HY3Bw4eNwOAYHFz4Oh2NwcOHjcDgGxn///X+Qw9ioYgcAAAAAAABJRU5ErkJggg==;" parent="1" vertex="1">
          <mxGeometry x="395.9" y="450" width="147.48" height="48" as="geometry" />
        </mxCell>
        <mxCell id="LdKZ-aVJx-CH3_bbswVv-5" value="" style="shape=image;verticalLabelPosition=bottom;verticalAlign=top;imageAspect=0;image=data:image/png,iVBORw0KGgoAAAANSUhEUgAABQAAAAF5CAYAAADAhoftAAAABHNCSVQICAgIfAhkiAAAAAFzUkdCAK7OHOkAAAAEZ0FNQQAAsY8L/GEFAAAACXBIWXMAAA7EAAAOxAGVKw4bAAAAGXRFWHRTb2Z0d2FyZQB3d3cuaW5rc2NhcGUub3Jnm+48GgAAACF0RVh0Q3JlYXRpb24gVGltZQAyMDIzOjA1OjE5IDExOjE3OjQzW2xX8wAAb6tJREFUeF7t3QmcHEXd//GumdnNQQ4EEXIAknBuNtfu5jCKUUTheUBgF4KINyo+nniDjz4i3ijeJ3ihfxAhkIAgouKBCoZkN3eCQAICyYZbSAI5dmfq//3tFEhIspnpnpmd2f28X+l0Vc3OTE919VVdXRUBAAAAAAAAAAAAAAAAAAAAAAAAAAAAAAAAAAAAAAAAAAAAAAAAAAAAAAAAAAAAAAAAAAAAAAAAAAAAAAAAAAAAAAAAAAAAAAAAAAAAAAAAAAAAAAAAAAAAAAAAAAAAAAAAAAAAAAAAAAAAAAAAAAAAAAAAAAAAAAAAAAAAAAAAAAAAAAAAAAAAAAAAAAAAAAAAAAAAAAAAAAAAAAAAAAAAAAAAAAAAAAAAAAAAAAAAAAAAAAAAAAAAAAAAAAAAAAAAAAAAAAAAAAAAAAAAAAAAAAAAAAAAAAAAAAAAAAAAAAAAAAAAAAAAAAAAAAAAAAAAAAAAAAAAAAAAAAAAAAAAAAAAAAAAAAAAAAAAAAAAAAAAAAAAAAAAAAAAAAAAAAAAAAAAAAAAAAAAAAAAAAAAAAAAAAAAAAAAAAAAAAAAAAAAAAAAAAAAAAAAAAAAAAAAAAAAAAAAAAAAAAAAAAAAAAAAAAAAAAAAAAAAAAAAAAAAAAAAAAAAAAAAAAAAAAAAAAAAAAAAAAAAAAAAAAAAAAAAAAAAAAAAAAAAAAAAAAAAAAAAAAAAAAAAAAAAAAAAAAAAAAAAAAAAAAAAAAAAAAAAAAAAAAAAAAAAAAAAAAAAAAAAAAAAAAAAAAAAAAAAAAAAAAAAAAAAAAAAAAAAAAAAAAAAAAAAAAAAAAAAAAAAAAAAAAAAAAAAAAAAAAAAAAAAAAAAAAAAAAAAAAAAAAAAAAAAAAAAAAAAAAAAAAAAAAAAAAAAAAAAAAAAAAAAAAAAAAAAAAAAAAAAAAAAAAAAAAAAAAAAAAAAAAAAAAAAAAAAAAAAAAAAAAAAAAAAAAAAAAAAAAAAAAAAAAAAAAAAAAAAAAAAAAAAAAAAAAAAAAAAAAAAAAAAAAAAAAAAAAAAAAAAAAAAAAAAAAAAAAAAAAAAAAAAAAAAAAAAAAAAAAAAAAAAAAAAAAAAAAAAAAAAAAAAAAAAAAAAAAAAAAAAAAAAAAAAAAAAAAAAAAAAAAAAAAAAAAAAAAAAAAAAAAAAAAAAAAAAAAAAAAAAAAAAAAAAAAAAAAAAAAAAAAAAAAAAAAAAAAAAAAAAAAAAAAAAAAAAAAAAAAAAAAAAAAAAAAAAAAAAAAAAAAAAAAAAAAAAAAAAAAAAAAAAAAAAAAAAAAAAAAAAAAAAAAAAAAAAAAAAAAAAAAAAAAAAAAAAAAAAAAAAAAAAAAAAAAAAAAAAAAAAAAAAAAAAAAAAAAAAAAAAAAAAAAAAAAAAAAAAAAAAAAAAAAAAAAAAAAAAAAAAAAAAAAAAAAAAAAAAAAAAAAAAAAAAAAAAAAAAAAAAAAAAAAAAAAAAAAAAAAAAAAAAAAAAAAAAAAAAAAAAAAAAKIALc1SBx+c0j3yqe+uL086Nyflo/5RzdeEl9DM+8vumomisd1FX5HzH485f2Th39fbwMgAAAAAAQMlQAdjHNrxx0l65p3JnaU2cEkX+5S5ymfASBhAf+W79963R81d9TBulD8kAAAAAAACJUQHYR/ycOekNXXe806eiT2sljArJGOCc9zceMGnVa90FUS4kAQAAAAAAJEIFYB+wR323ZLde4SL3XyEJeA7/s1HzVr2dloAAAAAAAKAUqACssPUnHv7CqK7+FueihpAE7IL/zqh5q86hEhAAAAAAACSVCnNUwMo5DfVRXd01VP5hz9z7O1snXBQiAAAAAAAAsVEBWEEv6HZfdM69PESBXqmsfLizdcKXQhQAAAAAACAWHgGukA0nT36xT2f/qeCgfApQGO/9Z8fMX3V+iAIAAAAAABSFFoAV4tPdn9aMyj8UzTn36c62CZ8KUQAAAAAAgKJQAVgB/uzmOs1a8zEgDve59W2NnwgRAAAAAACAglEBWAGdj219ZRS5vUMUiMVF0Rc7Wxs+FKIAAAAAAAAFoQKwApyPpocgkIh3qa+tb2t8X4gCAAAAAADsEYOAVMD6tsbvKaPfE6K98j7a6CJ/7Oj5qxaFJPQDKgMrVAYaQzQRb/WAkX/v6HmrfhCSAAAAAAAAdosWgJXgo/1DaM+c/x2Vf+iN62lU6r7X2Tbx7JAEAAAAAACwW1QAVoBzkQ0CUhgfbQshYLd6KgG9/0Fn24Q3hSQAAAAAAIBdogIQqFHORSnvo5+tb5t4ZkgCAAAAAADYCRWAQA1zzqUjn/vFutYJZ4QkAAAAAACAHVABCNQ4qwR0UfSLda0NJ4UkAAAAAACAZ1EBCPQDzrm6VJSau+GUCSeGJAAAAAAAgB5UAAJVxvvIh2BxXFTvnZu7vrXx1SEFAAAAAACACkCg6jj/pP7/UT5SJBcNdpG/bkNrwzEhBQAAAAAADHBUAALVxkfRqPRR7/beXxZSiuPcEO/c9RtOnfCKkAIAAAAAAAYwKgCBKuTmzs2OzjS8NfLRFSGpSG5oLhfdsP7UiUeHBAAAAAAAMEBRAYiad+9bDh7c2dr4f51tE34akvoFqwQclTnqTd77q0JSUZxze0W53PUbTmmYHpIAAAAAAMAARAUgatr9pzUcOmjjsCWRiz7rI/frkNxvWCXgvzP+TQrG+m3OuZE5537feWpjS0gCAAAAAAADDBWAqFmdbUcdnMmm/hg5d6T3/ql/p3M3hpf6lca5q7c/ns7N8ZH/TUgqilUCRt7/YX3rxKaQBAAAAAAABhAqAFGT/Jw5aR+lfhW56KCeBBetsIqynnA/ZL8tmxo+J/L+jyGpSG7vKMrdtOHUoyaEBAAAAAAAMEBQAYia1Nl9x0dd5GaGqPl3mPdbB129YIvvGnyS99GfQ1JRnHP75XzqT52nNTSEJAAAAAAAMABQAYiac+/Jk/d2zp8XooHbNwT6tTE3dDwddQ060Xv/15BUFBe5F/mc+9P6tsYjQxIAAAAAAOjnqABEzalPd384/0jrf7goGhWC/Z5VAg7asu213ke3h6SiuMjt7yL/hwfbJo4LSQAAAAAAoB+jAhA1xZ8fpVwUvS1En+WjaOzDrUcOmErAF960ZuOQzKDj9LsXhaQiubE57/+84eTJLw4JAAAAAACgn6ICEDXlweUNr7DKqxB9ltO/7lTmVSE6IOwzt+PJ7dn0a6LId4Sk4rjooFwq+xcbTTmkAAAAAACAfogKQNSUXJQ6PgR3lov+O4QGjEOuW/aE3951vI/8ypBUFOeigyOf/sN9Jx0xOiQBAAAAAIB+hgpA1BQX+eeO/Lsj509+fE7zyBArmp8zJ12LFWFjbrjr0ZRPv8r7aFVIKo6LDqtLZ/700JyGA0IKAAAAAADoR6gARE3xzk0JwV1wQ7d2bzsjRIpifQtu6L7jclc/2IWkmjJq/vKH093Rq3wU3RGSiuPcEd1Z9/v1Jx7+wpACAAAAAAD6CSoAUTPuP23mEBdFw0N0l7yLzgrBomxYMeGLkfMHHXT1svUhqdR8mBciViXkAdevfCjn3Wu89/eEpKK4yE10dfW/v/+0hn1CEgAAAAAA6AdqsrVTrelsa7xOs5Pysd557y8bM3/Vm0IUz/FA68SxaecfCNHdcj41cdT85QX3ibehteGYnEvdrMz/uvL+oyG5pNa1TvhLyrnZIboHXv9SP/EuuiskFCXnc/vru96vjbsuJBVFZbB9SGbwsTbISEgCAAAAAAA1jArACqACsDQePHnixFzaLw/R3fKR/8aYeas+HKK9WjmnoX6f7tQqbQmH6n0f1Pu+FV4qqc7Wxsv1HWeGaPXz0ZK6bNfs/X5956aQAgAAAAAAahSPAKNPrDt5woHrTp0wK0QLks1Ee4dg73z0RqvYC7Fe7dPt3mGVfxZ2uWiPrQvj8t79JQRrg4umdmfqrgwxAAAAAABQw6gARJ9I1dVtdbnor+tbGy+99y0HDw7JvfI+V1AFoHNuv32y7rUhuls28IeP3MdD1AYYKaafvqKMnrziZ95HuRCtCcqM/+psnTItRAEAAAAAQI3iEeAK4BHgXetsbVxsLc0U/PWoeStPUWHstQKus22C8sX9IkR7pXy8Ufl4QojuUmdrw/GRS/02RPWe6I1j5q+8PERLrrN1wrLIuUkhWhO0Qq4eM2/lnBAFABRhzpw56Xvuuef7IRrHxzs66I8VAAAAydECEH3GO78mBE/a0DrhIyG8W967wh4BzjvOBg0J4V3yUeodIdjDRX5kCJZFLpt7awjWDOXJxBAEABTpnnvusfOss+NO3vuhmgMAAACJUQGIPuN89FAIRj5y529onfSiEN0Nf3AI7JFzLp2Kcm8O0Z08+NrG/fV5O7bKdNGRIVQWY399xxLNaqovQOddQY9nAwAAAACA6kUFIPqMd+7ZR9AVGuaj3P+G6C7pzw8LwQK53Y66m8341+rz6kK0h4/chBAsm1EvHPQaH/mHQ7TqZb3fEoIAAAAAAKBGUQGIvjQ8zHv4KHr7hjdO2itEd+b94SFUEOeiCRtaJzWG6I5c9JoQ+g/vm/3s2ZkQKwt3SUfXIJ9q9j7aFJKqmouizhAEAAAAAAA1igpA9B0fHRRCPXpaAW7JtYboDtaf2DzUR1GRLQCjKBflzgjBZ/k5c9LOu1eF6LOccyPXv+Cxso96+8L5K9Y9tWXrWO+f7QOxerno0RACAAAAAAA1igpA9AlvVUvOHxWi/5GL3hhCO/CDtk6xfv1CtHAu2qkC8MGuVc1K3ydEd+CcPz4Ey+rwm9ZsHDN/1WHeRefp1z0dkgEAAAAAAEqOCkD0ic62xiNc5PYP0eeafdfxhw4K4Wc5H8VqmeeiaPz6tsYdB/dIudkhtBMt0+t7KicrZMw1Ky8cNXHVyJz379X3Lop8tEXzXHgZAAAAAAAgMSoA0Sdc5F4egjty0eBhQ4fMCLFn6e+PCcGiuci/MgR7+Mg1heDOXHTY+lMnvCTEKsJdEHWPnb/q+2PmrZw+ev7KoZqnH0/nhm/vSo0rx+Si6LfhqwEAAAAAwABQsZZOA1lnW+N1mp2Uj/XOe3/ZmPmr3hSi/VZn24TLVPzeEKLPd/7oeSs/G8KRDczRuc9jjzkXjQhJxfHRT0bPX/mOELPvvlPf3cuAIv7y0fNW7fJR5P5gfVvjXG34p4Vor1Qer1J5fF2IAgCK0NzcbKPNb8/Hiqd98OjFixdvCFEAAAAgNloAouJsEA4fRceG6C74KSHQY8MLHntp7Mo/0Xc9OxLwIycdMdx7d2iI7pL30enrTp5wYIgCAAAAAADUNCoAUXEPdq+avZv+/3p4v2PrPO+iRC3QnIuerfDbnkpPVrzXcu+cq3Pp6H9DFAAAAAAAoKZRAYiKyzl3egjukg3cYa0ELWyP/+r/gh5X7cW+9582c4gFvEsd1pOyJz56+wNtRxX2twAAAAAAAFWMCkBUVE+Fno/aQnTXXDR4Q3blWAs+uM/jrc65/XrSE3C5J3s+z0XRuJ6EPbBWgCmf+nyIAgAAAACCWbNmDW9paRkXZ2pqahoVPgZABVEBiIrq3PfRVxVUoefSPX+Tc/6jPfGEMlEqVAD6gioAezg3p7N1wrQQAwAAAADI9u3b53jv18aZdD34/8LHAKggKgBRUS6KChrhOOfd3htaG47R308PSYl458bk54W1ADT6bqf3fTlEAQAAAAAAahIVgKiY/Ai80Skh2ivnsvvlnPtWiCbmvA/NzN3B+XlhXBQds75twnEhCgAAAAAAUHOoAETFdNWl25xze4Vo77z7hItcY4gllvPRAf58K++++P4EfURfgAAAAAAAoGZRAYiK8T715hDcIxe5iSFYEs5F+29YNWVffW4mJBXMOdfSeUrj7BAFAAAAAACoKVQAoiIemtNwQOR931Wi+egA57e9KMSKl/IfCiEAAAAAAICaQgUgKiLblTrFOZcO0YrzkRsV+VTsCkAfRSc8+NrG/UMUAAAAAACgZlABiMpw/rQQ6hPOReO99/uGaNHs0eFsxr8+RAEAAAAAAGoGFYAou3WnHLmvd1Ff96E3yDs3KYRjcVHUFoIAAAAAAAA1gwpAlJ/LnBRn8I3Sc9NCIBYfRTMfPf7QESEKAAAAAABQE6gARNmlXPSaEOxTLooSVQA65+q2Dh3EaMA1rrm5eXpTU9OF06dPpzIXAAAAADAgUAGIsvJR5HzkjwnRvha7D8BnpCLXFIKoUd77Qc65j3d3d9/T1NR0zpw5c/pscBoAAAAAACqBCkCU1fpTJh3mIhd79N3q4yeHAGqcc25fTd+85557VkydOvX4kAwAAAAAQL9DBSDKy2X7V4s5Hx0VQug/jkqlUr9tbm6+vqmpaXxIAwAAAACg36ACEGWVctGUEOwXvHNjQhD9z4ma7mhqavpWc3PzyHwSAAAAAAC1z4U5yqizrfE6zU7Kx3rnvb9szPxVbwrRmre+bcJVLnJzQrRfqOvuGrHfr+/cFKI1Z31b41xt+KeFaK9UHq9SeXxdiPYLTU1NRzvn/hqiu6Tf/Zhmnxs/fvx3586dm82nopo0NzfXaT2Oy+Vyh2l97aXwSE2DFN6m6Wn9yaPpdPreJ5544l9r1qzZln8XapCbPHny6Ewmc4jCo7S+rQ/Poc+sa81tX7xF8/u6urruXbZs2RM976oSVk41256PFU+/cfTixYs3hCgGqGnTpu2rsj9e5fxAzQcryfZ5PduAwps1Pan0e7XP+1dHR4ft/9APzZ49e/CmTZsO07ofp6jdqByqMmCNOZ7SfJPtB7du3Xrn6tWrrUz0W1OnTh2dSqXsmDD6+ccEpW1W+GmFH9Ax4Z4VK1b8u+dNKIuWlpazlNc/CdFi/VH7q2NDuCbNnDlzyPbt2w+18hj2zXs/pyzaOcqTVhZt37xo0SK7tgD6HBWAFTCgKwBbJyzSzq8lRPsFl0qNG3X18ntDtOZQAbjnCsDnuEMH9A8vWbLkphBHHwmtMm1E8VfYpLJ5uNZjxl7rjf6uS7Ml+tvbNL9u3Lhxf9tTpe6UKVP2y2QyBfX3qfLx0OLFi1eEaCy6qMs89dRT9rsKVl9ff/ttt91W1I0Iu3jcuHHjS5UXUxWdqGm0wnsrjwZrbierVnl2v+JrNO/QheStlb6Q1Ho+SMsyW/k6S/OXKOlITYN6XiyAlv1xvW+Rggs03bply5Zb9BtiV8AlVY0VgNOmTZugzx0VorFt27atg4vr0mtoaKgfNGjQ0bqgPFrRl2myrlReYK8V6G6t3wXaDm7VZ1yni84HQ3qpOB1HX6nPTvoU0YPt7e0rQ7gsWlpapmmWqEV/IeW80O/RelnX0dHxzxDdo1AWjtO6fLWix2hu3dDsMd/1PXaO+mdNf9R7fqPvfLLnhRo0efLkMel0+hX6HS/R75qlpKMUtoqWQj2h97Vr/g9Nt+oY+Je+vik4derUV+k3FXwNrt+7pNjKo3CTdJaOpc8c7w/SNEKTVZbajdKNCq9T+C6Fl2az2b/v6gaazocO0/nQwSG6E33+8fqMj4RoUfS9S7Qb+XiIFkXLu1rn5p0hWjE6fk7Rd89W0PbP0/XbD+x5oTCPaFqg321l8Yak545xWOW5yl5DiO6RlnWL9h+3hmjBZsyYsX93d/fRev9k5ZGdc9gxzG7Up+0zFbbyfI/id1p+jB8/fikNLiqHCsAKGOAVgLZx2126/iPnG0Zfu+qOEKs5VAAWVQH4jBuUFx/UwXptiKNCdBL7auX92xQ8RettSD41Pn2WXQz/QJ/1fZ3UPJpP3ZHKyIV6vdCT0iv1OWeEcCy6wNlbJ9hFVaTopPsknfxeH6K9SSkPX6vf/Ub9JhvsZlg+ec/0nm7N/qL5z/Vdl+VTS89OSLVsr1dwjubTNS/luYnl66/1uZe1t7f/UWHfk1oh1VYBqLyepAsuqwzfK58Sj5brRp2wn8QJe+morLzMtlMFbTvYJ5+aWE7Trfq8Hz399NNXlqoyXMv6Rc0+kY/Fo99qLdYatf+8PySVlMr6S/T5f9MUe6R/LeMtw4cPP/aWW26xfeFuKT/sgn5mPrZ7+ry7tD3bTY1e90PTp08/JJvNnqO/f4OW/4UhORZ9hrUIvVrT9/Xdt/ckVrlp06YdoN9v556n6/fbjaBSHhOsMvR6HUMv13HtdwpX9JhgdI6xXb/Ljg0F0bKepWX9WYj2xirnrbL4rfr8/9J8757UAqicZPUeOzb8fNiwYT9/psyrbH9Fs49ZuJoUkSeJ2fbY3d39ZgXPVB4dnk8tibs1/UJl/eKlS5da5WDZFdtiU3+7Vcf6YYUc61VW7CaIff5pyifbHxZzk8gq6udp+oHWq1XYo4zoAxDl5ZJdZFSjXLqniTcGFvoHrDDl9QmaFir4e51IvF5T4so/o885QNMFCv5Ln/+/hx566A6ty+bMmZPW63YRXtVSqdSEENydlJ3o6TfazYpr9Zus0r/gyj+j92Q0Havv+nRIKiktW5O2p/+n7/iXpos0zVByqW9M2l3nt+ik8g/6umVTp059m7W4zL80sMycOXMf5fE8BZNW/q3KZDKvp/KvJFIql62arMWqVVa9S1OpKv+MnedbK4xfDB482PZ5H9A2V3DFQy/O12TLHJt+53DNLs7HSku/0Vo5XaopSeWf3Sx6/Z4q/4qh5Tlc+6DjQnQndjNE6+jH3d3ddyp6jv4+UeWf0WdYXrxZ0wLly/VTpkwpqHV7X7AbFFrGn+VyOTsmfFOTtfgr9THBzuHeqOOaDf62Svl9trW0zL9UnZQPezreOx3vz9DvWaq//Z0mu6FWcOWf0XtsW7F9xYUq83bjYMCz1n4qH1doe7xb+fMZTaWs/DOHafqcyuL9Wnffs6dP8snVQ7958N13321dDuyWnVsony5S2bGbOV/Xe2y7LbaOyR6dPktTQQ1UkAwVgCgrHbWr+qAah46Q/e43Yc90ULLHKT6gA9xaHejOsYqi8BJKaPLkyS/WidBNyusbNNljVeVifWh9YeTIkUu0Pu3xmB5r1qyxu+ej87HqpXK420c4lH/TNd2uv/mJfmPiE1Z9zi0hWBK2jpXnV2vZOhS1lomlqJDYI33PRJ1o/3Tz5s3L9P32OPmAYfurrq6uXyoPko50/kgmk3ntwoUL7fExJKAy2KzpH1on8zRZ5XdZ6TtGafqWglYR/vJ8ajwdHR1d6XT6TAWTPlp6vPLgrSFcMtpnfVm/Nfa+T+/v1r7ijFK2vn2Glut9Ifhc1nLrbH3nKr3+dk3l2ieeqO9o13d96fk3v/pSS0vLgVqmK7RsSxW18lCpZbPHiS8ePHjwCn2/3eitVrs93ivvGrXsf1aZvULRSfnURP6maUBXAE6aNOlFOoe6NJfLLVb5OENTWc/39fnWsOQ92qfepe+1/UOpK70T0XLtrgK6Z7+1ffv2u/QbPqLJHjFPRPuAkp5vYteoAESZuX7XGbXrztDB9gCmA9y+mr55zz33rNBFlD1SiRKxFmuZTMb6RNltC4kysD6VFugk5nSLaN3aYx61YFcnZE4nj+fqQsD6aylZ36ulqgC0lnfK50/rZPIO5fOpIbkvNOj7f6dluUL5NSBa9K5du/bzmiXdrrarLJy6cOHCmu0DtxpYxYvK3TcVvF3l0B55rzSr9PiTluGCJDeyrBzoc/4nRGPTZ3xd22LiPimfoc+yvvJ2VclWML3/k+3t7WW5ENVn/5fOHQ4N0WjWrFnDtS7shoi1hiyq1VYc+h5r2X3eiBEjFumY22vLngqwLirOzeVy/9QyWVcafVLxoe+2PoWv17LMs9ZMIbma7LICRsv7Lu2T27Xs1iddqQzoChjl6Zvr6uqsn863aKp0ebTt/zvah1lL3appDagytlMFdGj1d73K3sWa9g3Jieh77MZL0f0NonhUAKKsfPK7w1XH17l+PboaCnaUDlT2CMn1OggmbVUzoIWKoe/o4G/9khT1mGop6ORlqGa/1Lr8kOan9CRWP+tH6tljuI1Epzy0xzut5UtJH3HVyfBfQjA25e1BmzZt+ouW7QJNVdGNgpbjDJW5JboILmdL0z6nvLf+eM4N0dh0kf4/ixcvttYhiMn6kho5cuTfFbTHO/usFXn47k+vXbv2au1/Y2+P7e3tv9IsaT9c9pj+D/LBZJS/I/Tbfqpg7At37ROu6+jo+GqIlkNKy/geC2h5x27dutX6D2yzeCVpGSZqm75dxw0bzKDiwuPONytoxyw7BleD1u3bty/VPvOlIV4VlD8HWkVxiPacM2kZbbv7oaaStpZMp9OJj/e1KJxD/VjBn2sqZtClktP6PkHXF//Q8lTLtcUOFdA2kFhXV1eHLWdIKpUlPF1QGVQAotzuC/N+wfsot2nz0xUfdQpVjf4BE7C+dzZv3myPwCVqsZGUvt8uiK3vkpL0NVhuWs6hLS0tL7aw8nCYLlp+o7SSV17qYnitTsjWhWgs2i5scAMbibmqLqqMlukQXQT/Rcv43yGpX7HHwzSzC8WkLRkuqlSH6/2VVTR3d3fbCNUla52blO0zNm3a9Fu7+A1JRduyZYt1jWF91sWm5ThZ+ZNoMCWj/P2GZrsdsXRPbH+XzWbtEdSyDgyh3/s2/d4j9F1/VnhP/buVjb7b+hj8nfZ/RY1Cn5S+b7o97qvvf2VIqhpapgNVDm6eOnVqxStle+G2bt3a0wrLWhBrm52rYMkfnZd/L1q0aHkIDxgTJ058gc6hbFt8e0jqc1oWq/z7u8qhPaXS155tAaj91lTtt6ySuOf8s5T0m3n8t0KoAERZucjfFYL9xQOH37RmWwgDPXTQon/AGHQRUDd48OArFXxtPgXF0EnYBLsYGDJkyI0qf+W6kEp0QqaTVxuB2AZyqcbHqnpo2YZqGa8tRQVENbGLGv2u+QombVV7w7hx484LYcSg48LRuVzuZpW1kjwqVUpapld0dXVdrmCsa4LVq1fbUxHWH2CicyOV1W8neezN9jX6LWeFaNH0/VtTqdScZcuWPRGSymlvlYfFmj/7KHBfUZ5Z5a89ybDHUYxLQcd962fXRmSvugEPnqE8GazpKpWpt4WkPqeyOcHOLUeMGHGVlq0sTypoGxhw/f9Zf3/19fVW+Vf2fliLpWU6QOv9RhsVOyT1lSOt7FnLP5WRP2m5Eg9OtCv67AHZ+rQvUAGI8vKRdfLeb7goGnB3xlA4HRTpH7A431V+1cojt1XHLgh0MXCJgmV7hEvrJ3YFYLggt9adVd+qUstYp5PPn7e0tBwbkmpdqq6uzip1ElUwKE9WDBo06ExG/I3PRpJU+bJK+sQdpJdRa3Nz8+dCuGiLRbNP5GOx7ad92rdDuCjKYzv22r4wNr3/fe3t7UtCtOz0fdXy2KuxmwTzm0rYF+OuhMq/GzRVvKuPYmn9pK1MKU+qYnCQXC7XsHbt2gu1TCeFpJLTZw+oFlj29EQmk/mdglU7Mra8OJvNXms3zEO84lQuBt97770ztBzXK1qWfkp1rpHV91j3GKgAKgBRVi6d7lf9BXnn2TmhEPQPuAfKm3dpdnY+hjh0wmSjrpV10BJddMS6IFC5n6Fl+5WmkvZHWGb1+r3X2F3uEK9ZVpmjvP+vEI3rYZ3wn3TbbbdtCnEUafLkyWNUpmqiwkP7k3O13ca+mdDR0fFNfcZvQzQWldkzVHaLvimkPP6+3puklczPtPzWB+2AFfLvKutfLp9SWvbooMrHNQrW51Oqnx2/NP3Klj0k9aW3aFk+EsJlofUzYFpgWYu2wYMH2znKlJBUtbSMM7Ru/i9E+4T2sddpOQ4J0ZLTZy/VPrjfjRtQragARFmNunr5vTqk9JvHgFM5mif3A9vDvBJO1EFtlS5ovmKdk4e0AS9UsMRq6YH/UNkqy2MYz9AJ571Lliwpuh9Xq/TQstnocNXUwqUgWuYROtH9pT1aHZJqztR831VJW2PZ45xty5Yt+1c+imLZBWYmk7G+usbkU6qbyr61ePqp9csakorlu7u736r9xoMhHove/317fD1E9yg8ut8zintMy+rq6t4bwgOa1v/LNm3a9MEQLRl7zFL7Veun9tmBLGrIXlp2GzG+T49nyruyHu/lyfHjxy8L4X5v7dq15ytPSz2IRTl9Qsf2SSFcceUuf9rv0/9fBVEBiLLz3l0VgjXOrzvg2tXWgTdq2OLFi2/XgeYlmio11LxVJHxMF0b3NNE/oEnpZPpHmtdMK4CBSid8cU7IUplMxkbRq9r+nQowacSIEV8M4Zpiletab5cqmGjQD+0f39XR0VGpfWS/pAtMG3n5JflYYndrnfxQ08c1vU37UKv0er+mCzTZY1lPaSqFQwcPHtwzQm0cy5cvf1jlz1olx+5HTO8fVV9f//UQ7ZWOqaOUF98N0Tie1PtPW7BgwZYQH/CU/5+ZPHlyKTv4d3V1dT+x9RriNUfLfoS2u6+FaH/1t4HS1UNzc/N0zZLeJOuhcvGopisUtBZ6/6PpdMXfqfmnNF2q8AbNE1MZzKRSqQtDtN9RPtHApoKoAET5uehyr207xGqW99FVuqKq+d+BnkrABZrsUSc7UN+TTy0vHbzpH1B04mWP/ZbqovgZtl3eoXV5taZva7KTpG9q+rnCizQ9bX+E4ijfiq4A1Pq11iOvysdKQ8thLYpu0twqQC4M00803azp0fxfldw5LfkRdGuGLtptYIH52s8kamWjPP2K9o9WiYuYpkyZ0qD1cH6IxqL1YBfjl2az2cM7OjoO1zp5t6avarp0yZIlVyrtu5o+o+mkJ5980o4vp+nvV/e8OZlPJmntpOX5g5b9ohCN660FHid/ZMfWEC6WFtO/TXm5JsSrkR3bVms5r9H0XU12bLO8tYqFWzWV49i2VzqdLtkNEJUl6+6j1P3oPazf/ntNF1ue2KS0H2n+B3ut5y9KTOXsbJXJqhnBu9SUdwOiBZbKo/Wld6nWZ6JH3ZVftv29Svvj/TWdqf3e5zVdrGmu4j/W/Aua3qawPRFhFY52oyap45N001DFct3d3XSxVUGJ7hCjMJ1tjddpVlCnrdqZXDZm/qo3hWi/0dna+DuVtteEaM2xCkyfSx059trlNf848/q2xrna8O1CYY9UHq9SeXxdiPZL9rjT4MGD360D9GcULUvntrtxg/L3gzo5WBvi/d7MmTOHdHV12cXW6HxKMso/2x6/V1dXd+Xtt9/+UD51Z7Nnzx68cePGV6RSKXs8rU3rupSdKduFeKLRY63iJpPJ/DtEq4YuAsctXLjw3hDdo2nTph2QzWbvUv6W4jGvzVpXdkFnlR29Db6U0gmx9c9krY7equ8u5aP2N2ndJupHL1xsxO52QL9/tPYRhbQgsHz4tX5/okea9H2/1ve1KjigRoIsNa33X2sWe3RzrYd7NZ2yh7K/E2thvnbt2g+pHFiFSOyb/Prud9pFbIgWzcq9PuNWLce0kFQ0vf9+HZsbd9cHpb7j7ZrFXka5SNv3x0I4ES3LPzQr2Si6+u1/Ud79TMEbtYy7vclhXRXsvffex+jv36Go9Z1YqoYdOWlU+bsjxGOxwVn0OXcrWPAj3buj32iVndZP46UqmzZYy+5uyDt972Qdi96kPLRRoUt5XvdXrY/ZIRyb9tXbtWx9NqjDrmh5pre3txf9lFNLS8tZWjdx+8/8o/KzogNvKe/fq98au9WwfutWTe/UtnFZSCqYvvuVmtkozrEfp9V3X63yPydEi5ZwfZWFlmeJflNTiKICaAGIisg599UQrEkuiq7vD5V/2Nnq1au368Dzrbq6uvE6CNlFk/V9VQl2R/wOnRB8SxcPI/NJ/VtXV5c9HpG48k/ryS4I3z1+/PgGrbtv91b5Z2655ZatOlmzypwzMpmMPcpzdXhpoHlCv93uWv9S08WKf09za0l3o6Z/aurO/1lPHt9fTOWf0QXX53ViW4rKP2v1NE7r9sMFVIDk9Hcdms7Rd9uAO9/XVKqW2sdr23xZCFc17Ucu0O9P2p/R8q1bt75Bcyr/EtAFllUQxK78k47u7u6ZxVb+GXuET9vCRSoL1idekmNZoj7xtK/t0j7kTE2xB5DRbzhI5fErIboDe0RVn13QY8K78bdhw4aV5BHAUtJv+rN+93Stw1cqD3+hqdcWzmvWrNnW3t7+W/3dqdpnNun9t4eXkkppORLnj5bJWsGWovLvinQ6PV758gFNNuJ0b/t4v2jRoqX6s49s3759nOL2NECp9mkv1762JhozKM82WnnQ9CtFL9HcWpBahbkNSmStSrvs74zCG/faa6+KjYDdV2bNmjVc5frTIRrHE3r/sXEq/4zK5J9zudws5XdR51bPc8rUqVNLchO9zKz/6Js02ZM4VuFqZfD/abKWpus1PUt5Sv9/FUYLwAroDy0A7zr+0EGH37QmUcVIZ+uEP2grr+idnlLwPsrlIt904PxViTvHvffkyXsfct2yJ0K0T9ACsHc6sB6sg5GNoPlGRSuyj1Q+P6bZ58aPH//d/toHS2iZco/y9aCQFNfduqg4YenSpdaqIDbrOF4nYpdoeZJWWFV1C0CVLbtxcal+643Ks173YZMmTdqrvr6+Re+xiqQu/a5P5l/ZM+WnVaza44dJbixaq4h36IL2/4V4LLpAO06fc6WCiSvW9ZsS3W23llCalbUFoL7DWv7M0xR7f6XveUjTDF3YFD3oC3ak9WEXPcflY0V7pLu7e+qyZct2uECKQ8vxIc1iV5JpP3t40v2sjqdvTKVSSbZnq+g5Rvui5/YPZa1db9Y2bq1pihbKepPKemdISkx5nagFoJbH+iC0yi1rmRP7BoaN4Ltp06avKW8+EJJi0zJt7erqGr1ixYpYx6ZwLnW3ptgt3bQMdlPqPcoX6zc4NpUXKytztSxxHxd/lpbpRi1PopstWp5ytQC8T8v3M02/Ufm2itLdVnzakxGbN29u1t9aK/eR+k3Wp2jRaqkFoPL9g8r3b4Rosbzee4rOT6x1dyLTpk2bonOyBQrGHWzs/cq3WK0Yy9gC0PZbv9fvulLns79dtGhRr4NBaV2MUn6+TMti5y+/UPn7Xf4VVAItAFGQvYYMvqmzrXFpZ+uEn2xobXjvulMaX2KVguHlguRy/mM++k8Lk5rhosviVP490Dpx7Lq2Ca9Vvp1vlcCdbRMeGJTK/iK8jCplF8A6ENnjhHYy/7eexDKzk1JN/bp/wHvvvfc1+o2JKv90onCPLiZfnvSi1Ogkzu6Kv1KfaZWv/Y5+1xLl93+rLB+p6Ut7qvwzy5cvf0r5cotOLD9eTOWf0ffZxUOSRw6t4vt1SSv/jJ1I6vOOLtG6PUUnzAeGcNXR/uIo/U47riS5WbFN21UblX/J6cLucM2StBB6aykq/4y2YWv59Kd8rHgqEyeHYGwqU5epfCbZpp3e/+Pm5/RJqAvH92vfFrfyz/Yzry9l5V9SWqYHldcv1X7LWmclar18yy23dOtzztFnfj4kxaY8HlxfX283QmPRb7JHLZNUcuX0/jfr9ySq/DP6jD9bHitfen1aoBBapuOnTJlyWIhWBf2uf2q5Ths3bpy1krxA5btdyb22erQnI7SPuFV//ylNsSr/aoy1ao09wJHy+DulqPwz1kJVs9gtEbUsiffNJWTl7PJsNnuEytPxKns/21Pln1GZ26C/t/4S36CJyr8KowIQhfG5X+r/yTryneVd6rupVHTbsCGDN65vm/CPzrbGb2w4tfH0dSdP6PUiaex1q5c639N5cS151KUyHw3h3XqwbeK4zrYJpyovvrC+rfG3ypeH0s4/kIqcHSysb7mTdNowVqeyc3vegKqnA9NCTS/P5XLWerdSnYQfpZPU3+pi53pd5NjjjP2GTlisj6LY9P6n0+n0SYWcWBRKJx0d+tzjNfWbESAtnzRZi4kWnaz+1pLyr5SPtWDU7C35WDw6Mf+ktrdrQzQx/f4V2pZs243d+s5ouTLaB1RlK2jtJ0Zq+RIP+qH3v1Nl5bYQRQK6CLJuDmJVxmq7/Yu2gRtDtBRs208yEElJHnUcPHiwPU4c+xiq8mnHwi9Y2Foaa/YlC8ehz7LKjj+HaLU4QdtfSR+/1G/8P5Unu8mViD4j1r7PWpNrluiYLzaogo2uWhLK4zs1+2/9pq35lNh0aEm9PoT7mh3fzh0+fPhE/b5rBsoovnHonNpaGsatuN2s88/PhnBJDBs27NuaPZKPFUf7sZdbC84Q7TPalmybeom20zeW4sY8KocKQBRkSN2Qq7Sl73iR7KJ6FzlrJfVB76MrU2l3f2frhHX2iGlnW+OH1506Ydb6E3ccSW7biM0XaJb4UdpKcS567+irl+6wg14/p+Ggda0TztDv/KqmP3a2TXg8F/m1+mvrV+x/deZ/vPLlRfm/3sFj24ZvpgKwxixZssRG7mrQgc5GsivL6HK70K/6B7TBP5R/SVs2fnLRokWrQrhk7E65XRSGaK27WxcmTbr4+4HCFevHTSfG1t/YsHyseCobf9cJZMn7ibVKLX12US0Zd8MGxag2dv72/1R2rUIkNuXPl5VPiVtdoodV/MV+XFzbbk8lVylpu7KRFTvyseKobNkAHklalvawQTxyuZxVmCSpjP+AjodH63N+ruUaEtKKdb3yw/r5rTaFDPJTNOXT/2j7XheicenwPXOfEC6Yjgm2z0zS91/7uHHjSlrhYnRstMdiP5KPJdLnxwRbt5qs8uUr1vIzJGP37DwlFuXzxTr/LOnTItYCU597SYgWq37Tpk1TQrhPaNl/qX1Mk8rfwpCEGkIFIAqyz9yOJ70uNkJ095wbo7NF61/uaynvbo3qtz65vm3C8s62CT/tbJ3wnsGbh052LvsG7TqqbsTLnXj/3Wy2+49a/uO0/J/U8s+3Ck6XTd2Xcu4K/c6PajpGP7qgkxzl388O+fl9Se88og/oANel88ZLtm/ffqQOehdqKvt61IG1TtMH9F1rdeFzjvWhF16qOV1dXa/Ub9nhZkAxLA/0/u+FaMnporIkj9z1JeWRnYTNCq0cKu3UMI9Fy259lZWlwnL8+PHW30+im04qezNnzJixf4hWhebmZnt8KMlAE5bv12q/VooKUkiLqKyMDdGiaF08oG335hAtKX229YcZx97Tpk0ryaOOdqNFy5HkRotdr/xO+TsjHy2OvvseHb+tlXLZW0RXC523PKnZeflYPMrvdHd3d9EtQfW+RMcEHZM/Uq7WbNrn/VDlIdFgKfp9U6yPwxCtOC3/qkwm85JQoYk9sPNnrbPYx8t0Om0jcpdD3H2zlcHYI6yXwFdV9N6ofYyNzI0aRAUgCpbx0Vd00CnqgOwil9E0UaG3aW/1Pe/TC3K51BKv9PAn1aw1lco8quW/Scv/eS3/KZrGhNeKYgOJZHL+hyGKGmWdYeugd14qlbJ+nuzOXdlbWekg3x/6B/zvMI/rh1YJG8J4HrsYqK+v/y/lUa8jRpZDaB0Sqz+u4B+hv6KysItI5U/SFp6prq6uWSHc51paWuzR5iQjGVqZWbp161YbcKxiLUX7u1wul6RC1kbmLAsdP2I/3m0DgYRgYjp2fk3l7vchWjT9jlgt//SddsNuTtzBLGrZ+PHjf6Xfn6gVoMp1Ufu+hoYGaw0edxAcs0zHhL+GcDnYPu9/88H4VB77aoT4f2mdvmbhwoVJW3cOGPfee6/dONjVk1l7pLy+txxPnxjtE+1zraK+aFquPumHUt/7XZ1rftyC+RTUIioAUbD9r1211iW4W/EMHTTr9DlJR94sv5iVfbvinL/O8i9EUePa29sf0AHwXToxnqGDYaWGr6/l/gFjtdoItmmfcWkIYxeUP59csGDB4yFaUdu2bXuF7dNDtGjafi4OwbLRSfZvNLsjH4st9gifpaTt/0jtd6w1vg6j8SjPH9Q6O3n16tWbQxJKQHkau5JY68T66yyLYcOGWV+ncW+glLKVUy6dTlsrvEp1pfEMG113QLaUshsgKpeJRvzU+1tCsCCDBg16md4T9zHtSh0T/qTvSVom+uqY8PklVTSITS0othL7uVSWy7ZvlpzKYdxHaCveAtWOI9p2zglR1DAqAFEUF6W/pB0AncwWwVr/OZ9O1FoD1claLulg+AptE22a7grJ5XaiTkhWNTc3f8X61gtpVauhoaFes4n5WCw39kXLtlqik9s+a8WVSqViXwRpm3m6vr7+qhAtJ7tTnbQSeXqY95np06ePUJ7ZoB8jQlLR9H5rDdWqber+fApKJKW8jf1IlrajsvWNbH1NqczE6mxeYj3SvDs2iJOW5a0KVqr1yM91jE48imwtU35bBWDsY4TK9eRiuiBJeEzoymQyl4doWSlfkj7W2SfHhL483tew2DehVSbL2m+9ymHclpwl3TcXQstq+23KXz9ABSCKMmr+8pUuct8NURTmcsu3EEY/pAsMuyhv1InCuzQ9FJLLaZCmj23btu3F+Wj12muvvRo0s+WNRfnJ6KTVLfbFnraZjgULFlRkBGZ913UhGFdft7p13d3dv9DvODLE47CT93dof7UgH0WpNDc3H651E6tiVvu4pzs6Osr6OJ++I9bjr/pNJX9ao729/bdaHuubs9yWa3pPPjhw2RMLyu/YLaBVBobed999o0K0EEmOCcsXLly4MUTLSt9V68cEFEjruqhWrM+VSqXK2q+yts1YT2/oN8W+EQjEfoQEhetsa7SDjPXZs0faEVw2Zv4q65enaj1y0hHDuzKZ1So+Fb/7UGu8jzZm0+mGg65eVjWDDNgozdrwbaCWPVJ5vErl8XUhigJY/zdDhgz5qPLu4zpAl7WFXi6Xa1iyZEnSRxvLShfGVtZij36tfHz54sWL/xaiZTF16tTX6STvVyFarCt18X5GCMcyefLkvTOZTOz+qVQOTlI5sNGqK66pqenJBCeiFynvPhbC5ea0rI9oWfcN8WLltmzZMmT16tVFjWSq8m+PR8ce/VTlf7TK/wYt+6e17DaKfmz6rC/os/rLiNdVRevnBK2fuP343af3viOEy0L7iG/qOyaEaDF+pm30rBAuGWsZPnjw4H9omZpCUkmprG/Ub25ZunTp3SGprLSd/0OzWBVfz2zjIVoWKp8/UV7HXo9670vb29sLuhmn79qgvz8gRIv1fZW394Zw2WlZH9Cyxr6WGTRo0Agb5TpEC6bv3a7vjdV1hsr1WTrel2tQiqK1tLScpTIc9zHzP2p9HxvCZRH2NU8rv2MNpKff9gadH5at2wL7fM2sVXSxOpV3RXdVlXB9bdd3xr6hj+pBC0AUbb9f37lJeywbtRF74qJPVlPlH8rP+tXSAfIzmUymZ6AQHWgH+iPzB4V5HDmdtHWEMKrMtGnTbICaJHeh4/Z9E4fXstpFelypoUOH9slNr6lTp75Wy35+iMY1b/HixXRFUT5JWmMfrOPEH8o5qfzEqfyzi9OyXOxZRXo6nX69guXoh9Lrgv2sSlX+1YhEo97mcrmC9n3Nzc1DVdaSjJieaDmLpWVN9ITB9u3b+2wkYBRm8ODBB2o9x6r8M3rv5c/fn5Zy0lfEqfwr274ZAwMVgIhl9PzVV/vIW8fq2A3vo9tHp4/6QYhigLER2jo6Ot6l4HQdqP+cTx2QDgzzoinfnlAePh2iqDLd3d2HhGAsWr8PhGBF6PsSVTjqInjvEKyYVCp1uCYb9CP2+Zp+99Kurq43K0jfPWWii8T+WhFQtv3vokWL7lLZfH+Ilow+8xvt7e3XhChE+5Ck3dAUtO/LZrNWEZ5kgKKKjmyb9Jig91f8mICisW8GnocKQMSW8umzdPSjddsueB9t9j71Zjd3LgOmDHCL847RBeKrFbU+iQYUnSDHfeTSxH4sFuWnMh27ctfoorTS6zfRY3b6vUNDsGK0/ViH+CPzsdhGatljj9SMgiRdR9WqrP2x6dh4qcr4FSGamD7r7yrr54UoAuVL0lHiC9r3aZ8+oI4JyteKHxNQHK2jfllJq/1c0Y+eA8+gAhCxjZq//OGcd3O0c+0KSfiP/xl77fJKjQqLGtDe3n5zR0fHVAXfom3mwXzqgBD7BFknOE+EIKqQLtaGhWAs6XS6ous36UWw3r9XCFZS0X38PJ+2o0OU19ZnFP0+l09flI2yq8RFZiaT+R9tW/eEaBIPZ7PZM3Sc5Zz0eZL0MRsUWgGY6JjQ1dVV0QrApMcE6ZfbfT/TXytpKzJYDvonKgCRyNhrV/5DlxR0Kv4cOqG4ZMz8ldZqA3i+nC5OfqH5a0pw4lkrkgyE8lSYowqpDCc6sXbOVfQEVhenSbc5G0W3opTHvw7BRJTXpzQ1NX0gRFF6/fIiU+Wv7BWAYdTXM/VdiSru9P43L1tGn8u7smnTpqQVa4Xu+xJtB/X19RVt1ZT0mKD9asWPCSiO1hH7ZuB5qABEYqPnrfqqdkXzQ3RA8z76878zpe/TBv2DDZqgi/AvK7hQJyX75FP7vfowL5pOcIaHIKpTohPrp59+uqLrV+UpUYWjttm+qJD+sKbV+WAyWv6vtLS0TAtRlJDKVr9sXanf9VAIltXixYtvV/m8KkRj0ftnhyCeZ/Xq1d2aJamsKqi/MZWXRC3iuru7E7UgjCHpTShuUlY57Rf65b5ZP6si+2b0T1QAIjHtWf22bMaGFS/FIxw1y0d+5fZcuq1x7urtIQnoMWnSpL2am5vPzeVya3XQPlfT4PDSQLAtzIumfHpBCKIKaZ+fqPVDfX19RdevylOSEYutg/tyjFi6J0+nUqnTldVbQjyJeu2Drp45c+ZAuflQSf2yQ3ZtM/eFYFnp+Dhdszn5WGznNjU1HRPCeA5t89YPWpKKkIIqurSfSjTQUDqdrvS+KdExQfvTvjgmoAjah/XLfbO2tYrsm9E/UQGIkjjkumVP5FKuVbukP2ivdPNAm2xE5Gwqc7zlQ8gSwC5q6nRBcnYmk1mjqLX8668dxe9WwpMvKgCrW6LWD9lstqIXezphTlSe6uvr+6TPnUWLFq3SdvTxEE1En3NQV1fXjy2YT0EpKF/7ZUsgbaNlH6l74sSJtl1a67/YrcUDu6b5ORXcO8vlcknPPQrd9w2oY4LO7frkmICi9NebMxUdMRv9CyeAFdDZ1nidZiflY73TweiyMfNXvSlEgZJb39Y4Vxv+aSHaK5XHq1QeXxeiKJxrbm62PP6ipkN7UspAJ/UNS5YsuSNEq1JTU9PPdaLy5hAtlt+yZcuI1atXl/Uu+9SpU1+XSqV+FaLFurKjo+OMEI5l8uTJeyfppF3l4CSVg+tDtGK0bt+gdXtZiBZN+5e2xYsXV6z7iJaWFmup/pMQLYrel9VvHVLsAAN2E0Cz2K3C9b2jlUc2UqXtU+xc4rU9LySkz/2gPvdbIYqEtC18TeXDHtfuN+KW+SI55d18fc/JIZ6Ylvsale2CznFKRdvmPzSbmY8V5znbeNlo3zdV37M4RIumY8wsHWPsN/ZK67JV63JeiBZNy/hG5UXF+tBWvpyh74w9CrXOT4bHOT9RPm1XPsUamV3r4iytCxvUqSokOa7KH7V/OTaEy0Lb5qs1+30+1q+coLy7MYQLlnB9bdd3Dgph1DBaAAJACengeqxO7toVtBYNZav8qyFJRjx2Q4cObQ5hVJkSDKoxI8wrQie9B4Vg0XSxtq7MFSF7Yo9bn6WpsyeWkH4P/QGWVqLHsVQ2rTJ9fDVN2Wz20HKXeR0rz9F3lazyz+jzTtXnviNEIblc7rAQjKug8j2QjgnySLlvTiI5lcmk++aLn7tfrJZp2LBhfwqLCBSNFoAVQAtAVBNaAJZHc74Poy9pqlQfRFbJ+F+6QHs0H61Oypf3afadfCyW8/QbLwzhsqAFYDzKt6OUb0kGqPib8u7lIVx2Kos3aXZcPlYc7Qv/vHjx4qK3bX1nqVoA9mhqajpGJ/9/UDDxDVx99r3ZbLZp2TK6rkhK28JrtS0kGbH5Am0LnwnhASEcM/+mKemjv7vylLaT5vb29jtDvKz0W6q6BaCW7yuafSwfK46Wb6uWzwb32GP/ftoODtZ28K8QjUObQUdLCJed8sVaK7bmY8VRvtyufIm1zmkB+KyytwA89NBDB40cOdIeA457zFygZXxJCNc8WgDC0AIQABLQwfQInURaa78Fmspe+acD9/2a3qWD8AxNVV35FyTtQ6qiLQJQuHBnPfZAICrH0xoaGspx8b8rdr4TuyzpYs0q3PucLjj/pHyzi/nE9JsOyWQyP7VgPgVxKR8TDYKmdfqqEBwQ7KaHfrPddCnX9r9XLpf7ZQX3L1VNeZ2kUm2ZpoIG9xgxYsR6fZeNOByL3jtZ66xiIwHr+2JV4JlqOSagd2vWrNmm9bw+RItm247O8Qdc/93o36gABIAYdAEzRicFF+siY6WiNnphWS+idRJij9acN3z48CMWL158icKJRturlFQqlaiPQv3uY5XPQ0MUVaSjo+NprZ/YHVHrAmrwoEGDYrXIK9a0adMmaWYjYcai37nH/q8qRfn2aS3P7SGaVGtTU9MHQhgxDR061FqaJXkccIbK6L4h3N85q3i2CugQLwt9ftOQIUO+EKID1qRJk/ZSXsR+3F/vLbii65ZbbrHKv7X5WPH0XRkdE04I0bLS9na4vm9UiBatmo4J2KOOMC+alUnNXpOPAf0DFYAAUIRZs2YNb25uPjedTlvF1tnh5KCctutE89vZbHZ8R0fHhTrB3hrSa8KiRYvWaPk3hWjRlL/D9f5Yj+igIhJVRGn9Wr92Zaft5+0hGIfX9l41F3vaD3SlUqkztV2UZARKrQP6A0woVHzE3ha0Dupyudz/hGi/1tTU9H7NKrVP/7DKdlkfMax2mUzGunyJ3apO+5lFIViogXBMsHy9LQRR/ZKuK9tnAf0GFYAAUAB7lEgXLmdv27ZtjaJftoqp/CtlY49Wzk2n00cuXrz4nBrupyunvFoawnHZ6Jo8plidkl7snWR9CYZoWYRHyuKORG0WL1q0KMlgNiXX3t5uj5y+Jx9LrD6Xy11pj2WGOGLw3ie6yNT732f9VYVov6RtvUXb/FdDtBJSytefNzc3vzDEB6K3hXkcyj5vfY4WI+kx4dU612oK0bKYPXv2YM2SVDTesXDhwntDGPFV5LwulUrdGoJxHa19iPVZCvQLVAACQO9SOvDPGTx48D91Ynqx4i/KJ5ePTrhv1nc1d3R0nN4fTjL1e/4SgrEoL5p04Xh6iKKKJF23kip3hcCQIUPeqe8YEaJF02+8JgSryuLFiy/Xsv0iRBNR/tAfYEK6yEw0EI/WwQEjR458Z4j2OzqOjtRvvFLBSvfLN1rbiXV6X5VlO5vNlq3S1yrSlOexB1pSvi2RokYez+VySY8JWuTyHhM2b978Fn1H7Erhaj0m9AWV3yT9AFfkptMhhxxildIP52Ox/V+YAzWPE70KKNcowA/NaRiW63KvyDk3w7lofx9VZkda03y0TaX+ERV9az1x85h5K/+Zf6F4/uzmuvWPbX+587nZ+twD9bk2SlpfeFwb8gNRLnXTqGtXLFa414MxowAXzh4dUh58TUHrP6wSbETVz3R0dMzNR/uHqVOnvkQXx0kfwVivz5i8aNGix0K8ZLR8jAIcn9M15r90MXVQiMd1pvLxihAuGS3bKC2bbVexj496/5FxRxNtLvEowM9nXRJs27ZtsYKH5lOS0fd9UN/3rRBFcWxbWKvykqRvu83anqdqe7aW5v2K8uZq5c2pIVoUlcvf6r02yFbsyjJ9xntUtn8QoiWl7TzJKMDXaLkKOicrktNyWWVckpHWY41OrXVtN0yPCNFY9P63a79rNyVKSnliFX92TNivJyEGnS9M1blI7CcblD/9ZhRg/ZYz9VsuD9GiqOw/pLJ/QIiWlZbz+1rOd4doLFret2l5Lw3RmsQowDBUAFZAqSsAH2ybOC7rc+dqR/YWRdkQk/B+uU/5L49uXH2lu6CwQRW8tpv1rY1vTTn/WQXHhuRqsTQXuY+Nnbfi5hDfCRWAexYqrL6sYJIT54Ipn20ghc+NHz/+J3Pnzs3mU/uPOXPmpNeuXfug9lmJHsNSPv1GeXRyifPIWnj+UvO45XygVwDaifW3tG4TDSShdbtJ29wsXfDZoDolEcrdTVq22H2Aabn+rBP+2KN7l7sC0Nhjlco7e8SpFC2r7ML0ZVoPxfb7BdG28CXl33khGteCYcOGHR36FewXtB28T7Pv5GPF0TZwv/aPE7u7u9+nvI09qIc+Z4v2lS1Lly61yp+S0u+LXQFotGyf1nb+uRAtCS3ThzT7ej4Wi3XfcVjobqAopdgOlCdPa3a08sVucJSKHe/tmuzEfLR4Wq7btUix17VR/vSbCkDl58maXZuPFU/HrsZFixatCtGyaWlpma11l6h1qt6/UfuiKbX8ZA4VgDA8Alxj1p/S8M5clFuhA8fZirIRJuXcJOdTv9ywfMLvHm49co+jgd1/2swhG1obr0i56KdVWPlnprjI/76zrfF8q6gMaSjQlClTGnQyc5VOSKy1WiUq/2zUyAvq6+sP1wnlJf2x8s+E3xW3hd2ztN87Ye3atZdYxU5ISmT27NkZnYjbiMoDtpVrKaTT6cQXI1q3NtjL77T9HRmSkkrdc889P9LnJhoAQPuCb4Zg1dLFYLvy7lMhmhT9ASag8vYDrYukFXczN23aZC2f+sU5uvaxzZpdlI8VzWsbfLsuuDcOHz78K4onGc1ziPZVV4T+36qKlu2z2vd9MkQTmzp16mtVDi2/YtP7/xin8s9onVkrqdiPhhrlyVBNN6n8TAxJSVmLyG9rHrvyz9TCMaHCer1BtSc63lhjlrJTWf6rZsvzsXhUHkdks9nf6FohdutRoBpQAVhD1rc2ft6lUrpYdUNDEkpFF4ndLr2ws+2og0PKTqxCLZPb/NPIVXdlgev5F32ms7Xx4/kU7ElLS8uBOjG8WCd2dnIwJ59aPjqx7tLskq6uLhvZ9zMLFizYkn+lXyvJHWudgJ21du3aa5JWUOgCabQusu2xskQjAaJnpGd7FOpv+VgiozXdpu3xv/LReOyxWF00XqVgks7vbTv9py4abgjRqrZ48eKvaXmL7ax/l7RN0B9gTNqf36+Zlb1EtA7epGPSr2bOnDkkJNUk/YaRmlm/f7FuWKtM/1DbYM8TDdYiUnHbpmO3qJVJmzdvttb91ejz2m/9MumxTZ/xFp3L2OPWmZAUi97//RAsmtaZdZnw+3wsEato+bvK0Sn5aDx6/1Dly2UKvjefEtu/VAbp/+85stlsotZwys/36XysJF1Y7IFXmY57I+K5jtL29VeVp/EhDtQcKgBrhLX8cy4q2d1B7Iob6336RmvlFxJ20HlKwzs0S/SoX4V9sfPUxpYQxi5MmzZtXx3Ev5zL5e5S9GydHJSkZVkv7I649e93lC4U37V8+fKknRLXDHuMRyd6C0M0Ea2nk9Pp9HKdNFplfFGVFDbKpi4GPqQTuJX6nEStw/AfWrffCMGkXqDP+o3W0aWaiu5X0Fq+bN26dZnWbay+xp5LZeRczQrqGqIK2HJaS4pS7VNatW9M9Fj3APZlleFStOaes3379sXaDl4R4mVj+0Wt71K1tHoua4Ub60JZeXiPtuUdbmTqMLJC6Z8P0bg+kPQmQ7kor16vY9sdWudvb2hoKOqR/smTJ4/ROrxcn2Gt7xJ1B6A8XqpzFHtUNjZ9RkmOCfo9NoDTfPtt06dPL7p/Tb3vOM2W6nPOzKfEp8/4hPLFbuAiWLp06SOarc/Hiqc8HaLphkq0qlOZtCdREvevquW1JxVs32xdG5S9LkXnNVzLoaSoAKwBD81pOEB7m7KOiIU856KGdHbz/4bos+46/tBBLpUquiPkvqTfktLR7oshiueYNGnSXjpwn5vL5azDdutPsxKPBFkfQUfr5PF0XcSszScNLCW4cHuW1tmBqVTqVzq5X63pY/b4dnhpJ+Hi9hit82+MGDHC+lu0fpFe0PMiSkJl2voAsjJeClapa5VZd2udXaWT37aJEyfudn3pYn6cnYhrHXeoTPxaZSPJIAw9VFb/3N7e/usQrQlaB/YolrWQSvTo3TOUj19R3k4LURTIKqk0K8lgE1oHdqH5J5XvS3vbx8VhXSnoc1+h7ebHI0eOtD5af6vkkl0X6HPfo1ncFvU5bYNvW716tXWTsQMtp1Wwxh6AQZyO/T+bMWPG/iFeVfT7bFCEHw8ZMuQe5eGXNc3Uetplf3H2OLO20WP1+k/T6fTdem/iSi6jz7Hz3UT7EW0Hv9PsT/lYcvbburu779Rvnadpjt3ADS/tRMeMg5Vv79Z0u953k5IOy7+SyAIdE6w1K3ZmfdDGpnV0hI7dVqH26pBUiKJbqFvlrfYdHwzRRLTMVjH9HZWxf2h6jcIlrVNRGT5Kn/tZTWuUN4u0/58cXgIS4/GOCkg6CEhn64Qvak/ziRBFmWkdPJXJ+AP2n/ufE8/O1objI5eyk+Oa4n2Uy2RyY/RbHgxJA34QEJ00Hp7NZv+qg3elTv5X62LjvL4cpKGK2CiZHcr7qSFeak+qzNqjR09qsseqh+u7xirtEM0TPQ7ViwE/CMgzdCE6S3n9dwXLcW5hF6P36/PtcaOntD7TCtsJ+OEKJxpc5vn0uU/rM5u1XmOPEv+McOFe1kFAnk/faX1UnZOPJWP5rf1l07Jly54ISSiAVVjX19db+XlRPqVk/qF1Yt0p/EnloqgbSXYjZMSIERNUtmcr+kpN1s+tPaL7XC9TuU90MW+0L5iq/dJt+q64N9e+qeWwQSx2ScfxKSqXC/X5sQZSMMrH3yoPT7BgPiU+bXOJBgEpwHYtrz2pYK2tNmmyroCsH+rxSfJgV/Q9f1C+WIVGYlYO9HntCpalwYk+2x65t2OCna/bd4xQflhlX6m3u20qbzOWLl26LMQT0XlQvxkExGg9v0nr4hchmtQCTb+083TtQ++1/j+tK4Tu7u5RShubSqVeou+ya+rLVE5j3WjR9mo3916bj5XMfZou1bLZTcgVVtmYTy5ISmXCzlNfqvAx+oxXKrzDExBK+7x+7/+FaGxaVwwCAioAKyFpBeD6tgn3usi9OERRAd7lzhxzzeorQjTqbG28UFtLTfapl4v8GWPnrXr2ruVArwDUQfZoHVitM+Bye0T594Xhw4d/rz+N5piUTrxeppnlf385/lAB+Bzavr6v7evdIVqr3q11+sMQTqQvKgBDRc8CrYcpISmp+coPe6S6JC0LB4qpU6cer4vV3yhYrsqPxzWzypVnbnpYJa3N7fusYs9ugNjgOocrfISmFyu+p24ueq14K8T06dOto3xbrlitrrS8d+rCf+qe+sbVtnWBZp/Ox+LRd52j7csGhkikAhWAFaH8sDyfqDwp2VMKOiZcpHL3kRCtVR/RdpFkROUd9LcKQNvmu7u7rRVxOfoste4tdrUPvV7rpKBr6+ebNm3aAdpHLdHyWmvbktN2tFUzqyy21uCP6nueUJqd49lvGaapZ9+suV3bH67XjlC815sl+pt/ars8KkRjowIQpiwnJSid+09r2IfKvz7gU00hFPhqHPG3IKnqHK24P3tKB9cLBw0aNF4H629R+bcjnTz8PcHJB6qcTmI/qvVrFRI1Sct+tcroxSFak9asWbNN6+H1Cj6VT0mM/gBj0EW6PXpYtgEntI730fQaTe/X9ClNVtFife5drOkrmqy1yAc1/29N1lJsj33cqvxbRW+imzO6sLaR1eNW/mU1va2QgbG2bNnyBc0SjeopF06dOnVSCCOKPlHKyj+zceNG67886XrqMyqPv9ExgZF/e2Gt9DSzvifLYXd1FcfYza4QLsqiRYvsqagzbX+TTykt7WsHa5qh6R2azlPSlzW3/bLtn7+h6bNK+5gm6yJhsuJ7bCmtvzmypaWlMUSBRKgArHLOp6i86QPORweGYNBzp6Ym6QBnj8mhzJTPVtF3SSqVOlQn0Ofddttt9pgOdkEnMh/VLHFHzKg+ulB6WtvC6ZrsgqDWLKivr3+z5jXf0k3r4Z9aByXp68hom6U/wBjGjRv3aa2Hmhk1VOv5wKamphkhWrTm5uZ3aZbkqYGLlixZUlBfoqtXr7bHYt+mKfZNNrvw1vTLWh9tuUSuspuWIVwydkNCs9dpPVmL1ZqiZV68detWa+FfK4NB9Rmd+16k/LKWb5Wy18iRI60bg1hU1v+s2fs11czxXvlb0NNbwJ5QAVjlvMs9HYKoJOd3zHfna/bgr5NbTlzKTAflm3XyM1UX3e8KdxbRC+XTk9ls9jTl2x5beaD26AJ+ufY7tn5rZrRELes/VSZPKqTlUa3QBc6PNbNRx0uhPpfLXWmPq4c4CjB37tzs1q1braVJLfUhHOsi0zqp1++M3VJK7121cePG80O0ICrjizW7MB+LR/uqCV1dXReF6EC1bNCgQe8I4ZKzGxKanaJ1XMkKokS0rNYS8sRdDUSDnbW3t9+jWUUHrNQ6SjSat3YfP9Bn2Gj/NUHLSgUgSoIKwKo3Yr0N5BAiqBhnnbn+h3ePhlDt8d46jUYZ6GC8UBfFs3US8Wqd/KwMySiAdaat/HujJh6R7od0wfcHXVjbiJTW+qOq2XasZT1aZbLf7Su7u7vP1mzH41lMyqNDMpnMTy2YT0EhrKVafX39qSpnV4ekqqb1XPRjwLNmzRqeSqWu0ntjDfoRjgNvCa3FirJx48bP6f2rQjSud7e0tMTqT6wfuKOrq+s15X5qQedJf9N6stbhVX+TRcu4NJ1Ov0zLXFT/qwOdtsUvKO8WhWglJKoANFrHX9Uyf0hTWR4HLiXtXyfY6MAhCsRGBWCVO+jqntYIt+RjqJSUd78LwR4+iu4OwZqTcykbOQ4lpBMFy9PTdeIwc8mSJZUYUKRfUt7NU16+TcG+vsnB4AZl0NHRcbVOWE/UOq7mx+Fv2Lp166u0rLV7k6cXYfTeN2gdlKqinf4AY7CWpTpeWOWH9VtX7fubF7dICBdE29APta3bYCOx6L1fVP50hGhRrNIwlUolehRYnN7/Y5XtUSE+IOg3r8zlcscuX7784ZBUVjrm22BVx2mq2lHFlSd28+oVPM1RPNsWs9ns6Qp25lPKS+vpyOnTpx8SorFp32Mtl0/Wuq/6rnv0m2kFiMSoAKwBLpX7eQiiEry/c//5K24PsR6pqGckv5rjfbTx6ae3/C1EkZBODh7T7LyNGzdO6ujosEfrqDhKSBcElylf7YSmVAMWFMv6IrTO8lEG7e3tN6fT6ZfYhWZIqgpani5NH9N2fFJ/f8RLv/FWzT6XjyWnCxD6A4zH60LzU5qfqGl9T0qVyuVyBV9kNjU1vVNlwlr7xqLtcKlmn8/H4tF+xlodfS0fi20/TXa+PVCujW7KZDIv1TG4IpU1z9A28DeVl5la70tCUlXQ8lgF8v9p+Y7XPtNG00YMy5Yt+5dVKis/K1KB2t3dfXwIJqL1/hstc5Omv4ekqkQFIEqBCsAaMCo1wS6Q20MUZec/6PRfiPQYNX/5SiX8KURrycWH31T8IzXYkbY/G9jgQh14x+vE8MI4jylh93TiNV/5+3JN94akitD3/UGzl+hklQFJymjRokWr6uvrpyv4PU193qWF1vsiTbNU7qzfrwFRiT9+/HhreVaq1sr0B5iAjiE36qK1UWXwx5qq9bGzgi4ywwi6SQaOsIE83qI8Sdxf6PDhwz+j2R35WDw6xr+6qanpwyFaEfr9vwjBitD3WV5fMG7cuBPD6K0V197efufGjRvtxtDXNfV5NyBahqWpVGq2yqFVRNPtUkJLliy5Q9vSDMvXkFQ2+p7EjwE/Q8u9RucFs7XcNoBWtbZSnTRt2rTYra0BQwVgDXBz52ZTqdxbdZlScyNo1R7/ndHzV98UIjvw2dxHtA5qpgNjLfG67u3uSyGCeOxEcK5OBhp0UnAed4XLR/lro+3ZxeT3NZW1Ukbr0yp0P6qvPE7rtF8++llt7BFI5fX7dLJujxb21WPznfr+t2u926P7A+qmmg1God/+RgX/nU9JRp9Ff4AJ2KPZKofvzOVyk7QvslGCq6Ui2pbDnhq4aM6cOemelN1oaGgYpnJwpabYI+jqt1+gbXF5iCZyyy23bNXnnaUpUaWqfs8XmiREK+E8fadVuJb9MVzljbW6m6l98Wdsn5BP7Rt2I1XbwEdsADUt180huaL0vQ9p9u7x48e3tLe335ZPRSmojN2/ceNGa+n5ZU3lrOQ95tBDDx0UwqWQU7n81vbt28fZsiveV0+n7MoaLZO15u+Tinv0H1QA1ohR19yxKhW5ExTkYrV8fjxq4iq767NLY69bvVRbzDtrYVAWLeNmncW2HvybFSW52BuIdJC9OZvNNukk5nRdoJSkE330zh7FVH6/V3k/TVM5Rs3M6XN/qQuOI3WCZ4+LDYjWX9VEF1lLtI5nh0eEblRSJdbBan3fWVu2bDlE32+VVgOyhYd++wPKh1KO9El/gAktXbp0tfZFp2m9TFDU+qHqq2P2Mk3naXqxts+Xa5l+sKcKoiFDhvzAOXdkiBZN2//C4cOHfyVES0LLvUDL9I0Qjate0y8nTZq0Vz5afto2r9FxqUFBayW9vSextKyV+5nKnxZNNnJy1dBvX6lFerXW2ytUJq5TUtn3z/qeuzS9S+XPyvsP+7oytL8KlbyfUNluVPRK5Xk58nkvrccZIVwyK1as+HdY9oO13B+1MhNeqih9rw1EY62sZ6isHqZl+jT9UyIpKgBryAHzVyzoTqWn6HJphwEqkJC1rPT+LaPnrXynu6D3E4/R16y8zDt/it5UvR0YR9HaXCp6qZaVx8bjadcB9xg7IbWRakMaKkh536Hpv3VBYI+NXqL1kehup95vfTd+TxfZR+hz32AVIflXSqLPH1+qRUuWLPmj1sUJVhmr9fNpJZV0W9NnPqDpG5peopPmRn3fz2w01vDygKV8mKfZJflYctpG6Q+wBLRe7lA5/VBdXd0Y7adsxOCfairnRd4d+vyLNT9T3zdG3z1F04Wa7s+/3Lvm5ua3a2YtSmPRd1trvbfecsstJd9/Kg8/rc++M0RjUbk+Qp+TtCKxKLqof0z5/z4FD9PyX6h5ohaB+gzr5/RaTSeOGzfuSH32FUqu2psfOi7fomPCKcp7+/3/q6nUFZWd+sxva360vucoTZdYq9H8Sygnrds7Vf7OyGQyL9Y6+IymRI8G6/0PabKy/Z50Oj1O+8+yPVVg26XKytc02c2Ol+k7L9SUdNTx3bLfptlVmr/PKk71vbZ//qCmhfm/AJLj0Y0K6GxrtDtaJ+VjvdMGf9mY+aveFKK7te7UCbNSOfc+rcFXK/rCfCoKpXzOqvi3OxfNTadzF+8/t7hO4NedcuS+zmXO1fvPUPTAfGrf8j5apeX56eant36vt37/1rc1ztWGX1D/Psqnq1QeXxei/UJTU9PROsHc6WRBv9UqhT6vg+2PNR+QLYSq1cyZM4ds377d1pu1Gnupko5UeJ/8qzvT32zS6zboxN8V/qPCf9LJ0277mAoXs7bei6bPv1hl5n9CNC43ceLE2P2p1dfXW8vJxH1o9TWth4OUny9TcKYmewRvnNZdIaNyPqL33aO/Xa3JOvC+1S448i/1Pa3bF4Rg0VasWGHdDpR0fzR79uzM448/PjxEE1P526by93SIonRS06ZNOyqXyzWrfNuj85NUvq01yhjN6/J/0itrXXu//v5uzW26SxeUd+qCefHtt99uF5mxzZo1a/imTZsyIVq04cOHd992221lG3HTjhlPPfXU4BCNzVoBhWCvtO/6h2a23yqa1s9oHUOslc8ObDvdvHmzVTgcr/Vt/eVN1Xy3261etxtl/9Tf2M3fP2g9/6mv+vgrlenTp4/t6up6qcrtSxS1Y8J4TXZM6PX6VXlhN/3WKi+sotvOA25dsmTJP+2lnj/oY0mOCdls9qn+cDNr6tSpo7V+rOVesyZbrwcqvr/mtl8ZqnVm12XW2MLK8Fqb9Prd2h8u0rrs86dyJk+ePCaTydjTKrb8TVq2QxQ+WPOh+b/onf72Ufs9Ct6p8N0hvELHUiunZWOPSw8ZMqSgZdyVQveJqG5UAFZAOSoAn+HPj1IPrGoYl+6ODohcar9U5GKfkA0E9mhsNu3Xd3en7z/kumWJW/HpTMKtazvq0HQubQeyF4XkivE+l/Wp6KFsKvOvg65eVtCoglQA7lgBqN/4uOJfGTZs2Le4G1w7pkyZsp9OvvbXyeAwXRwM03q0FiVPd3d3r1u+fHlRLSd08XauZtbXS9H0nXZn+KMhihLTRfDgLVu2jNJ63Ufb6WBNQ7TO7QaHVTg9oTLwSK1f5AJFSuni+QDte/bWvm+I7f+UVqftYrPCm7PZ7CZtLxvLUXmMXStHBeCu6HteqPU7Jp1OD7f9oVUGKbxJ88eXVHg0377ynGPCC1TerZJ36DPHBOXlk0p7pIP+mtFHpk2btq9m+2qbHK6yaH0T9pRP205VPjdqu33y3//+92YGE0RfogKwAspZAQgUiwrAZysAbfTBH+ogfb51yJ5/FQORLqqsH6qP5WPFURn6X128MdgOAAxQlaoABAAgKfoABDCgOOesRcTcdDptA0GcQ+UfdAE2JgTjsEdTAAAAAKCqUQEIYEDp6Oi4VdPpCxcuvDckAdaHS1w2uiIAAAAAVDUeAa6AcjwC/ODJEydmU7nXahUeqZX4Ir0zHV6qGO+ibc67ByMftXdn0tcX2gfdrjzQdtRhaZ96tT5zovPRAUqyPm3QGxc9pf8e9pFf5VL+D6OvXr06vNKrgf4IMPBcLS0tB6qcW4fSRR8P9b7urVu3vmD16uIGEQIA9B88AgwAqBVUAFZAKSsAreIvl8p9PXLu2JBUFXzku/XfT6Ourk+OueGuR0PyHq1vbXy13v0p59zLQxJiUtlpV7n4wph5K68NSbtEBSDwH01NTedo//PNEC2Kto+FunCzUeyAAam5uflfmo3IxwaU8zs6Or4TwhjgqAAEANQKHgGuIRtaJ87JpXMLqq3yz7jIZXQRfXZUX7doQ+ukxpC8W+tPbB7a2dZ4iXPR76n8Kw3lY4uLovnrWydcee/Jk/cOyQB2z46B784Hi6dt7pYQBAYqO9a8YKBN3nsbfRQAAKCmUAFYI9adOvFVOZf7pS45h4akquQi92It5+8faJ04NiTtZOWchnpXt22egu/Mp6CUnHOnD0pn/3LfCRPtQgXAbjQ1Nb1J28sRIVo07/1vQxAAAAAAqhoVgDXgoTkNw5zPXW6t7EJSVXNRNCoV5S4O0Z28oNv9RH90XIiiPCbX1fsrQhjA88yYMWN/zb6cj8XSOX78+L+GMAAAAABUNSoAa0B3t/uAi5xdrNYM59x/rz+l4WUh+qz1p054jV57Y4iinFx03PrWxjeEGICgubl5aFdX1zzti2zAoVi891fMnTs3G6IAAAAAUNWoAKwFLjojhGpLKvX6EPqPnDsvhFAZnwhzoGpNnjx5zJw5cyoykvm0adP29d7f6JybFZKKpvd3ZbPZ74YoAAAAAFQ9KgCr3P2nNezjIjcxRGuM32Fwj4dbjxyl2ex8DJXgXDTBRo4OUaAqpdPpi9euXbu+ubn5my0tLdNCcsk1NTW9JpfLdTjnEu2H9P7Lly1bZqOfAgAAAEBNoAKwytVlM6NDsAb4MM9zUTQmBHt0pdITnaPMVVounZsSgkDVaW5urtPs5c71dHNwjvd+YVNT0xpNP5w6derrJk2a9KKeP4wvpc86TpONOP47xQ/OJ8ej5duay+W+EKIAAAAAUBOojKlyLvLDQrAGuDDP81E0PAR7+JzboUIQleEj8h1Vbbpzbod9heLjNb0rlUr9qq6u7sHm5uZVmn6l6TMtLS1naJpqjw3PmjVrh/dNmjRpL712YFNT0wxN5+jvr9J8nT7rJk2vDn+W1JeXLFmyJoQBAAAAoCZQAVjlclGuZjuZd5HbYdlTUW5TCP7Hjo0GUR6bwxyoOt77V4Xg7tidhQZNr9N0vv7+Ck2LM5nMum3btm1sbm7OaXpc07a6urrNeu1+59wCTd/U38/R3LoeKAl99j83btyYZORgAAAAAOgTVABWO5d7OIRq0fOW3d0XAv+xY6NBlEHKR/eGIFB1nHPHhmBcthd5gab6nliZeO+3pFKpM9esWbMtJAEAAABAzaACsMqNeuHQTh9FO7ecqwU+uiOEeozKNCz2PnowRFEB3vunUpncLSEKVBV7ZFezGflYVbO2yu9ob29fko8CAAAAQG2hArDKuUs6ujSzjutrjq6YbwjBHm7u3KyLol+EKCpj7v5zV/MIMKpSfX29jRRe1pZ7JfKJxYsX/zKEAQAAAKDmUAFYA7zz3wjBWvLokMygnSr7BmcGfdFH0YYQRRl5H23sznZ/MkSBqpPL5fbU/181+FRHR8eFIQzgObq7u6e4/KA9A2rKZrM/ClkAAABQM+iBrQI62xqv0+ykfKx33vvLxsxf9aYQfdb61sZfOBftlF6tfOTfMWbeqp+E6A7WnTrxVSnvf6PgoHwKSk3lKOsif8bo+auvDknPWt/WOFcb/mkh2it9zlUqjzb4AlByTU1NS3QxPSVEq812Ldu729vbfxriAADspLm5+R+azczHiqPzrNGLFy/mxjgAoCJoAVgjsulh79Jpgp1g1AD/nd1V/pmx16z4o8+513nP6LRlsi3lUu/YVeUfUC2mTJmyn3NuUohWFV2QrdPsGCr/AAAAAPQXVADWiIOuXrClOzX8Vd5H/y8kVaNtunL+2Oh5qz4Q4rs15toV13mfalbw7/kUlISPluSyuZmj5q24NKQAVck5d4xm1XgMmltfXz+5o6Pj1hAHAAAAgJpHBWANsUrAMfNXvtlH/mU+iuZ5758KL/UpG9lXy/RDl00fOXr+qotC8h6NvXb5XaPnrTzaRf4Yfcrl+oyHwksozmPKu7nORyeOmr+yeex1q5eGdKBq1dXV3ap92JcVfCSf0re0LLdrOqajo+P0BQsWPB6SAQAAAKBfoA/ACihFH4C7snJOQ/1+Xe7A7siP8qn04JBcMRkfbd6eTj1w4IRlG9wFUS4kx+ZVHh9pPfKAbanMfs67F4Vk7I7rfizblXvooKl3PlhM/tMHIKrJoYceOmjEiBFWHt/jnJuVT60clfHb9L1f7ejosP20dkMAABSOPgABALWCCsAKKFcFIBAHFYCoVi0tLUfkcjnbV56g6aXOuUzPC6XXqenabDZ7ydKlS5flkwAAKB4VgACAWsEjwACAqtDe3n6nLoS+qukVXV1d1gr4TF0cXaz5PzTf1PNHMei9j2n6rabP5HK5aR0dHWM1vZfKPwBAUt3d3ac558bHmeTh8DEAAJQdLQArgBaAqCa0AESNci0tLYeoTE7UNEbxkTbpAuoFIWye1GtblfbvXC53n+L319XV3bNw4cJ78y8DAAAAwMBEBWAFlKsCcN0pkw53Lnecc36GotZaZp+eF7B73m2LnH/E+2iN86k/dmf2+osNrhJeLcr6Ew9/YVRXd4qCs7UlHaiNaVj+lQrz7jF9//2Rz/3Odw25ccwNHU+HV3aJCkAAAAAAAAYWKgAroNQVgOvbJrxUK+58rb5XhyTE5CP/sP77VjY9/BuFVgTedfyhg/YaMvhTeveHnHN7heSqYCMy6///Uxn6cUjaCRWAAAAAAAAMLPQBWEP87NmZztYJX4q8+yuVf6XhIvci59wX0tnN7Q+ePHFiSN4ta/U3bMjgPzoXfaraKv+MlusALdeP1rc1/tzKS0gGAAAAAAADGBWANcJHkduwz6MXR86d5xzrrdSUpw3ZVO5v6049ampI2ok/u7kuqqu/KnLRS0NS1XJR9GaVl2+EKAAAAAAAGMCoSKoRG1obPxU5d1aIIikf5s/hnBuZ8ukb7jthog0qsJPOR7d9xLnolSFa/Zx73/rWRlqKAgAAAAAwwFEBWAMeaDvqsMhFnwxRlMLue78cnRmU+2IIP+uhOQ3DXOTPDdHa4aLPhxAAAAAAABigqACsAeko9X7NBuVjKDfn3VnrTjly3xDtkc264/TK3iFaM1wUTd9w2qRDQhQAAAAAAAxAVABWOev7T9PpIYpKcFG9S6VPCbEeWgdV3+/f7nifq9llBwAAAAAAyVEBWOUebJ20n4vc/iGKClGeN4ZgD+fd6BCsOd77ml12AAAAAACQHBWAVS6b66bypg/4yI8JwWcMDfPa46O9QggAAAAAAAxAVABWuXRd5skQRAW5yD0RgoHPhkDNcc7V7LIDAAAAAIDkqACsco+57vWRj7aHKCrER9G9IdjDu+ihEKxB7sEQAAAAAAAAAxAVgFWuce5qq/z7XT6GSkn51PUh+Iw7wrzm+Fx2dQgCAAAAAIABiArAGuC9+0kIogJ8FC0cNX/5yhDtkY5S1ytd/6rc85bQe//I6LoJ/whRAAAAAAAwAFEBWAPGXLviushHvw9RlJH3Uc55/74QfdYB81bco9k1+VgVc2H+DOe+7ubOpQ9AAAAAAAAGMCoAa0R3On2Wj/y/QhRl4iJ/7uj5qxaF6A7SkTs3ivy/Q7TqeR+tyqaGfStEAQAAAADAAEUFYI046Opl63NR7jVR5O8KSSgh731W0ydHz191UUjaibUCzEWp0/XXT4ekquWjaEPG+5MPunrBlpAEAAAAAAAGKCoAa8iB8+64O532zT7yP/Ted4VkJOSj6I5UKjp2zPxVXwxJuzV23oqbo1zq5XrTmpBUdVQ2/ppNpaftf+2qtSEJAAAAAAAMYFQA1pj9567ePGbeqndHGX+ool+MIt9h/dblX0URHtX0qyjnTx09cWXjqGtW/SWfvGejr13R8XgmN0F5/57I+79Z68HwUt/x0VYfRTeoLLSNmb9qtrUYDa8AAAAAAIAB7vlDBqAMOtsar9PspHysd977y8bMX/WmEC2IP7u57oHHu1+U6uraL+XS6ZCMXchlos2DN2/Z8MKb1mwMSYmtnNNQv0/Wj9KHvzAkVUwu3Z3LduUeOmjQpIcKHexjfVvjXG34p4Vor1Qer1J5fF2IAgAAAACAGkQFYAWUuwIQKAYVgAAAAAAADCw8AgwAAAAAAAD0Y1QAAgAAAAAAAP0YFYAAAAAAAABAP0YFIAAAAAAAANCPUQEIAAAAAAAA9GNUAFaAj6LuENwjF7m6EATKwkVRfQjukf624LILAAAAAACqExWAleCjh0KoEK9ed9rEI0IYKKkHTm2c5KPolSG6R94VVXYBAAAAAEAVcmGOMupsbfw/5fRnQ3SPvPdZF7n1PvK0vkLJOOfqvI/GOFdExb/3Hxs9f9VFIQYAAAAAAGoQFYAVsKG18QTvohtCFKgZzudeNWr+6j+FKAAAAAAAqEE8AlwBm7ZsvdlrFqJAjfBPHLDfkL+FCAAAAAAAqFFUAFbA4Tet2eY8LQBRa9zV7pKOrhABAAAAAAA1igrACsn51Ge891SmoDb4aGsUZT8fYgAAAAAAoIZRAVghY69dflfk3I9CFKh23x497477QhgAAAAAANQwKgArKJsa9lEfRQtDFKhOPrpt85atnw4xAAAAAABQ4xgFuMLuP23ymHSu++8uci8OSUAV8Xc5nz561PzlD4cEAAAAAABQ42gBWGEHXb1svc9lW7yP/hySgKrgvf9rlKp7GZV/AAAAAAD0L1QA9oGx1/7zsX9ncsf7KPpEFPknQjLQN3z0eOT9x0Y//sJXjb566SMhFQAAAAAA9BM8AtzH1p1y5L4pl3mPgq1aG1PzqUB5+Z5/Ubum+d3b3A8P/s2Kf/e8AAAAAAAA+h0qAKvIA60Tx2Zc7jDv3JjIR/t7H2XCS0BizkVd2uIfdpFft72r+66Df31nZ3gJAAAAAAAAAAAAAAAAAAAAAAAAAAAAAAAAAAAAAAAAAAAAAAAAAAAAAAAAAAAAAAAAAAAAAAAAAAAAAAAAAAAAAAAAAAAAAAAAAAAAAAAAAAAAAAAAAAAAAAAAAAAAAAAAAAAAAAAAAAAAAAAAAAAAAAAAAAAAAAAAAAAAAAAAAAAAAAAAAAAAAAAAAAAAAAAAAAAAAAAAAAAAAAAAAAAAAAAAAAAAAAAAAAAAAAAAAAAAAAAAAAAAAAAAAAAAAAAAAAAAAAAAAAAAAAAAAAAAAAAAAAAAAAAAAAAAAAAAAAAAAAAAAAAAAAAAAAAAAAAAAAAAAAAAAAAAAAAAAAAAAAAAAAAAAAAAAAAAAAAAAAAAAAAAAAAAAAAAAAAAAAAAAAAAAAAAAAAAAAAAAAAAAAAAAAAAAAAAAAAAAAAAfSyK/j+34sK6b9J+SAAAAABJRU5ErkJggg==" parent="1" vertex="1">
          <mxGeometry x="390.74" y="510" width="152.53" height="45" as="geometry" />
        </mxCell>
        <mxCell id="LdKZ-aVJx-CH3_bbswVv-11" value="" style="rounded=0;whiteSpace=wrap;html=1;labelBackgroundColor=none;strokeColor=#b46504;fillColor=#fad7ac;" parent="1" vertex="1">
          <mxGeometry x="145" y="263" width="30" height="20" as="geometry" />
        </mxCell>
        <mxCell id="LdKZ-aVJx-CH3_bbswVv-12" value="Agente/Exporters" style="text;html=1;strokeColor=none;fillColor=none;align=center;verticalAlign=middle;whiteSpace=wrap;rounded=0;labelBackgroundColor=none;fontColor=default;" parent="1" vertex="1">
          <mxGeometry x="40" y="258" width="100" height="30" as="geometry" />
        </mxCell>
        <mxCell id="LdKZ-aVJx-CH3_bbswVv-19" value="" style="edgeStyle=orthogonalEdgeStyle;rounded=0;orthogonalLoop=1;jettySize=auto;html=1;" parent="1" source="LdKZ-aVJx-CH3_bbswVv-13" target="LdKZ-aVJx-CH3_bbswVv-6" edge="1">
          <mxGeometry relative="1" as="geometry" />
        </mxCell>
        <mxCell id="LdKZ-aVJx-CH3_bbswVv-13" value="Datasource&lt;br&gt;" style="rounded=0;fontColor=default;whiteSpace=wrap;html=1;labelBackgroundColor=none;verticalAlign=middle;" parent="1" vertex="1">
          <mxGeometry x="665.8" y="297.5" width="110" height="44" as="geometry" />
        </mxCell>
        <mxCell id="LdKZ-aVJx-CH3_bbswVv-22" style="edgeStyle=orthogonalEdgeStyle;rounded=0;orthogonalLoop=1;jettySize=auto;html=1;entryX=0.5;entryY=1;entryDx=0;entryDy=0;" parent="1" source="LdKZ-aVJx-CH3_bbswVv-20" target="LdKZ-aVJx-CH3_bbswVv-6" edge="1">
          <mxGeometry relative="1" as="geometry" />
        </mxCell>
        <mxCell id="LdKZ-aVJx-CH3_bbswVv-20" value="Datasource&lt;br&gt;" style="rounded=0;fontColor=default;whiteSpace=wrap;html=1;labelBackgroundColor=none;verticalAlign=middle;" parent="1" vertex="1">
          <mxGeometry x="610" y="685.64" width="110" height="44" as="geometry" />
        </mxCell>
        <mxCell id="LdKZ-aVJx-CH3_bbswVv-23" value="Servidor de monitoreo" style="text;html=1;strokeColor=none;fillColor=none;align=center;verticalAlign=middle;whiteSpace=wrap;rounded=0;" parent="1" vertex="1">
          <mxGeometry x="590" y="201.78" width="130" height="30" as="geometry" />
        </mxCell>
      </root>
    </mxGraphModel>
  </diagram>
</mxfile>
